<svg width="314" height="34" viewBox="0 0 314 34" fill="none" xmlns="http://www.w3.org/2000/svg">
<rect x="0.5" y="0.5" width="313" height="33" rx="3.5" fill="#28282C" stroke="url(#paint0_linear_1731_228)"/>
<path d="M12.002 15.941V13.026H13.652C14.653 13.026 15.269 13.609 15.269 14.5C15.269 15.358 14.653 15.941 13.652 15.941H12.002ZM13.795 16.766C15.236 16.766 16.193 15.798 16.193 14.489C16.193 13.191 15.236 12.201 13.795 12.201H11.078V20H12.002V16.766H13.795ZM19.301 14.577C17.783 14.577 16.661 15.743 16.661 17.36C16.661 18.988 17.783 20.154 19.301 20.154C20.819 20.154 21.941 18.988 21.941 17.36C21.941 15.743 20.819 14.577 19.301 14.577ZM19.301 15.369C20.247 15.369 21.061 16.084 21.061 17.36C21.061 18.647 20.247 19.362 19.301 19.362C18.355 19.362 17.541 18.647 17.541 17.36C17.541 16.084 18.355 15.369 19.301 15.369ZM26.3143 14.731L24.8623 18.9L23.5753 14.731H22.6293L24.3783 20H25.3133L26.7653 15.798L28.2393 20H29.1633L30.8793 14.731H29.9443L28.6903 18.9L27.2273 14.731H26.3143ZM32.4952 16.854C32.5502 16.073 33.1662 15.358 34.0792 15.358C35.0802 15.358 35.6192 16.018 35.6412 16.854H32.4952ZM35.7622 18.229C35.5532 18.856 35.0692 19.362 34.1782 19.362C33.2322 19.362 32.4732 18.647 32.4732 17.646V17.602H36.5322C36.5432 17.525 36.5542 17.404 36.5542 17.294C36.5542 15.688 35.6632 14.577 34.0682 14.577C32.7372 14.577 31.5712 15.688 31.5712 17.349C31.5712 19.12 32.7702 20.154 34.1782 20.154C35.3992 20.154 36.2242 19.417 36.5212 18.504L35.7622 18.229ZM40.7123 14.698C40.6353 14.676 40.4813 14.654 40.3383 14.654C39.7553 14.654 39.0843 14.907 38.7433 15.677V14.731H37.8853V20H38.7653V17.272C38.7653 16.084 39.3703 15.578 40.2503 15.578C40.4043 15.578 40.5693 15.589 40.7123 15.633V14.698ZM42.1954 16.854C42.2504 16.073 42.8664 15.358 43.7794 15.358C44.7804 15.358 45.3194 16.018 45.3414 16.854H42.1954ZM45.4624 18.229C45.2534 18.856 44.7694 19.362 43.8784 19.362C42.9324 19.362 42.1734 18.647 42.1734 17.646V17.602H46.2324C46.2434 17.525 46.2544 17.404 46.2544 17.294C46.2544 15.688 45.3634 14.577 43.7684 14.577C42.4374 14.577 41.2714 15.688 41.2714 17.349C41.2714 19.12 42.4704 20.154 43.8784 20.154C45.0994 20.154 45.9244 19.417 46.2214 18.504L45.4624 18.229ZM51.4025 19.241C51.4025 19.582 51.4355 19.879 51.4575 20H52.3155C52.2935 19.89 52.2605 19.538 52.2605 19.01V12.047H51.3805V15.578C51.2045 15.138 50.6875 14.577 49.6755 14.577C48.2015 14.577 47.2335 15.831 47.2335 17.36C47.2335 18.922 48.1575 20.154 49.6755 20.154C50.5885 20.154 51.1605 19.615 51.4025 19.098V19.241ZM49.7525 19.362C48.7625 19.362 48.1135 18.526 48.1135 17.36C48.1135 16.194 48.7515 15.369 49.7525 15.369C50.7535 15.369 51.4025 16.194 51.4025 17.36C51.4025 18.526 50.7425 19.362 49.7525 19.362ZM57.6389 20V19.131C57.9469 19.703 58.5629 20.154 59.4429 20.154C60.9719 20.154 61.8629 18.933 61.8629 17.36C61.8629 15.82 61.0269 14.577 59.4649 14.577C58.5189 14.577 57.9029 15.094 57.6609 15.589V12.047H56.7809V20H57.6389ZM59.3109 19.362C58.2989 19.362 57.6389 18.526 57.6389 17.36C57.6389 16.194 58.2879 15.369 59.3109 15.369C60.3339 15.369 60.9829 16.194 60.9829 17.36C60.9829 18.526 60.3229 19.362 59.3109 19.362ZM64.3641 22.09L67.7411 14.731H66.7841L65.1451 18.46L63.4071 14.731H62.3951L64.6611 19.373L63.3851 22.09H64.3641ZM73.5483 15.369C74.4943 15.369 74.9233 16.018 75.0663 16.579L75.8583 16.238C75.6383 15.402 74.9013 14.577 73.5483 14.577C72.0633 14.577 70.9413 15.721 70.9413 17.36C70.9413 18.966 72.0413 20.154 73.5593 20.154C74.9123 20.154 75.6493 19.296 75.9023 18.515L75.1323 18.174C74.9783 18.658 74.5603 19.362 73.5593 19.362C72.6243 19.362 71.8213 18.625 71.8213 17.36C71.8213 16.084 72.6243 15.369 73.5483 15.369ZM79.9858 14.698C79.9088 14.676 79.7548 14.654 79.6118 14.654C79.0288 14.654 78.3578 14.907 78.0168 15.677V14.731H77.1588V20H78.0388V17.272C78.0388 16.084 78.6438 15.578 79.5238 15.578C79.6778 15.578 79.8428 15.589 79.9858 15.633V14.698ZM82.368 22.09L85.745 14.731H84.788L83.149 18.46L81.411 14.731H80.399L82.665 19.373L81.389 22.09H82.368ZM87.6638 22.09V19.186C87.9388 19.681 88.5438 20.154 89.4458 20.154C90.9638 20.154 91.8658 18.933 91.8658 17.36C91.8658 15.787 91.0188 14.577 89.4678 14.577C88.5328 14.577 87.9168 15.072 87.6418 15.611V14.731H86.7838V22.09H87.6638ZM89.3138 19.362C88.3018 19.362 87.6418 18.526 87.6418 17.36C87.6418 16.194 88.2908 15.369 89.3138 15.369C90.3368 15.369 90.9858 16.194 90.9858 17.36C90.9858 18.526 90.3258 19.362 89.3138 19.362ZM94.4192 13.059H93.5942V13.928C93.5942 14.423 93.3632 14.731 92.8242 14.731H92.4832V15.523H93.5392V18.559C93.5392 19.516 94.1002 20.055 94.9692 20.055C95.3102 20.055 95.5632 19.989 95.6622 19.956V19.208C95.5742 19.23 95.3762 19.263 95.2222 19.263C94.6612 19.263 94.4192 18.988 94.4192 18.438V15.523H95.6622V14.731H94.4192V13.059ZM99.1477 14.577C97.6297 14.577 96.5077 15.743 96.5077 17.36C96.5077 18.988 97.6297 20.154 99.1477 20.154C100.666 20.154 101.788 18.988 101.788 17.36C101.788 15.743 100.666 14.577 99.1477 14.577ZM99.1477 15.369C100.094 15.369 100.908 16.084 100.908 17.36C100.908 18.647 100.094 19.362 99.1477 19.362C98.2017 19.362 97.3877 18.647 97.3877 17.36C97.3877 16.084 98.2017 15.369 99.1477 15.369Z" fill="white"/>
<path d="M149.945 19.8486C150.195 19.8486 150.399 19.6561 150.399 19.4187V13.5719C150.399 13.3344 150.195 13.1419 149.945 13.1419H149.454C149.203 13.1419 149 13.3344 149 13.5719V19.4187C149 19.6561 149.203 19.8486 149.454 19.8486H149.945Z" fill="white"/>
<path d="M160.641 19.8486C160.892 19.8486 161.095 19.6561 161.095 19.4187V13.5719C161.095 13.3344 160.892 13.1419 160.641 13.1419H160.171C159.92 13.1419 159.717 13.3344 159.717 13.5719V17.5784L156.903 13.3429C156.82 13.2178 156.675 13.1419 156.519 13.1419H155.505C155.254 13.1419 155.051 13.3344 155.051 13.5719V19.4187C155.051 19.6561 155.254 19.8486 155.505 19.8486H155.976C156.226 19.8486 156.43 19.6561 156.43 19.4187V15.0905L159.513 19.6505C159.596 19.774 159.74 19.8486 159.895 19.8486H160.641Z" fill="white"/>
<path d="M170.497 14.3811C170.748 14.3811 170.951 14.1886 170.951 13.9511V13.5719C170.951 13.3344 170.748 13.1419 170.497 13.1419H165.541C165.29 13.1419 165.087 13.3344 165.087 13.5719V13.9511C165.087 14.1886 165.29 14.3811 165.541 14.3811H167.324V19.4187C167.324 19.6561 167.528 19.8486 167.779 19.8486H168.259C168.51 19.8486 168.713 19.6561 168.713 19.4187V14.3811H170.497Z" fill="white"/>
<path d="M178.921 19.8486C179.171 19.8486 179.375 19.6561 179.375 19.4187V19.0489C179.375 18.8114 179.171 18.6189 178.921 18.6189H176.317V17.0676H178.631C178.882 17.0676 179.085 16.8751 179.085 16.6376V16.334C179.085 16.0966 178.882 15.9041 178.631 15.9041H176.317V14.3716H178.921C179.171 14.3716 179.375 14.1791 179.375 13.9416V13.5719C179.375 13.3344 179.171 13.1419 178.921 13.1419H175.393C175.142 13.1419 174.939 13.3344 174.939 13.5719V19.4187C174.939 19.6561 175.142 19.8486 175.393 19.8486H178.921Z" fill="white"/>
<path d="M187.092 19.6138C187.17 19.7579 187.326 19.8486 187.497 19.8486H188.006C188.348 19.8486 188.567 19.5054 188.408 19.2191L187.238 17.1054C188.167 16.85 188.747 16.1405 188.747 15.2041C188.747 14.0405 187.868 13.1419 186.489 13.1419H184.176C183.925 13.1419 183.722 13.3344 183.722 13.5719V19.4187C183.722 19.6561 183.925 19.8486 184.176 19.8486H184.656C184.907 19.8486 185.11 19.6561 185.11 19.4187V17.2662H185.83L187.092 19.6138ZM185.11 16.1405V14.277H186.229C186.929 14.277 187.338 14.6459 187.338 15.2135C187.338 15.7622 186.929 16.1405 186.229 16.1405H185.11Z" fill="white"/>
<path d="M198.602 19.8486C198.853 19.8486 199.056 19.6561 199.056 19.4187V13.5719C199.056 13.3344 198.853 13.1419 198.602 13.1419H198.132C197.881 13.1419 197.677 13.3344 197.677 13.5719V17.5784L194.864 13.3429C194.781 13.2178 194.635 13.1419 194.479 13.1419H193.466C193.215 13.1419 193.012 13.3344 193.012 13.5719V19.4187C193.012 19.6561 193.215 19.8486 193.466 19.8486H193.936C194.187 19.8486 194.391 19.6561 194.391 19.4187V15.0905L197.474 19.6505C197.557 19.774 197.701 19.8486 197.856 19.8486H198.602Z" fill="white"/>
<path d="M207.698 19.8486C207.949 19.8486 208.153 19.6561 208.153 19.4187V19.0489C208.153 18.8114 207.949 18.6189 207.698 18.6189H205.095V17.0676H207.409C207.659 17.0676 207.863 16.8751 207.863 16.6376V16.334C207.863 16.0966 207.659 15.9041 207.409 15.9041H205.095V14.3716H207.698C207.949 14.3716 208.153 14.1791 208.153 13.9416V13.5719C208.153 13.3344 207.949 13.1419 207.698 13.1419H204.171C203.92 13.1419 203.717 13.3344 203.717 13.5719V19.4187C203.717 19.6561 203.92 19.8486 204.171 19.8486H207.698Z" fill="white"/>
<path d="M217.241 14.3811C217.491 14.3811 217.695 14.1886 217.695 13.9511V13.5719C217.695 13.3344 217.491 13.1419 217.241 13.1419H212.284C212.033 13.1419 211.83 13.3344 211.83 13.5719V13.9511C211.83 14.1886 212.033 14.3811 212.284 14.3811H214.068V19.4187C214.068 19.6561 214.271 19.8486 214.522 19.8486H215.003C215.253 19.8486 215.457 19.6561 215.457 19.4187V14.3811H217.241Z" fill="white"/>
<path d="M229.984 19.9905C231.728 19.9905 232.726 19.0305 233.127 18.0989C233.218 17.8868 233.08 17.6588 232.848 17.5925L232.413 17.468C232.171 17.3986 231.919 17.5336 231.798 17.744C231.507 18.2475 230.939 18.7135 229.984 18.7135C228.845 18.7135 227.786 17.9284 227.786 16.5C227.786 14.977 228.905 14.2581 229.964 14.2581C230.923 14.2581 231.468 14.6896 231.742 15.1846C231.863 15.404 232.123 15.5479 232.373 15.4734L232.806 15.344C233.034 15.2759 233.171 15.0505 233.082 14.8401C232.682 13.8845 231.693 13 229.964 13C228.066 13 226.358 14.3622 226.358 16.5C226.358 18.6378 228.006 19.9905 229.984 19.9905Z" fill="white"/>
<path d="M238.335 16.4905C238.335 14.977 239.454 14.2581 240.543 14.2581C241.642 14.2581 242.761 14.977 242.761 16.4905C242.761 18.0041 241.642 18.723 240.543 18.723C239.454 18.723 238.335 18.0041 238.335 16.4905ZM236.906 16.5C236.906 18.6568 238.625 19.9905 240.543 19.9905C242.471 19.9905 244.19 18.6568 244.19 16.5C244.19 14.3338 242.471 13 240.543 13C238.625 13 236.906 14.3338 236.906 16.5Z" fill="white"/>
<path d="M255.87 19.8486C256.12 19.8486 256.324 19.6561 256.324 19.4187V13.5719C256.324 13.3344 256.12 13.1419 255.87 13.1419H254.751C254.566 13.1419 254.4 13.2479 254.331 13.41L252.368 17.9851L250.356 13.4067C250.285 13.2464 250.12 13.1419 249.937 13.1419H248.875C248.624 13.1419 248.421 13.3344 248.421 13.5719V19.4187C248.421 19.6561 248.624 19.8486 248.875 19.8486H249.286C249.537 19.8486 249.74 19.6561 249.74 19.4187V15.1851L251.662 19.5831C251.732 19.7438 251.898 19.8486 252.082 19.8486H252.622C252.807 19.8486 252.973 19.7433 253.043 19.5819L254.965 15.1473V19.4187C254.965 19.6561 255.168 19.8486 255.419 19.8486H255.87Z" fill="white"/>
<path d="M262.369 16.1973V14.277H263.457C264.147 14.277 264.566 14.6459 264.566 15.2419C264.566 15.8189 264.147 16.1973 263.457 16.1973H262.369ZM263.627 17.323C265.026 17.323 265.955 16.4527 265.955 15.2324C265.955 14.0216 265.026 13.1419 263.627 13.1419H261.434C261.183 13.1419 260.98 13.3344 260.98 13.5719V19.4187C260.98 19.6561 261.183 19.8486 261.434 19.8486H261.904C262.155 19.8486 262.359 19.6561 262.359 19.4187V17.323H263.627Z" fill="white"/>
<path d="M272.684 20C274.202 20 275.411 19.1203 275.411 17.4743V13.5719C275.411 13.3344 275.208 13.1419 274.957 13.1419H274.486C274.236 13.1419 274.032 13.3344 274.032 13.5719V17.3797C274.032 18.2595 273.523 18.723 272.684 18.723C271.864 18.723 271.345 18.2595 271.345 17.3797V13.5719C271.345 13.3344 271.142 13.1419 270.891 13.1419H270.42C270.169 13.1419 269.966 13.3344 269.966 13.5719V17.4743C269.966 19.1203 271.175 20 272.684 20Z" fill="white"/>
<path d="M284.75 14.3811C285.001 14.3811 285.204 14.1886 285.204 13.9511V13.5719C285.204 13.3344 285.001 13.1419 284.75 13.1419H279.794C279.543 13.1419 279.34 13.3344 279.34 13.5719V13.9511C279.34 14.1886 279.543 14.3811 279.794 14.3811H281.578V19.4187C281.578 19.6561 281.781 19.8486 282.032 19.8486H282.512C282.763 19.8486 282.966 19.6561 282.966 19.4187V14.3811H284.75Z" fill="white"/>
<path d="M293.174 19.8486C293.424 19.8486 293.628 19.6561 293.628 19.4187V19.0489C293.628 18.8114 293.424 18.6189 293.174 18.6189H290.571V17.0676H292.884C293.135 17.0676 293.338 16.8751 293.338 16.6376V16.334C293.338 16.0966 293.135 15.9041 292.884 15.9041H290.571V14.3716H293.174C293.424 14.3716 293.628 14.1791 293.628 13.9416V13.5719C293.628 13.3344 293.424 13.1419 293.174 13.1419H289.646C289.395 13.1419 289.192 13.3344 289.192 13.5719V19.4187C289.192 19.6561 289.395 19.8486 289.646 19.8486H293.174Z" fill="white"/>
<path d="M301.345 19.6138C301.423 19.7579 301.579 19.8486 301.75 19.8486H302.259C302.601 19.8486 302.82 19.5054 302.661 19.2191L301.491 17.1054C302.421 16.85 303 16.1405 303 15.2041C303 14.0405 302.121 13.1419 300.742 13.1419H297.975V19.4187C297.975 19.6561 298.178 19.8486 298.429 19.8486H298.909C299.16 19.8486 299.363 19.6561 299.363 19.4187V17.2662H300.083L301.345 19.6138ZM299.363 16.1405V14.277H300.482C301.182 14.277 301.591 14.6459 301.591 15.2135C301.591 15.7622 301.182 16.1405 300.482 16.1405H299.363Z" fill="white"/>
<path d="M134.653 9C132.759 9 130.694 9.97059 128.512 11.8824C127.476 12.7882 126.582 13.7588 125.912 14.5353C125.912 14.5353 125.912 14.5353 125.918 14.5412V14.5353C125.918 14.5353 126.976 15.6882 128.147 16.9235C128.776 16.1765 129.682 15.1588 130.723 14.2412C132.665 12.5412 133.929 12.1824 134.653 12.1824C137.376 12.1824 139.588 14.3412 139.588 16.9941C139.588 19.6294 137.37 21.7882 134.653 21.8059C134.529 21.8059 134.37 21.7882 134.17 21.7471C134.965 22.0882 135.817 22.3353 136.629 22.3353C141.617 22.3353 142.594 19.0823 142.659 18.8471C142.806 18.2529 142.882 17.6294 142.882 16.9882C142.882 12.5882 139.188 9 134.653 9Z" fill="url(#paint1_linear_1731_228)"/>
<path d="M117.229 24.9999C119.124 24.9999 121.188 24.0293 123.371 22.1175C124.406 21.2116 125.3 20.241 125.971 19.4646C125.971 19.4646 125.971 19.4646 125.965 19.4587V19.4646C125.965 19.4646 124.906 18.3116 123.735 17.0763C123.106 17.8234 122.2 18.841 121.159 19.7587C119.218 21.4587 117.953 21.8175 117.229 21.8175C114.506 21.8116 112.294 19.6528 112.294 16.9999C112.294 14.3646 114.512 12.2057 117.229 12.1881C117.353 12.1881 117.512 12.2057 117.712 12.2469C116.918 11.9058 116.065 11.6587 115.253 11.6587C110.265 11.6587 109.294 14.9116 109.224 15.141C109.076 15.741 109 16.3587 109 16.9999C109 21.4116 112.694 24.9999 117.229 24.9999Z" fill="url(#paint2_linear_1731_228)"/>
<path d="M136.618 22.2647C134.065 22.2 131.412 20.1882 130.871 19.6882C129.471 18.3941 126.241 14.8941 125.988 14.6176C123.624 11.9647 120.418 9 117.23 9H117.224H117.218C113.347 9.01765 110.094 11.6412 109.224 15.1412C109.288 14.9118 110.565 11.5941 115.247 11.7118C117.8 11.7765 120.465 13.8176 121.012 14.3176C122.412 15.6118 125.641 19.1118 125.894 19.3882C128.259 22.0353 131.465 25 134.653 25H134.659H134.665C138.535 24.9823 141.794 22.3588 142.659 18.8588C142.588 19.0882 141.306 22.3765 136.618 22.2647Z" fill="#29ABE2"/>
<defs>
<linearGradient id="paint0_linear_1731_228" x1="45.0221" y1="4.875" x2="50.186" y2="52.5658" gradientUnits="userSpaceOnUse">
<stop stop-color="#A1A2A7"/>
<stop offset="1" stop-color="#565861"/>
</linearGradient>
<linearGradient id="paint1_linear_1731_228" x1="130.369" y1="10.055" x2="141.558" y2="21.6414" gradientUnits="userSpaceOnUse">
<stop offset="0.21" stop-color="#F15A24"/>
<stop offset="0.6841" stop-color="#FBB03B"/>
</linearGradient>
<linearGradient id="paint2_linear_1731_228" x1="121.513" y1="23.9449" x2="110.324" y2="12.3585" gradientUnits="userSpaceOnUse">
<stop offset="0.21" stop-color="#ED1E79"/>
<stop offset="0.8929" stop-color="#522785"/>
</linearGradient>
</defs>
</svg>
