<?xml version="1.0" encoding="UTF-8"?>
<svg id="Layer_1" data-name="Layer 1" xmlns="http://www.w3.org/2000/svg" xmlns:xlink="http://www.w3.org/1999/xlink" viewBox="0 0 192.21 71.94">
  <defs>
    <linearGradient id="linear-gradient" x1="94.35" y1="74.08" x2="98.5" y2="35.77" gradientTransform="translate(0 109.77) scale(1 -1)" gradientUnits="userSpaceOnUse">
      <stop offset="0" stop-color="#a1a2a7"/>
      <stop offset="1" stop-color="#565861"/>
    </linearGradient>
    <linearGradient id="linear-gradient-2" x1="37.75" y1="61.78" x2="48.94" y2="50.19" gradientTransform="translate(0 109.77) scale(1 -1)" gradientUnits="userSpaceOnUse">
      <stop offset=".21" stop-color="#f15a24"/>
      <stop offset=".68" stop-color="#fbb03b"/>
    </linearGradient>
    <linearGradient id="linear-gradient-3" x1="28.9" y1="47.88" x2="17.71" y2="59.47" gradientTransform="translate(0 109.77) scale(1 -1)" gradientUnits="userSpaceOnUse">
      <stop offset=".21" stop-color="#ed1e79"/>
      <stop offset=".89" stop-color="#522785"/>
    </linearGradient>
    <linearGradient id="linear-gradient-4" x1="94.35" y1="111.23" x2="98.5" y2="72.92" xlink:href="#linear-gradient"/>
    <linearGradient id="linear-gradient-5" x1="46.31" y1="68.32" x2="52.59" y2="91.78" gradientTransform="translate(-14.97 97.39) scale(1 -1)" gradientUnits="userSpaceOnUse">
      <stop offset="0" stop-color="#c61682"/>
      <stop offset=".47" stop-color="#e50051"/>
      <stop offset="1" stop-color="#ef7800"/>
    </linearGradient>
  </defs>
  <path d="M4.4,38.44H188.48c1.69,0,3.07,1.57,3.07,3.5v26c0,1.93-1.37,3.5-3.07,3.5H4.4c-1.69,0-3.07-1.57-3.07-3.5v-26c0-1.93,1.37-3.5,3.07-3.5Z" style="fill: #28282c; stroke: url(#linear-gradient);"/>
  <path d="M66.38,57.83c.18,0,.33-.14,.33-.31v-4.24c0-.17-.15-.31-.33-.31h-.36c-.18,0-.33,.14-.33,.31v4.24c0,.17,.15,.31,.33,.31h.36Z" style="fill: #fff;"/>
  <path d="M74.14,57.83c.18,0,.33-.14,.33-.31v-4.24c0-.17-.15-.31-.33-.31h-.34c-.18,0-.33,.14-.33,.31v2.91l-2.04-3.07c-.06-.09-.17-.15-.28-.15h-.74c-.18,0-.33,.14-.33,.31v4.24c0,.17,.15,.31,.33,.31h.34c.18,0,.33-.14,.33-.31v-3.14l2.24,3.31c.06,.09,.16,.14,.28,.14h.54Z" style="fill: #fff;"/>
  <path d="M81.28,53.87c.18,0,.33-.14,.33-.31v-.27c0-.17-.15-.31-.33-.31h-3.59c-.18,0-.33,.14-.33,.31v.27c0,.17,.15,.31,.33,.31h1.29v3.65c0,.17,.15,.31,.33,.31h.35c.18,0,.33-.14,.33-.31v-3.65h1.29Z" style="fill: #fff;"/>
  <path d="M87.39,57.83c.18,0,.33-.14,.33-.31v-.27c0-.17-.15-.31-.33-.31h-1.89v-1.12h1.68c.18,0,.33-.14,.33-.31v-.22c0-.17-.15-.31-.33-.31h-1.68v-1.11h1.89c.18,0,.33-.14,.33-.31v-.27c0-.17-.15-.31-.33-.31h-2.56c-.18,0-.33,.14-.33,.31v4.24c0,.17,.15,.31,.33,.31h2.56Z" style="fill: #fff;"/>
  <path d="M93.32,57.66c.06,.1,.17,.17,.29,.17h.37c.25,0,.41-.25,.29-.46l-.85-1.53c.67-.19,1.09-.7,1.09-1.38,0-.84-.64-1.5-1.64-1.5h-1.68c-.18,0-.33,.14-.33,.31v4.24c0,.17,.15,.31,.33,.31h.35c.18,0,.33-.14,.33-.31v-1.56h.52l.92,1.7Zm-1.44-2.52v-1.35h.81c.51,0,.8,.27,.8,.68s-.3,.67-.8,.67h-.81Z" style="fill: #fff;"/>
  <path d="M101.66,57.83c.18,0,.33-.14,.33-.31v-4.24c0-.17-.15-.31-.33-.31h-.34c-.18,0-.33,.14-.33,.31v2.91l-2.04-3.07c-.06-.09-.17-.15-.28-.15h-.73c-.18,0-.33,.14-.33,.31v4.24c0,.17,.15,.31,.33,.31h.34c.18,0,.33-.14,.33-.31v-3.14l2.24,3.31c.06,.09,.16,.14,.28,.14h.54Z" style="fill: #fff;"/>
  <path d="M108.26,57.83c.18,0,.33-.14,.33-.31v-.27c0-.17-.15-.31-.33-.31h-1.89v-1.12h1.68c.18,0,.33-.14,.33-.31v-.22c0-.17-.15-.31-.33-.31h-1.68v-1.11h1.89c.18,0,.33-.14,.33-.31v-.27c0-.17-.15-.31-.33-.31h-2.56c-.18,0-.33,.14-.33,.31v4.24c0,.17,.15,.31,.33,.31h2.56Z" style="fill: #fff;"/>
  <path d="M115.18,53.87c.18,0,.33-.14,.33-.31v-.27c0-.17-.15-.31-.33-.31h-3.59c-.18,0-.33,.14-.33,.31v.27c0,.17,.15,.31,.33,.31h1.29v3.65c0,.17,.15,.31,.33,.31h.35c.18,0,.33-.14,.33-.31v-3.65h1.29Z" style="fill: #fff;"/>
  <path d="M124.42,57.93c1.26,0,1.99-.7,2.28-1.37,.07-.15-.03-.32-.2-.37l-.32-.09c-.18-.05-.36,.05-.45,.2-.21,.37-.62,.7-1.32,.7-.83,0-1.59-.57-1.59-1.61,0-1.1,.81-1.63,1.58-1.63,.7,0,1.09,.31,1.29,.67,.09,.16,.28,.26,.46,.21l.31-.09c.17-.05,.26-.21,.2-.37-.29-.69-1.01-1.33-2.26-1.33-1.38,0-2.61,.99-2.61,2.54s1.19,2.53,2.63,2.53Z" style="fill: #fff;"/>
  <path d="M130.47,55.39c0-1.1,.81-1.62,1.6-1.62s1.61,.52,1.61,1.62-.81,1.62-1.61,1.62-1.6-.52-1.6-1.62Zm-1.04,0c0,1.56,1.25,2.53,2.64,2.53s2.64-.97,2.64-2.53-1.25-2.54-2.64-2.54-2.64,.97-2.64,2.54Z" style="fill: #fff;"/>
  <path d="M143.19,57.83c.18,0,.33-.14,.33-.31v-4.24c0-.17-.15-.31-.33-.31h-.81c-.13,0-.25,.08-.3,.19l-1.42,3.32-1.46-3.32c-.05-.12-.17-.19-.3-.19h-.77c-.18,0-.33,.14-.33,.31v4.24c0,.17,.15,.31,.33,.31h.3c.18,0,.33-.14,.33-.31v-3.07l1.39,3.19c.05,.12,.17,.19,.3,.19h.39c.13,0,.25-.08,.31-.19l1.39-3.22v3.1c0,.17,.15,.31,.33,.31h.33Z" style="fill: #fff;"/>
  <path d="M147.9,55.18v-1.39h.79c.5,0,.8,.27,.8,.7s-.3,.69-.8,.69h-.79Zm.91,.82c1.01,0,1.69-.63,1.69-1.52s-.67-1.52-1.69-1.52h-1.59c-.18,0-.33,.14-.33,.31v4.24c0,.17,.15,.31,.33,.31h.34c.18,0,.33-.14,.33-.31v-1.52h.92Z" style="fill: #fff;"/>
  <path d="M155.38,57.94c1.1,0,1.98-.64,1.98-1.83v-2.83c0-.17-.15-.31-.33-.31h-.34c-.18,0-.33,.14-.33,.31v2.76c0,.64-.37,.97-.98,.97s-.97-.34-.97-.97v-2.76c0-.17-.15-.31-.33-.31h-.34c-.18,0-.33,.14-.33,.31v2.83c0,1.19,.88,1.83,1.97,1.83Z" style="fill: #fff;"/>
  <path d="M164.13,53.87c.18,0,.33-.14,.33-.31v-.27c0-.17-.15-.31-.33-.31h-3.59c-.18,0-.33,.14-.33,.31v.27c0,.17,.15,.31,.33,.31h1.29v3.65c0,.17,.15,.31,.33,.31h.35c.18,0,.33-.14,.33-.31v-3.65h1.29Z" style="fill: #fff;"/>
  <path d="M170.24,57.83c.18,0,.33-.14,.33-.31v-.27c0-.17-.15-.31-.33-.31h-1.89v-1.12h1.68c.18,0,.33-.14,.33-.31v-.22c0-.17-.15-.31-.33-.31h-1.68v-1.11h1.89c.18,0,.33-.14,.33-.31v-.27c0-.17-.15-.31-.33-.31h-2.56c-.18,0-.33,.14-.33,.31v4.24c0,.17,.15,.31,.33,.31h2.56Z" style="fill: #fff;"/>
  <path d="M176.16,57.66c.06,.1,.17,.17,.29,.17h.37c.25,0,.41-.25,.29-.46l-.85-1.53c.67-.19,1.09-.7,1.09-1.38,0-.84-.64-1.5-1.64-1.5h-2.01v4.55c0,.17,.15,.31,.33,.31h.35c.18,0,.33-.14,.33-.31v-1.56h.52l.92,1.7Zm-1.44-2.52v-1.35h.81c.51,0,.8,.27,.8,.68s-.3,.67-.8,.67h-.81Z" style="fill: #fff;"/>
  <path d="M42.04,46.94c-1.89,0-3.96,.97-6.14,2.88-1.04,.91-1.93,1.88-2.6,2.65h0s1.06,1.15,2.23,2.39c.63-.75,1.54-1.76,2.58-2.68,1.94-1.7,3.21-2.06,3.93-2.06,2.72,0,4.93,2.16,4.93,4.81s-2.22,4.79-4.93,4.81c-.12,0-.28-.02-.48-.06,.79,.34,1.65,.59,2.46,.59,4.99,0,5.96-3.25,6.03-3.49,.15-.59,.22-1.22,.22-1.86,0-4.4-3.69-7.99-8.23-7.99Z" style="fill: url(#linear-gradient-2);"/>
  <path d="M24.61,62.94c1.9,0,3.96-.97,6.14-2.88,1.03-.91,1.93-1.88,2.6-2.65h0s-1.06-1.15-2.23-2.39c-.63,.75-1.54,1.76-2.58,2.68-1.94,1.7-3.21,2.06-3.93,2.06-2.72,0-4.93-2.16-4.93-4.82s2.22-4.79,4.93-4.81c.12,0,.28,.02,.48,.06-.79-.34-1.65-.59-2.46-.59-4.99,0-5.96,3.25-6.03,3.48-.15,.6-.22,1.22-.22,1.86,0,4.41,3.69,8,8.23,8Z" style="fill: url(#linear-gradient-3);"/>
  <path d="M44,60.2c-2.55-.06-5.21-2.08-5.75-2.58-1.4-1.29-4.63-4.79-4.88-5.07-2.36-2.65-5.57-5.62-8.76-5.62h-.01c-3.87,.02-7.12,2.64-7.99,6.14,.06-.23,1.34-3.55,6.02-3.43,2.55,.06,5.22,2.11,5.76,2.61,1.4,1.29,4.63,4.79,4.88,5.07,2.37,2.65,5.57,5.61,8.76,5.61h.01c3.87-.02,7.13-2.64,7.99-6.14-.07,.23-1.35,3.52-6.04,3.41Z" style="fill: #29abe2;"/>
  <path d="M4.4,1.3H188.48c1.69,0,3.07,1.57,3.07,3.5V30.8c0,1.93-1.37,3.5-3.07,3.5H4.4c-1.69,0-3.07-1.57-3.07-3.5V4.8c0-1.93,1.37-3.5,3.07-3.5Z" style="fill: #28282c; stroke: url(#linear-gradient-4);"/>
  <path d="M28.68,20.41c-2-.94-2.54-3.09-2.45-4.65-3.27,3.91-2.75,9.73,1.16,13,.57,.47,1.19,.88,1.85,1.2,1.36,.54,2.92,.02,2.93-1.25v-.74c0-.36-.26-.6-.63-.64-1.87-.2-3.77-.99-4.86-2.75h12.6v.96c0,.56-.24,.89-.73,1-1.08,.23-2.32,.52-3.4,.75-.41,.09-.71,.29-.71,.67v.74c0,1.28,1.57,1.79,2.94,1.25,2.13-1.05,3.77-2.87,4.59-5.09,.59-1.58,.72-3.22,.21-4.84-.34-1.08-.57-2.07,.25-2.64-.85-.69-3.01-.76-4.89,.59l-3.51,2.52,1.29,1.8-2.38,1.7-2.81-3.92c.45-.82,.51-1.8,.17-2.67l.99-.71,1.86,2.59,4.37-3.13c4.33-3.22,1.19-9.99-4.22-10.74,1.53,2.89,1.09,5.08-1.52,6.65-.62,.36-1.21,.78-1.75,1.24-.86,.73-1.51,1.67-1.89,2.73-.44,1.35-.33,2.85,.53,4.38Zm-.44-6.57c.13-1.19,.7-2.34,1.36-3.21,.59-.76,.84-1.31,.76-2.15,1.49,.49,1.45,2.02,.36,2.88-.75,.6-1.74,1.38-2.47,2.48h0Zm2.97,10.15c-2.05,.02-3.89-1.23-4.62-3.15,1.55,1.96,3.8,1.42,4.63,3.15h0Z" style="fill: url(#linear-gradient-5); fill-rule: evenodd;"/>
  <g>
    <path d="M65.7,21.46V13.42c0-.12,.06-.18,.17-.18h2.42c.93,0,1.64,.24,2.13,.73s.74,1.13,.74,1.95-.25,1.47-.74,1.95-1.2,.73-2.13,.73h-1.25v2.87c0,.06-.02,.1-.05,.13-.03,.03-.08,.05-.13,.05h-1c-.11,0-.17-.06-.17-.18Zm3.72-4.41c.3-.23,.44-.61,.44-1.13s-.15-.91-.44-1.13-.69-.34-1.19-.34h-1.19v2.95h1.19c.5,0,.89-.11,1.19-.34Z" style="fill: #a8a8a8;"/>
    <path d="M74.54,21.22c-.66-.38-1.18-.91-1.56-1.57-.38-.66-.58-1.39-.58-2.18s.19-1.53,.58-2.19c.38-.66,.9-1.18,1.56-1.57,.66-.38,1.38-.58,2.17-.58s1.52,.19,2.17,.58c.66,.38,1.18,.91,1.56,1.57,.38,.66,.58,1.39,.58,2.19s-.19,1.52-.58,2.18c-.38,.66-.9,1.18-1.56,1.57-.66,.38-1.38,.58-2.17,.58s-1.52-.19-2.17-.58Zm3.67-1.13c.45-.26,.8-.62,1.06-1.08s.38-.97,.38-1.53-.13-1.08-.38-1.54-.61-.82-1.06-1.08c-.45-.26-.95-.39-1.5-.39s-1.05,.13-1.51,.39c-.45,.26-.81,.62-1.06,1.08-.26,.46-.38,.97-.38,1.54s.13,1.07,.38,1.53c.26,.46,.61,.82,1.06,1.08,.45,.26,.95,.39,1.51,.39s1.05-.13,1.5-.39Z" style="fill: #a8a8a8;"/>
    <path d="M93.55,13.29s.03,.09,.01,.15l-2.44,8.05c-.02,.1-.1,.14-.22,.14h-1.08s-.09-.01-.14-.04-.07-.06-.08-.11l-2.02-6.59-2.03,6.59s-.03,.08-.08,.11c-.04,.02-.09,.04-.14,.04h-1.08c-.12,0-.19-.05-.22-.14l-2.44-8.05s-.01-.04-.01-.07c0-.09,.05-.13,.16-.13h1.02c.11,0,.18,.05,.2,.14l1.87,6.44,2.03-6.44c.03-.1,.1-.14,.2-.14h1c.1,0,.17,.05,.2,.14l2.03,6.44,1.87-6.44c.03-.1,.1-.14,.2-.14h1.02c.06,0,.11,.02,.13,.05Z" style="fill: #a8a8a8;"/>
    <path d="M94.88,21.46V13.42c0-.12,.06-.18,.17-.18h4.16c.11,0,.17,.06,.17,.18v.84c0,.12-.06,.18-.17,.18h-2.99v2.3h2.82c.06,0,.1,.02,.13,.05,.03,.03,.05,.08,.05,.13v.85c0,.11-.06,.17-.18,.17h-2.82v2.5h2.99c.06,0,.1,.02,.13,.05,.03,.03,.05,.08,.05,.13v.84c0,.06-.02,.1-.05,.13-.03,.03-.08,.05-.13,.05h-4.16c-.11,0-.17-.06-.17-.18Z" style="fill: #a8a8a8;"/>
    <path d="M106.72,21.53c0,.07-.05,.11-.16,.11h-1.06c-.1,0-.17-.04-.22-.12l-1.88-2.93h-.95v2.87c0,.06-.02,.1-.05,.13-.03,.03-.08,.05-.13,.05h-1c-.11,0-.17-.06-.17-.18V13.42c0-.12,.06-.18,.17-.18h2.42c.93,0,1.64,.24,2.13,.73s.74,1.13,.74,1.95c0,.64-.16,1.18-.47,1.63-.31,.44-.77,.75-1.37,.92l1.94,2.96s.04,.07,.04,.11Zm-4.26-4.14h1.19c.5,0,.89-.11,1.19-.34s.44-.61,.44-1.13-.15-.91-.44-1.13-.69-.34-1.19-.34h-1.19v2.95Z" style="fill: #a8a8a8;"/>
    <path d="M108.21,21.46V13.42c0-.12,.06-.18,.17-.18h4.16c.11,0,.17,.06,.17,.18v.84c0,.12-.06,.18-.17,.18h-2.99v2.3h2.82c.06,0,.1,.02,.13,.05,.03,.03,.05,.08,.05,.13v.85c0,.11-.06,.17-.18,.17h-2.82v2.5h2.99c.06,0,.1,.02,.13,.05,.03,.03,.05,.08,.05,.13v.84c0,.06-.02,.1-.05,.13-.03,.03-.08,.05-.13,.05h-4.16c-.11,0-.17-.06-.17-.18Z" style="fill: #a8a8a8;"/>
    <path d="M114.45,21.46V13.42c0-.12,.06-.18,.17-.18h2.18c.92,0,1.7,.18,2.35,.55,.64,.36,1.13,.86,1.45,1.49,.32,.63,.48,1.35,.48,2.16s-.16,1.53-.48,2.16c-.32,.63-.8,1.13-1.45,1.49-.64,.36-1.43,.55-2.35,.55h-2.18c-.11,0-.17-.06-.17-.18Zm4.53-1.79c.49-.52,.74-1.26,.74-2.23s-.25-1.71-.74-2.23c-.49-.52-1.23-.77-2.2-.77h-.98v6h.98c.98,0,1.71-.26,2.2-.77Z" style="fill: #a8a8a8;"/>
    <path d="M124.99,21.46V13.42c0-.12,.06-.18,.17-.18h2.65c.75,0,1.32,.2,1.71,.6,.39,.4,.58,.89,.58,1.48,0,.42-.1,.78-.31,1.1-.21,.32-.49,.55-.84,.68,.5,.12,.91,.37,1.22,.76,.31,.38,.46,.86,.46,1.42,0,.72-.25,1.29-.74,1.72-.49,.43-1.21,.64-2.15,.64h-2.58c-.11,0-.17-.06-.17-.18Zm3.51-5.09c.22-.2,.33-.49,.33-.86,0-.72-.42-1.08-1.25-1.08h-1.27v2.24h1.27c.39,0,.7-.1,.92-.3Zm.35,3.74c.28-.23,.41-.57,.41-1.01s-.14-.79-.41-1.02c-.28-.23-.67-.35-1.19-.35h-1.34v2.72h1.34c.52,0,.92-.11,1.19-.34Z" style="fill: #a8a8a8;"/>
    <path d="M137.27,13.35s-.01,.07-.04,.11l-2.47,4.24v3.77c0,.06-.02,.1-.05,.13-.03,.03-.08,.05-.13,.05h-1c-.11,0-.17-.06-.17-.18v-3.77l-2.47-4.24s-.04-.09-.04-.12c0-.06,.05-.1,.14-.1h1.06c.1,0,.17,.04,.22,.12l1.76,3.08,1.76-3.08c.05-.08,.12-.12,.2-.12h1.06c.1,0,.16,.04,.16,.11Z" style="fill: #a8a8a8;"/>
    <path d="M147.91,21.51c0,.09-.05,.13-.16,.13h-1.04c-.1,0-.17-.05-.2-.14l-.49-1.46h-3.48l-.5,1.46c-.03,.1-.1,.14-.2,.14h-1.03c-.06,0-.11-.02-.14-.06s-.03-.09,0-.14l2.86-8.05c.04-.1,.11-.14,.22-.14h1.09c.11,0,.19,.05,.23,.14l2.86,8.05s.01,.04,.01,.07Zm-4.97-2.68h2.66l-1.33-3.92-1.33,3.92Z" style="fill: #ff247d;"/>
    <path d="M156.8,13.29s.05,.08,.05,.13v8.04c0,.06-.02,.1-.05,.13-.03,.03-.08,.05-.13,.05h-1.22c-.1,0-.17-.04-.22-.12l-3.41-6.2v6.14c0,.06-.02,.1-.05,.13-.03,.03-.08,.05-.13,.05h-1c-.11,0-.17-.06-.17-.18V13.42c0-.12,.06-.18,.17-.18h1.22c.1,0,.17,.04,.22,.12l3.41,6.2v-6.14c0-.06,.02-.1,.05-.13,.03-.03,.08-.05,.13-.05h1c.06,0,.1,.02,.13,.05Z" style="fill: #ff247d;"/>
    <path d="M162.33,21.49l-2.86-8.05s-.01-.04-.01-.07c0-.09,.05-.13,.16-.13h1.03c.1,0,.17,.05,.2,.14l2.24,6.59,2.23-6.59c.03-.1,.1-.14,.2-.14h1.04c.06,0,.11,.02,.14,.06s.03,.09,0,.14l-2.86,8.05c-.04,.1-.12,.14-.23,.14h-1.09c-.1,0-.18-.05-.22-.14Z" style="fill: #ff247d;"/>
    <path d="M169.24,21.46V13.42c0-.12,.06-.18,.17-.18h1c.06,0,.1,.02,.13,.05,.03,.03,.05,.08,.05,.13v8.04c0,.06-.02,.1-.05,.13-.03,.03-.08,.05-.13,.05h-1c-.11,0-.17-.06-.17-.18Z" style="fill: #ff247d;"/>
    <path d="M177.89,20.49s.05,.08,.05,.13v.84c0,.06-.02,.1-.05,.13-.03,.03-.08,.05-.13,.05h-3.96c-.11,0-.17-.06-.17-.18V13.42c0-.12,.06-.18,.17-.18h1c.06,0,.1,.02,.13,.05,.03,.03,.05,.08,.05,.13v7.02h2.78c.06,0,.1,.02,.13,.05Z" style="fill: #ff247d;"/>
  </g>
</svg>