<?xml version="1.0" encoding="UTF-8"?>
<svg id="NFT_ANVIL" data-name="NFT ANVIL" xmlns="http://www.w3.org/2000/svg" xmlns:xlink="http://www.w3.org/1999/xlink" viewBox="0 0 850.39 850.39">
  <defs>
    <linearGradient id="GradientFill_1" data-name="GradientFill 1" x1="557.4" y1="752.31" x2="278.49" y2="61.97" gradientTransform="matrix(1, 0, 0, 1, 0, 0)" gradientUnits="userSpaceOnUse">
      <stop offset="0" stop-color="#e28b43"/>
      <stop offset="1" stop-color="#f7c96c"/>
    </linearGradient>
    <linearGradient id="GradientFill_4" data-name="GradientFill 4" x1="425.2" y1="216.23" x2="425.2" y2="823.52" gradientTransform="matrix(1, 0, 0, 1, 0, 0)" gradientUnits="userSpaceOnUse">
      <stop offset="0" stop-color="#fbdc70"/>
      <stop offset="1" stop-color="#ae6a2b"/>
    </linearGradient>
    <linearGradient id="GradientFill_5" data-name="GradientFill 5" x1="425.2" y1="-80.9" x2="425.2" y2="921.91" gradientTransform="matrix(1, 0, 0, 1, 0, 0)" gradientUnits="userSpaceOnUse">
      <stop offset="0" stop-color="#ca7934"/>
      <stop offset="1" stop-color="#f7c96c"/>
    </linearGradient>
    <linearGradient id="GradientFill_1-2" data-name="GradientFill 1" x1="425.21" y1="145.6" x2="425.21" y2="82.55" xlink:href="#GradientFill_1"/>
    <linearGradient id="GradientFill_7" data-name="GradientFill 7" x1="471.45" y1="101.47" x2="460.78" y2="104.13" gradientTransform="matrix(1, 0, 0, 1, 0, 0)" gradientUnits="userSpaceOnUse">
      <stop offset="0" stop-color="#ae6a2b"/>
      <stop offset="1" stop-color="#844808"/>
    </linearGradient>
    <linearGradient id="GradientFill_8" data-name="GradientFill 8" x1="441.21" y1="118.39" x2="414.21" y2="92.32" gradientTransform="matrix(1, 0, 0, 1, 0, 0)" gradientUnits="userSpaceOnUse">
      <stop offset="0" stop-color="#fbdc70"/>
      <stop offset="1" stop-color="#f7c96c"/>
    </linearGradient>
    <linearGradient id="GradientFill_8-2" data-name="GradientFill 8" x1="454.41" y1="105.5" x2="440.42" y2="91.99" xlink:href="#GradientFill_8"/>
    <linearGradient id="GradientFill_7-2" data-name="GradientFill 7" x1="425.18" y1="126.48" x2="425.18" y2="86.66" xlink:href="#GradientFill_7"/>
    <linearGradient id="GradientFill_7-3" data-name="GradientFill 7" x1="378.15" y1="101.26" x2="388.74" y2="104.1" xlink:href="#GradientFill_7"/>
    <linearGradient id="GradientFill_1-3" data-name="GradientFill 1" x1="699.68" y1="425.1" x2="762.72" y2="425.1" xlink:href="#GradientFill_1"/>
    <linearGradient id="GradientFill_7-4" data-name="GradientFill 7" x1="749.09" y1="472.46" x2="746.43" y2="461.79" xlink:href="#GradientFill_7"/>
    <linearGradient id="GradientFill_8-3" data-name="GradientFill 8" x1="735.57" y1="437.28" x2="761.65" y2="410.28" xlink:href="#GradientFill_8"/>
    <linearGradient id="GradientFill_8-4" data-name="GradientFill 8" x1="746.82" y1="452.19" x2="760.33" y2="438.2" xlink:href="#GradientFill_8"/>
    <linearGradient id="GradientFill_7-5" data-name="GradientFill 7" x1="736.75" y1="425.07" x2="776.56" y2="425.07" xlink:href="#GradientFill_7"/>
    <linearGradient id="GradientFill_7-6" data-name="GradientFill 7" x1="749.1" y1="377.74" x2="746.26" y2="388.33" xlink:href="#GradientFill_7"/>
    <linearGradient id="GradientFill_1-4" data-name="GradientFill 1" x1="425.18" y1="704.53" x2="425.18" y2="767.57" xlink:href="#GradientFill_1"/>
    <linearGradient id="GradientFill_7-7" data-name="GradientFill 7" x1="378.13" y1="748.91" x2="388.79" y2="746.25" xlink:href="#GradientFill_7"/>
    <linearGradient id="GradientFill_8-5" data-name="GradientFill 8" x1="409.95" y1="732.51" x2="436.95" y2="758.59" xlink:href="#GradientFill_8"/>
    <linearGradient id="GradientFill_8-6" data-name="GradientFill 8" x1="396.5" y1="745.17" x2="410.49" y2="758.68" xlink:href="#GradientFill_8"/>
    <linearGradient id="GradientFill_7-8" data-name="GradientFill 7" x1="425.21" y1="725.04" x2="425.21" y2="764.86" xlink:href="#GradientFill_7"/>
    <linearGradient id="GradientFill_7-9" data-name="GradientFill 7" x1="471.43" y1="748.69" x2="460.84" y2="745.85" xlink:href="#GradientFill_7"/>
    <linearGradient id="GradientFill_1-5" data-name="GradientFill 1" x1="140.75" y1="425.07" x2="77.71" y2="425.07" xlink:href="#GradientFill_1"/>
    <linearGradient id="GradientFill_7-10" data-name="GradientFill 7" x1="101.66" y1="379.14" x2="104.32" y2="389.8" xlink:href="#GradientFill_7"/>
    <linearGradient id="GradientFill_8-7" data-name="GradientFill 8" x1="121.45" y1="406.02" x2="95.38" y2="433.02" xlink:href="#GradientFill_8"/>
    <linearGradient id="GradientFill_8-8" data-name="GradientFill 8" x1="107.15" y1="394.28" x2="93.64" y2="408.27" xlink:href="#GradientFill_8"/>
    <linearGradient id="GradientFill_7-11" data-name="GradientFill 7" x1="138.19" y1="425.1" x2="98.38" y2="425.1" xlink:href="#GradientFill_7"/>
    <linearGradient id="GradientFill_7-12" data-name="GradientFill 7" x1="101.67" y1="471.02" x2="104.51" y2="460.42" xlink:href="#GradientFill_7"/>
    <linearGradient id="GradientFill_7-13" data-name="GradientFill 7" x1="220.26" y1="168.44" x2="229.85" y2="167.61" xlink:href="#GradientFill_7"/>
    <linearGradient id="GradientFill_7-14" data-name="GradientFill 7" x1="304.17" y1="120.99" x2="299.12" y2="128.2" xlink:href="#GradientFill_7"/>
    <linearGradient id="GradientFill_1-6" data-name="GradientFill 1" x1="274.08" y1="163.35" x2="251.01" y2="123.39" xlink:href="#GradientFill_1"/>
    <linearGradient id="GradientFill_6" data-name="GradientFill 6" x1="277.88" y1="213.87" x2="257.13" y2="107.1" gradientTransform="matrix(1, 0, 0, 1, 0, 0)" gradientUnits="userSpaceOnUse">
      <stop offset="0" stop-color="#fbdc70"/>
      <stop offset="1" stop-color="#f0b45e"/>
    </linearGradient>
    <linearGradient id="GradientFill_7-15" data-name="GradientFill 7" x1="270.4" y1="156.97" x2="260.36" y2="139.59" xlink:href="#GradientFill_7"/>
    <linearGradient id="GradientFill_7-16" data-name="GradientFill 7" x1="221.27" y1="71.87" x2="358.15" y2="308.96" xlink:href="#GradientFill_7"/>
    <linearGradient id="GradientFill_7-17" data-name="GradientFill 7" x1="168.45" y1="628.82" x2="167.61" y2="619.23" xlink:href="#GradientFill_7"/>
    <linearGradient id="GradientFill_7-18" data-name="GradientFill 7" x1="120.99" y1="546.04" x2="128.2" y2="551.08" xlink:href="#GradientFill_7"/>
    <linearGradient id="GradientFill_1-7" data-name="GradientFill 1" x1="181.41" y1="565.84" x2="141.45" y2="588.91" xlink:href="#GradientFill_1"/>
    <linearGradient id="GradientFill_6-2" data-name="GradientFill 6" x1="187.11" y1="577.63" x2="80.35" y2="598.38" xlink:href="#GradientFill_6"/>
    <linearGradient id="GradientFill_7-19" data-name="GradientFill 7" x1="158.68" y1="578.96" x2="141.3" y2="588.99" xlink:href="#GradientFill_7"/>
    <linearGradient id="GradientFill_7-20" data-name="GradientFill 7" x1="60.36" y1="635.72" x2="297.46" y2="498.83" xlink:href="#GradientFill_7"/>
    <linearGradient id="GradientFill_7-21" data-name="GradientFill 7" x1="627.35" y1="681.97" x2="617.76" y2="682.81" xlink:href="#GradientFill_7"/>
    <linearGradient id="GradientFill_7-22" data-name="GradientFill 7" x1="545.82" y1="729.65" x2="551" y2="722.52" xlink:href="#GradientFill_7"/>
    <linearGradient id="GradientFill_1-8" data-name="GradientFill 1" x1="562.29" y1="662.55" x2="585.37" y2="702.51" xlink:href="#GradientFill_1"/>
    <linearGradient id="GradientFill_6-3" data-name="GradientFill 6" x1="573.9" y1="647.84" x2="596.22" y2="752.87" xlink:href="#GradientFill_6"/>
    <linearGradient id="GradientFill_7-23" data-name="GradientFill 7" x1="580.26" y1="693.67" x2="590.3" y2="711.05" xlink:href="#GradientFill_7"/>
    <linearGradient id="GradientFill_7-24" data-name="GradientFill 7" x1="674.17" y1="856.32" x2="537.31" y2="619.27" xlink:href="#GradientFill_7"/>
    <linearGradient id="GradientFill_7-25" data-name="GradientFill 7" x1="681.98" y1="221.72" x2="682.82" y2="231.31" xlink:href="#GradientFill_7"/>
    <linearGradient id="GradientFill_7-26" data-name="GradientFill 7" x1="729.65" y1="304.39" x2="722.52" y2="299.21" xlink:href="#GradientFill_7"/>
    <linearGradient id="GradientFill_1-9" data-name="GradientFill 1" x1="680.61" y1="277.63" x2="720.57" y2="254.55" xlink:href="#GradientFill_1"/>
    <linearGradient id="GradientFill_6-4" data-name="GradientFill 6" x1="620.3" y1="280.9" x2="727.08" y2="260.15" xlink:href="#GradientFill_6"/>
    <linearGradient id="GradientFill_7-27" data-name="GradientFill 7" x1="695.38" y1="269.1" x2="712.76" y2="259.06" xlink:href="#GradientFill_7"/>
    <linearGradient id="GradientFill_7-28" data-name="GradientFill 7" x1="844.85" y1="182.8" x2="607.75" y2="319.69" xlink:href="#GradientFill_7"/>
    <linearGradient id="GradientFill_7-29" data-name="GradientFill 7" x1="121.02" y1="304.16" x2="128.23" y2="299.11" xlink:href="#GradientFill_7"/>
    <linearGradient id="GradientFill_7-30" data-name="GradientFill 7" x1="168.41" y1="221.41" x2="167.57" y2="230.95" xlink:href="#GradientFill_7"/>
    <linearGradient id="GradientFill_1-10" data-name="GradientFill 1" x1="171.85" y1="278.82" x2="131.91" y2="255.76" xlink:href="#GradientFill_1"/>
    <linearGradient id="GradientFill_6-5" data-name="GradientFill 6" x1="187.23" y1="310.33" x2="110.28" y2="221.81" xlink:href="#GradientFill_6"/>
    <linearGradient id="GradientFill_7-31" data-name="GradientFill 7" x1="157.68" y1="270.63" x2="140.29" y2="260.6" xlink:href="#GradientFill_7"/>
    <linearGradient id="GradientFill_7-32" data-name="GradientFill 7" x1="63.96" y1="216.53" x2="301.03" y2="353.4" xlink:href="#GradientFill_7"/>
    <linearGradient id="GradientFill_7-33" data-name="GradientFill 7" x1="304.21" y1="729.18" x2="299.16" y2="721.96" xlink:href="#GradientFill_7"/>
    <linearGradient id="GradientFill_7-34" data-name="GradientFill 7" x1="220.29" y1="681.77" x2="229.84" y2="682.6" xlink:href="#GradientFill_7"/>
    <linearGradient id="GradientFill_1-11" data-name="GradientFill 1" x1="283.62" y1="670.3" x2="260.56" y2="710.24" xlink:href="#GradientFill_1"/>
    <linearGradient id="GradientFill_6-6" data-name="GradientFill 6" x1="297.49" y1="674.31" x2="208.96" y2="751.27" xlink:href="#GradientFill_6"/>
    <linearGradient id="GradientFill_7-35" data-name="GradientFill 7" x1="271.41" y1="691.46" x2="261.37" y2="708.84" xlink:href="#GradientFill_7"/>
    <linearGradient id="GradientFill_7-36" data-name="GradientFill 7" x1="217.68" y1="784.51" x2="354.56" y2="547.44" xlink:href="#GradientFill_7"/>
    <linearGradient id="GradientFill_7-37" data-name="GradientFill 7" x1="729.67" y1="545.81" x2="722.45" y2="550.86" xlink:href="#GradientFill_7"/>
    <linearGradient id="GradientFill_7-38" data-name="GradientFill 7" x1="681.94" y1="628.47" x2="682.95" y2="618.93" xlink:href="#GradientFill_7"/>
    <linearGradient id="GradientFill_1-12" data-name="GradientFill 1" x1="671.07" y1="567.04" x2="711.01" y2="590.1" xlink:href="#GradientFill_1"/>
    <linearGradient id="GradientFill_6-7" data-name="GradientFill 6" x1="654.9" y1="532.04" x2="732.39" y2="618.09" xlink:href="#GradientFill_6"/>
    <linearGradient id="GradientFill_7-39" data-name="GradientFill 7" x1="694.37" y1="580.49" x2="711.76" y2="590.53" xlink:href="#GradientFill_7"/>
    <linearGradient id="GradientFill_7-40" data-name="GradientFill 7" x1="848.43" y1="669.44" x2="611.33" y2="532.55" xlink:href="#GradientFill_7"/>
    <linearGradient id="GradientFill_7-41" data-name="GradientFill 7" x1="545.85" y1="120.52" x2="550.91" y2="127.74" xlink:href="#GradientFill_7"/>
    <linearGradient id="GradientFill_7-42" data-name="GradientFill 7" x1="627.36" y1="168.21" x2="617.81" y2="167.21" xlink:href="#GradientFill_7"/>
    <linearGradient id="GradientFill_1-13" data-name="GradientFill 1" x1="571.84" y1="171.09" x2="594.91" y2="131.14" xlink:href="#GradientFill_1"/>
    <linearGradient id="GradientFill_6-8" data-name="GradientFill 6" x1="517.84" y1="206.34" x2="606.37" y2="129.38" xlink:href="#GradientFill_6"/>
    <linearGradient id="GradientFill_7-43" data-name="GradientFill 7" x1="581.27" y1="154.77" x2="591.3" y2="137.38" xlink:href="#GradientFill_7"/>
    <linearGradient id="GradientFill_7-44" data-name="GradientFill 7" x1="670.59" y1=".05" x2="533.72" y2="237.12" xlink:href="#GradientFill_7"/>
  </defs>
  <g id="Ring_1-2" data-name="Ring 1">
    <path d="M425.2,102.57c178.12,0,322.51,144.39,322.51,322.51s-144.39,322.51-322.51,322.51S102.68,603.21,102.68,425.09,247.08,102.57,425.2,102.57h0Zm0,19.28c-167.47,0-303.23,135.76-303.23,303.23s135.76,303.23,303.23,303.23,303.23-135.76,303.23-303.23S592.67,121.86,425.2,121.86Z" style="fill: url(#GradientFill_1); fill-rule: evenodd;"/>
    <path d="M425.2,102.57c178.12,0,322.51,144.39,322.51,322.51s-144.39,322.51-322.51,322.51c-178.12,0-322.51-144.39-322.51-322.51,0-178.12,144.39-322.51,322.51-322.51h0Zm0,4.44c-175.67,0-318.07,142.41-318.07,318.07,0,175.67,142.4,318.07,318.07,318.07,175.67,0,318.07-142.4,318.07-318.07,0-175.67-142.41-318.07-318.07-318.07Z" style="fill: url(#GradientFill_4); fill-rule: evenodd;"/>
    <path d="M425.2,117.8c169.71,0,307.29,137.58,307.29,307.29s-137.58,307.29-307.29,307.29S117.91,594.8,117.91,425.09,255.49,117.8,425.2,117.8h0Zm0,4.06c-167.47,0-303.23,135.76-303.23,303.23s135.76,303.23,303.23,303.23,303.23-135.76,303.23-303.23S592.67,121.86,425.2,121.86Z" style="fill: url(#GradientFill_5); fill-rule: evenodd;"/>
    <g>
      <path d="M471.4,96.29c-2.86-.23-5.33,1.26-6.89,2.9l-32.58,34.2c-3.88,4.07-9.51,4.07-13.39,0l-32.58-34.2c-1.56-1.64-4.07-3.13-6.93-2.9,2.54-3.25,6.05-4.53,10.01-4.53h34.54c0,.52,.72,.95,1.61,.95s1.61-.42,1.61-.95h34.62c3.96,0,7.44,1.29,9.97,4.53Z" style="fill: url(#GradientFill_1-2); fill-rule: evenodd;"/>
      <path d="M379.1,96.25c5.38-1.85,7.82,.64,10.76,3.71l28.76,30.05c1.95,2.04,4.34,3.05,6.73,3.05s4.78-1.02,6.73-3.05l28.76-30.05c2.96-3.09,5.38-5.6,10.57-3.66-2.86-.23-5.33,1.26-6.89,2.9l-32.58,34.2c-3.88,4.07-9.51,4.07-13.39,0l-32.58-34.2c-1.56-1.64-4.03-3.13-6.89-2.9l.03-.04Z" style="fill: #fbdc70; fill-rule: evenodd;"/>
      <path d="M471.36,96.29c.76,.94,3.13,6.54,3.1,10.02h-.01c-4.93-.76-9.91-1.39-14.91-1.92l4.14-4.37,.79-.83c1.56-1.64,4.03-3.13,6.89-2.9Z" style="fill: url(#GradientFill_7); fill-rule: evenodd;"/>
      <path d="M386.71,100.03l26.96,28.3h0c2.16,2.27,6.07,4.12,10.21,4.63h0c-1.93-.31-3.8-1.29-5.39-2.95l-28.63-30.05c-2.95-3.1-5.39-5.6-10.84-3.66-.02,.24,6.99,3.4,7.68,3.73Z" style="fill: #ae6a2b; fill-rule: evenodd;"/>
      <path d="M408.17,91.76l28.59,31.78,2.21,2.46,8.04-8.44-22.35-24.91c-.63-.13-1.09-.48-1.09-.89h-15.41Z" style="fill: url(#GradientFill_8); fill-rule: evenodd;"/>
      <polygon points="437.31 91.76 451.94 108.02 453.08 109.29 457.25 104.92 445.43 91.76 437.31 91.76" style="fill: url(#GradientFill_8-2); fill-rule: evenodd;"/>
      <path d="M425.18,120.04c-1.51,0-3.03-.57-4.16-1.71l-10.43-10.43-.94-.94c-3.37-3.37-1.54-8.2,3.35-8.2h10.57v-7.01c0,.52,.72,.95,1.61,.95s1.61-.42,1.61-.95v7.01h10.55c4.89,0,6.72,4.83,3.35,8.2l-.94,.94-10.43,10.43c-1.13,1.13-2.65,1.7-4.16,1.71Z" style="fill: url(#GradientFill_7-2); fill-rule: evenodd;"/>
      <path d="M425.18,122.31c-1.51,0-3.03-.57-4.16-1.71l-10.43-10.43-.94-.94c-1.53-1.53-1.99-3.37-1.57-4.92,.23,.91,.75,1.82,1.57,2.65l.94,.94,10.43,10.43c1.13,1.13,2.65,1.7,4.16,1.71,1.51,0,3.03-.57,4.16-1.71l10.43-10.43,.94-.94c.83-.83,1.34-1.74,1.57-2.65,.42,1.55-.04,3.38-1.57,4.92l-.94,.94-10.43,10.43c-1.13,1.13-2.65,1.7-4.16,1.71Z" style="fill: #fbdc70; fill-rule: evenodd;"/>
      <path d="M438.78,104.93l-11.64,11.64c-.53,.53-1.24,.8-1.94,.79-.7,0-1.41-.25-1.94-.79l-11.64-11.64c-1.35-1.35-.8-3.47,1.24-3.47h24.69c2.04,0,2.59,2.12,1.24,3.47Z" style="fill: #c2005b; fill-rule: evenodd;"/>
      <path d="M438.78,104.93l-11.64,11.64c-.2,.2-.42,.36-.65,.48-.72,.38-1.29,0-1.29-.78v-8.27l12.45-4.74c1.32-.5,1.97,.83,1.13,1.67Z" style="fill: #b44f97; fill-rule: evenodd;"/>
      <path d="M411.61,104.93l11.64,11.64c.2,.2,.41,.36,.65,.48,.72,.38,1.29,0,1.29-.78v-8.27l-12.45-4.74c-1.32-.5-1.97,.83-1.13,1.67Z" style="fill: #94005b; fill-rule: evenodd;"/>
      <polygon points="425.2 108 412.75 103.26 425.2 106.2 437.65 103.26 425.2 108" style="fill: #7d0048; fill-rule: evenodd;"/>
      <polygon points="426.47 108.93 437.65 103.26 425.2 108 425.2 116.27 426.47 108.93" style="fill: #fff; fill-rule: evenodd;"/>
      <polygon points="412.85 101.46 425.19 101.46 425.18 104.61 412.85 101.46" style="fill: #e74468; fill-rule: evenodd;"/>
      <polygon points="437.51 101.46 425.17 101.46 425.18 104.61 437.51 101.46" style="fill: #a00052; fill-rule: evenodd;"/>
      <polygon points="426.9 116.78 428.21 110.05 432.96 110.75 426.9 116.78" style="fill: #c92e88; fill-rule: evenodd;"/>
      <polygon points="411.61 104.93 422.52 109.13 418.41 111.72 411.61 104.93" style="fill: #c92e88; fill-rule: evenodd;"/>
      <path d="M379.02,96.29c-.76,.94-3.13,6.54-3.1,10.02h.01c4.93-.76,9.9-1.39,14.91-1.92l-4.14-4.37-.79-.83c-1.56-1.64-4.03-3.13-6.89-2.9Z" style="fill: url(#GradientFill_7-3); fill-rule: evenodd;"/>
    </g>
    <g>
      <path d="M753.99,471.29c.23-2.86-1.26-5.33-2.9-6.89l-34.2-32.58c-4.07-3.88-4.07-9.51,0-13.39l34.2-32.58c1.64-1.56,3.13-4.07,2.9-6.93,3.25,2.54,4.53,6.05,4.53,10.02v34.54c-.52,0-.95,.72-.95,1.61s.42,1.61,.95,1.61v34.62c0,3.96-1.29,7.44-4.53,9.97Z" style="fill: url(#GradientFill_1-3); fill-rule: evenodd;"/>
      <path d="M754.04,378.99c1.85,5.38-.64,7.82-3.71,10.76l-30.05,28.76c-2.04,1.95-3.05,4.34-3.05,6.73s1.02,4.78,3.05,6.73l30.05,28.76c3.09,2.96,5.6,5.38,3.66,10.57,.23-2.86-1.26-5.33-2.9-6.89l-34.2-32.58c-4.07-3.88-4.07-9.51,0-13.39l34.2-32.58c1.64-1.56,3.13-4.03,2.9-6.89l.04,.03Z" style="fill: #fbdc70; fill-rule: evenodd;"/>
      <path d="M753.99,471.25c-.94,.76-6.54,3.13-10.02,3.1h0c.76-4.94,1.39-9.92,1.92-14.92l4.37,4.14,.83,.79c1.64,1.56,3.13,4.03,2.9,6.89Z" style="fill: url(#GradientFill_7-4); fill-rule: evenodd;"/>
      <path d="M750.26,386.6l-28.3,26.96h0c-2.27,2.16-4.12,6.08-4.63,10.22h0c.31-1.93,1.29-3.8,2.95-5.39l30.05-28.63c3.09-2.95,5.6-5.39,3.66-10.84-.24-.02-3.4,6.99-3.73,7.68Z" style="fill: #ae6a2b; fill-rule: evenodd;"/>
      <path d="M758.52,408.06l-31.78,28.59-2.46,2.21,8.44,8.04,24.91-22.35c.13-.63,.48-1.08,.89-1.08v-15.42Z" style="fill: url(#GradientFill_8-3); fill-rule: evenodd;"/>
      <polygon points="758.52 437.2 742.26 451.83 740.99 452.97 745.36 457.14 758.52 445.32 758.52 437.2" style="fill: url(#GradientFill_8-4); fill-rule: evenodd;"/>
      <path d="M730.24,425.07c0-1.51,.57-3.03,1.71-4.16l10.43-10.43,.94-.94c3.37-3.37,8.2-1.54,8.2,3.35v10.57h7.01c-.52,0-.95,.72-.95,1.61s.42,1.61,.95,1.61h-7.01v10.55c0,4.89-4.83,6.72-8.2,3.35l-.94-.94-10.43-10.43c-1.13-1.13-1.7-2.65-1.71-4.16Z" style="fill: url(#GradientFill_7-5); fill-rule: evenodd;"/>
      <path d="M727.98,425.07c0-1.51,.57-3.03,1.71-4.16l10.43-10.43,.94-.94c1.53-1.53,3.37-1.99,4.92-1.57-.91,.23-1.82,.75-2.65,1.57l-.94,.94-10.43,10.43c-1.13,1.13-1.7,2.65-1.71,4.16,0,1.51,.57,3.03,1.71,4.16l10.43,10.43,.94,.94c.83,.83,1.74,1.34,2.65,1.57-1.55,.42-3.38-.04-4.92-1.57l-.94-.94-10.43-10.43c-1.13-1.13-1.7-2.65-1.71-4.16Z" style="fill: #fbdc70; fill-rule: evenodd;"/>
      <path d="M745.35,438.67l-11.64-11.64c-.53-.53-.8-1.24-.79-1.94,0-.7,.25-1.41,.79-1.94l11.64-11.64c1.35-1.35,3.47-.8,3.47,1.24v24.69c0,2.04-2.12,2.59-3.47,1.24Z" style="fill: #c2005b; fill-rule: evenodd;"/>
      <path d="M745.35,438.67l-11.64-11.64c-.2-.2-.36-.42-.48-.65-.38-.72,0-1.29,.78-1.29h8.27l4.74,12.45c.5,1.32-.83,1.97-1.67,1.13Z" style="fill: #b44f97; fill-rule: evenodd;"/>
      <path d="M745.35,411.5l-11.64,11.64c-.2,.19-.36,.42-.48,.65-.38,.72,0,1.29,.78,1.29h8.27l4.74-12.45c.5-1.32-.83-1.97-1.67-1.13Z" style="fill: #94005b; fill-rule: evenodd;"/>
      <polygon points="742.28 425.09 747.02 412.64 744.09 425.09 747.02 437.54 742.28 425.09" style="fill: #7d0048; fill-rule: evenodd;"/>
      <polygon points="741.35 426.36 747.02 437.54 742.28 425.09 734.01 425.09 741.35 426.36" style="fill: #fff; fill-rule: evenodd;"/>
      <polygon points="748.83 412.74 748.83 425.08 745.67 425.07 748.83 412.74" style="fill: #e74468; fill-rule: evenodd;"/>
      <polygon points="748.83 437.4 748.83 425.06 745.67 425.07 748.83 437.4" style="fill: #a00052; fill-rule: evenodd;"/>
      <polygon points="733.5 426.79 740.23 428.1 739.53 432.85 733.5 426.79" style="fill: #c92e88; fill-rule: evenodd;"/>
      <polygon points="745.35 411.5 741.16 422.41 738.56 418.3 745.35 411.5" style="fill: #c92e88; fill-rule: evenodd;"/>
      <path d="M753.99,378.91c-.94-.76-6.54-3.13-10.02-3.1h0c.76,4.95,1.39,9.92,1.92,14.92l4.37-4.14,.83-.79c1.64-1.56,3.13-4.03,2.9-6.89Z" style="fill: url(#GradientFill_7-6); fill-rule: evenodd;"/>
    </g>
    <g>
      <path d="M379,753.88c2.86,.23,5.33-1.26,6.89-2.9l32.58-34.2c3.88-4.07,9.51-4.07,13.39,0l32.58,34.2c1.56,1.64,4.07,3.13,6.93,2.9-2.54,3.25-6.05,4.53-10.01,4.53h-34.54c0-.52-.72-.95-1.61-.95s-1.61,.42-1.61,.95h-34.62c-3.96,0-7.44-1.29-9.97-4.54Z" style="fill: url(#GradientFill_1-4); fill-rule: evenodd;"/>
      <path d="M471.29,753.92c-5.38,1.85-7.82-.64-10.76-3.71l-28.76-30.05c-1.95-2.04-4.34-3.05-6.73-3.05s-4.78,1.02-6.73,3.05l-28.76,30.05c-2.96,3.09-5.38,5.6-10.57,3.66,2.86,.23,5.33-1.26,6.89-2.9l32.58-34.2c3.88-4.07,9.51-4.07,13.39,0l32.58,34.2c1.56,1.64,4.03,3.13,6.89,2.9l-.03,.04Z" style="fill: #fbdc70; fill-rule: evenodd;"/>
      <path d="M379.03,753.88c-.76-.94-3.13-6.54-3.1-10.02h.01c4.93,.76,9.91,1.39,14.91,1.92l-4.14,4.37-.79,.83c-1.56,1.64-4.03,3.13-6.89,2.9Z" style="fill: url(#GradientFill_7-7); fill-rule: evenodd;"/>
      <path d="M463.69,750.15l-26.96-28.3h0c-2.16-2.27-6.07-4.12-10.21-4.63h0c1.93,.31,3.8,1.29,5.39,2.95l28.63,30.05c2.95,3.1,5.39,5.6,10.84,3.66,.02-.24-6.99-3.4-7.68-3.73Z" style="fill: #ae6a2b; fill-rule: evenodd;"/>
      <path d="M442.23,758.41l-28.59-31.78-2.21-2.46-8.04,8.44,22.35,24.91c.63,.13,1.09,.48,1.09,.89h15.41Z" style="fill: url(#GradientFill_8-5); fill-rule: evenodd;"/>
      <polygon points="413.08 758.41 398.46 742.15 397.31 740.88 393.15 745.25 404.96 758.41 413.08 758.41" style="fill: url(#GradientFill_8-6); fill-rule: evenodd;"/>
      <path d="M425.21,730.13c1.51,0,3.03,.57,4.16,1.71l10.43,10.43,.94,.94c3.37,3.37,1.54,8.2-3.35,8.2h-10.57v7.01c0-.52-.72-.95-1.61-.95s-1.61,.42-1.61,.95v-7.01h-10.55c-4.89,0-6.72-4.83-3.35-8.2l.94-.94,10.43-10.43c1.13-1.13,2.65-1.7,4.16-1.71Z" style="fill: url(#GradientFill_7-8); fill-rule: evenodd;"/>
      <path d="M425.21,727.87c1.51,0,3.03,.57,4.16,1.71l10.43,10.43,.94,.94c1.53,1.53,1.99,3.37,1.57,4.92-.23-.91-.75-1.82-1.57-2.65l-.94-.94-10.43-10.43c-1.13-1.13-2.65-1.7-4.16-1.71-1.51,0-3.03,.57-4.16,1.71l-10.43,10.43-.94,.94c-.83,.83-1.34,1.74-1.57,2.65-.42-1.55,.04-3.38,1.57-4.92l.94-.94,10.43-10.43c1.13-1.14,2.65-1.7,4.16-1.71Z" style="fill: #fbdc70; fill-rule: evenodd;"/>
      <path d="M411.61,745.24l11.64-11.64c.53-.53,1.24-.8,1.94-.79,.7,0,1.41,.25,1.94,.79l11.64,11.64c1.35,1.35,.8,3.47-1.24,3.47h-24.69c-2.04,0-2.59-2.12-1.24-3.47Z" style="fill: #c2005b; fill-rule: evenodd;"/>
      <path d="M411.61,745.24l11.64-11.64c.2-.2,.41-.36,.65-.48,.72-.38,1.29,0,1.29,.78v8.27l-12.45,4.74c-1.32,.5-1.97-.83-1.13-1.66Z" style="fill: #b44f97; fill-rule: evenodd;"/>
      <path d="M438.78,745.24l-11.64-11.64c-.2-.2-.42-.36-.65-.48-.72-.38-1.29,0-1.29,.78v8.27l12.45,4.74c1.32,.5,1.97-.83,1.13-1.66Z" style="fill: #94005b; fill-rule: evenodd;"/>
      <polygon points="425.2 742.17 437.65 746.91 425.2 743.98 412.75 746.91 425.2 742.17" style="fill: #7d0048; fill-rule: evenodd;"/>
      <polygon points="423.92 741.24 412.75 746.91 425.2 742.17 425.2 733.9 423.92 741.24" style="fill: #fff; fill-rule: evenodd;"/>
      <polygon points="437.54 748.72 425.2 748.72 425.21 745.56 437.54 748.72" style="fill: #e74468; fill-rule: evenodd;"/>
      <polygon points="412.88 748.72 425.22 748.72 425.21 745.56 412.88 748.72" style="fill: #a00052; fill-rule: evenodd;"/>
      <polygon points="423.49 733.39 422.18 740.12 417.43 739.42 423.49 733.39" style="fill: #c92e88; fill-rule: evenodd;"/>
      <polygon points="438.79 745.24 427.87 741.05 431.98 738.45 438.79 745.24" style="fill: #c92e88; fill-rule: evenodd;"/>
      <path d="M471.37,753.88c.76-.94,3.13-6.54,3.1-10.02h-.01c-4.93,.76-9.91,1.39-14.91,1.92l4.14,4.37,.79,.83c1.56,1.64,4.03,3.13,6.89,2.9Z" style="fill: url(#GradientFill_7-9); fill-rule: evenodd;"/>
    </g>
    <g>
      <path d="M96.4,378.89c-.23,2.86,1.27,5.33,2.9,6.89l34.19,32.58c4.07,3.88,4.07,9.51,0,13.39l-34.2,32.58c-1.64,1.56-3.13,4.07-2.9,6.93-3.25-2.54-4.53-6.05-4.53-10.02v-34.54c.52,0,.95-.72,.95-1.61s-.42-1.61-.95-1.61v-34.62c0-3.96,1.29-7.44,4.53-9.97Z" style="fill: url(#GradientFill_1-5); fill-rule: evenodd;"/>
      <path d="M96.36,471.18c-1.85-5.38,.64-7.82,3.71-10.76l30.05-28.76c2.04-1.95,3.05-4.34,3.05-6.73s-1.02-4.78-3.05-6.73l-30.05-28.76c-3.09-2.96-5.6-5.38-3.66-10.57-.23,2.86,1.26,5.33,2.9,6.89l34.19,32.58c4.07,3.88,4.07,9.51,0,13.39l-34.2,32.58c-1.64,1.56-3.13,4.03-2.9,6.89l-.04-.03Z" style="fill: #fbdc70; fill-rule: evenodd;"/>
      <path d="M96.4,378.92c.94-.76,6.54-3.13,10.02-3.1h0c-.76,4.94-1.39,9.92-1.92,14.92l-4.37-4.14-.83-.79c-1.64-1.56-3.13-4.03-2.9-6.89Z" style="fill: url(#GradientFill_7-10); fill-rule: evenodd;"/>
      <path d="M100.14,463.58l28.3-26.96h0c2.27-2.16,4.12-6.07,4.63-10.21h0c-.31,1.93-1.29,3.8-2.95,5.39l-30.05,28.63c-3.09,2.95-5.6,5.39-3.66,10.84,.24,.02,3.4-6.99,3.73-7.68Z" style="fill: #ae6a2b; fill-rule: evenodd;"/>
      <path d="M91.87,442.12l31.78-28.59,2.46-2.21-8.44-8.04-24.91,22.35c-.13,.63-.48,1.09-.89,1.09v15.42Z" style="fill: url(#GradientFill_8-7); fill-rule: evenodd;"/>
      <polygon points="91.87 412.97 108.13 398.35 109.4 397.2 105.03 393.04 91.87 404.85 91.87 412.97" style="fill: url(#GradientFill_8-8); fill-rule: evenodd;"/>
      <path d="M120.15,425.1c0,1.51-.57,3.03-1.71,4.16l-10.43,10.43-.94,.94c-3.37,3.37-8.2,1.54-8.2-3.35v-10.57h-7.01c.52,0,.95-.72,.95-1.61s-.42-1.61-.95-1.61h7.01v-10.55c0-4.89,4.83-6.72,8.2-3.35l.94,.94,10.43,10.43c1.13,1.13,1.7,2.65,1.71,4.16Z" style="fill: url(#GradientFill_7-11); fill-rule: evenodd;"/>
      <path d="M122.42,425.1c0,1.51-.57,3.03-1.71,4.16l-10.43,10.43-.94,.94c-1.53,1.53-3.37,1.99-4.92,1.57,.91-.23,1.82-.75,2.65-1.57l.94-.94,10.43-10.43c1.13-1.13,1.7-2.65,1.71-4.16,0-1.51-.57-3.03-1.71-4.16l-10.43-10.43-.94-.94c-.83-.83-1.74-1.34-2.65-1.57,1.55-.42,3.38,.04,4.92,1.57l.94,.94,10.43,10.43c1.13,1.13,1.7,2.65,1.71,4.16Z" style="fill: #fbdc70; fill-rule: evenodd;"/>
      <path d="M105.04,411.5l11.64,11.64c.53,.53,.8,1.24,.79,1.94,0,.7-.25,1.41-.79,1.94l-11.64,11.64c-1.35,1.35-3.47,.8-3.47-1.24v-24.69c0-2.04,2.12-2.59,3.47-1.24Z" style="fill: #c2005b; fill-rule: evenodd;"/>
      <path d="M105.04,411.5l11.64,11.64c.2,.2,.36,.42,.48,.65,.38,.72,0,1.29-.78,1.29h-8.27l-4.74-12.45c-.5-1.32,.83-1.97,1.67-1.13Z" style="fill: #b44f97; fill-rule: evenodd;"/>
      <path d="M105.04,438.67l11.64-11.64c.2-.19,.36-.42,.48-.65,.38-.72,0-1.29-.78-1.29h-8.27l-4.74,12.45c-.5,1.32,.83,1.97,1.67,1.13Z" style="fill: #94005b; fill-rule: evenodd;"/>
      <polygon points="108.11 425.09 103.37 437.54 106.31 425.09 103.37 412.64 108.11 425.09" style="fill: #7d0048; fill-rule: evenodd;"/>
      <polygon points="109.04 423.81 103.37 412.64 108.11 425.09 116.38 425.09 109.04 423.81" style="fill: #fff; fill-rule: evenodd;"/>
      <polygon points="101.57 437.43 101.57 425.09 104.72 425.1 101.57 437.43" style="fill: #e74468; fill-rule: evenodd;"/>
      <polygon points="101.57 412.77 101.57 425.11 104.72 425.1 101.57 412.77" style="fill: #a00052; fill-rule: evenodd;"/>
      <polygon points="116.89 423.38 110.16 422.07 110.86 417.32 116.89 423.38" style="fill: #c92e88; fill-rule: evenodd;"/>
      <polygon points="105.04 438.68 109.24 427.76 111.83 431.87 105.04 438.68" style="fill: #c92e88; fill-rule: evenodd;"/>
      <path d="M96.4,471.26c.94,.76,6.54,3.13,10.02,3.1h0c-.76-4.95-1.39-9.92-1.92-14.92l-4.37,4.14-.83,.79c-1.64,1.56-3.13,4.03-2.9,6.89Z" style="fill: url(#GradientFill_7-12); fill-rule: evenodd;"/>
    </g>
    <g>
      <path d="M229.8,160.85l-8.96,2.87c-2.39,1.55-2.47,5.79,.57,11.37,3.98-3.25,8.05-6.39,12.19-9.45l-3.81-4.79Z" style="fill: url(#GradientFill_7-13); fill-rule: evenodd;"/>
      <path d="M294.07,123.75l6.96-6.32c2.54-1.3,6.21,.69,9.52,6.11-4.81,1.82-9.52,3.84-14.24,5.9l-2.24-5.69Z" style="fill: url(#GradientFill_7-14); fill-rule: evenodd;"/>
      <path d="M220.84,163.73l10.8-6.24c1-.33,1.92-.53,2.79-.62,1.89-.72,2.63-1.61,2.78-2.6l22.27-12.85c.26,.45,1.13,.45,1.93-.02,.8-.46,1.24-1.21,.98-1.66l22.27-12.86c.93,.36,2.08,.17,3.64-1.11,.51-.71,1.15-1.41,1.93-2.11l10.8-6.24c-2.44,2.38-3.14,6.32-2.5,11.04l2.84,20.88c.79,5.81-2.01,8.85-6.88,11.67l-16.31,9.42-16.31,9.42c-4.87,2.81-8.91,3.71-13.54,.13l-16.67-12.9c-3.76-2.91-7.52-4.28-10.81-3.35Z" style="fill: url(#GradientFill_1-6); fill-rule: evenodd;"/>
      <path d="M301.03,117.43h0c-2.44,2.38-3.14,6.32-2.5,11.04l2.84,20.88c.79,5.81-2.01,8.85-6.88,11.67l-16.31,9.42-16.31,9.42c-4.87,2.81-8.91,3.71-13.54,.13l-16.67-12.9c-3.76-2.91-7.52-4.28-10.81-3.35,4.55-1.86,9.71,.15,13.41,3.06l13.39,10.55c4.59,3.61,8.54,2.76,13.3,.02l15.92-9.19,15.92-9.19c4.76-2.75,7.47-5.74,6.63-11.52l-2.44-16.87c-.67-4.66,.17-10.13,4.06-13.14Z" style="fill: #ae6a2b; fill-rule: evenodd;"/>
      <path d="M301.03,117.43h0c-2.44,2.38-3.14,6.32-2.5,11.04l2.84,20.88c.79,5.81-2.01,8.85-6.88,11.67l-6.19,3.58c3.8-2.87,8.64-6.11,10.66-10.45,.92-1.98,.8-4.33,.46-6.71l-2.44-16.87c-.67-4.66,.17-10.13,4.06-13.14Z" style="fill: #fbdc70; fill-rule: evenodd;"/>
      <path d="M278.53,130.42l2.53,35.31-4.21,2.43-1.32,.76-2.54-35.31,5.52-3.19h0Zm-26.6,15.36l7.55-4.36c.26,.46,1.13,.45,1.93-.02,.8-.46,1.24-1.21,.98-1.66l4.27-2.47,2.54,35.31-8.26,4.77c-2.33,1.34-4.46,2.23-6.57,2.37l-2.44-33.94Z" style="fill: url(#GradientFill_6); fill-rule: evenodd;"/>
      <path d="M257.92,148.57l4.27-2.47-2.7-4.68c.26,.45,1.13,.45,1.93-.02,.8-.46,1.24-1.21,.98-1.66l2.7,4.68,4.27-2.47c1.64-.95,3.76-.38,4.71,1.26l2.47,4.28c.95,1.64,.38,3.76-1.26,4.71l-11.45,6.61c-1.64,.95-3.76,.38-4.71-1.26l-2.47-4.28c-.95-1.64-.38-3.76,1.26-4.71Z" style="fill: url(#GradientFill_7-15); fill-rule: evenodd;"/>
      <path d="M276.55,147.5l.71,1.24c.95,1.64,.38,3.76-1.26,4.71l-11.45,6.61c-1.64,.95-3.76,.38-4.71-1.26l-.71-1.24c.95,1.64,3.07,2.21,4.71,1.26l11.45-6.61c1.64-.95,2.21-3.07,1.26-4.71Z" style="fill: #fbdc70; fill-rule: evenodd;"/>
      <path d="M260.62,146.88h11.95c.83,0,1.51,.68,1.51,1.51v4c0,.83-.68,1.51-1.51,1.51h-11.95c-.83,0-1.51-.68-1.51-1.51v-4c0-.83,.68-1.51,1.51-1.51Z" transform="translate(-39.48 153.45) rotate(-30)" style="fill: #31b0e6;"/>
      <path d="M273.53,150.44l-4.42,2.55-1.5,.87-4.42,2.55c-.28,.16-1.01-.36-.6-.94l1.41-1.99,3.3-1.9,3.3-1.9,2.43-.23c.71-.07,.79,.83,.51,.99Z" style="fill: #194d9c; fill-rule: evenodd;"/>
      <path d="M270.02,144.36l-4.42,2.55-1.5,.87-4.42,2.55c-.28,.16-.2,1.05,.51,.99l2.43-.23,3.3-1.9,3.3-1.9,1.41-1.99c.41-.59-.32-1.1-.6-.94Z" style="fill: #68c4d8; fill-rule: evenodd;"/>
      <rect x="262.79" y="149.01" width="7.62" height="2.75" transform="translate(-39.48 153.44) rotate(-30)" style="fill: #bbe0e1;"/>
      <polygon points="262.61 151.1 269.17 147.32 270.59 149.68 269.91 147.07 270.66 145.25 269.15 146.61 262.61 151.1" style="fill: #fff; fill-rule: evenodd;"/>
      <path d="M263.3,152.29l-.69-1.19-2.43,.23c-.67,.06-1.19,.86-.93,1.3l.87,1.5,.87,1.5c.25,.44,1.2,.39,1.59-.16l1.41-1.99-.69-1.19Z" style="fill: #0090a6; fill-rule: evenodd;"/>
      <polygon points="270.55 149.7 263.99 153.49 262.61 151.1 263.25 153.74 262.5 155.56 264.01 154.19 270.55 149.7" style="fill: #0c3f8a; fill-rule: evenodd;"/>
      <path d="M237.52,155.75c2.07,.02,3.85,.79,5.53,2.26l10.02,8.73c1.45,1.26,2.69,1.79,3.86,1.81,1.21,.02,2.5-.49,3.93-1.32l11.6-6.7,11.6-6.7c1.43-.83,2.52-1.68,3.11-2.74,.57-1.02,.73-2.37,.36-4.25l-2.55-13.04c-.43-2.19-.21-4.12,.81-5.92,.93,.36,2.88-2.94,4.45-4.21-3.15,4-2.59,6.26-2.14,8.56l2.74,13.97c.53,2.72,.23,4.8-.73,6.53-.94,1.69-2.44,2.92-4.35,4.02l-11.6,6.7-11.6,6.7c-1.91,1.1-3.73,1.79-5.66,1.76-1.97-.03-3.92-.81-6.02-2.63l-10.73-9.36c-1.77-1.54-3.45-3.16-8.49-2.42,1.89-.72,5.72-.75,5.87-1.74Z" style="fill: #fbdc70; fill-rule: evenodd;"/>
      <path d="M237.22,154.27c2.07,.02,3.85,.79,5.53,2.26l10.02,8.73c1.45,1.26,2.69,1.79,3.86,1.81,1.21,.02,2.5-.49,3.93-1.32l11.19-6.46,11.19-6.46c1.43-.83,2.52-1.68,3.11-2.74,.57-1.02,.73-2.37,.36-4.25l-2.55-13.04c-.43-2.19-.21-4.12,.81-5.92,.93,.36,2.08,.17,3.64-1.11-.31,.44-.57,.88-.78,1.32-.8,1.67-.78,3.03-.44,4.76l2.62,13.35c.53,2.72,.23,4.8-.73,6.53-.94,1.69-2.44,2.92-4.35,4.02l-11.19,6.46-11.19,6.46c-1.91,1.1-3.73,1.79-5.66,1.76-1.97-.03-3.92-.81-6.02-2.63l-10.26-8.94c-1.33-1.16-2.49-1.86-4.34-2-.49-.04-1-.03-1.53,.02,1.89-.72,2.63-1.61,2.78-2.6Z" style="fill: url(#GradientFill_7-16); fill-rule: evenodd;"/>
    </g>
    <g>
      <path d="M160.96,620.48l2.87,8.96c1.55,2.39,5.79,2.47,11.37-.57-3.25-3.98-6.39-8.05-9.45-12.19l-4.79,3.81Z" style="fill: url(#GradientFill_7-17); fill-rule: evenodd;"/>
      <path d="M123.86,556.22l-6.32-6.96c-1.3-2.54,.69-6.21,6.11-9.52,1.82,4.81,3.84,9.52,5.9,14.24l-5.69,2.25Z" style="fill: url(#GradientFill_7-18); fill-rule: evenodd;"/>
      <path d="M163.84,629.44l-6.24-10.8c-.33-1-.53-1.92-.62-2.79-.72-1.89-1.61-2.63-2.6-2.78l-12.86-22.27c.45-.26,.45-1.13-.02-1.93-.46-.8-1.21-1.24-1.66-.98l-12.85-22.27c.36-.93,.17-2.08-1.11-3.64-.71-.51-1.41-1.15-2.11-1.93l-6.24-10.8c2.38,2.44,6.32,3.14,11.04,2.5l20.88-2.84c5.81-.79,8.85,2.01,11.67,6.88l9.42,16.31,9.42,16.31c2.81,4.87,3.71,8.91,.13,13.54l-12.9,16.67c-2.91,3.76-4.28,7.52-3.35,10.81Z" style="fill: url(#GradientFill_1-7); fill-rule: evenodd;"/>
      <path d="M117.54,549.26h0c2.38,2.44,6.32,3.14,11.04,2.5l20.88-2.84c5.81-.79,8.85,2.01,11.67,6.88l9.42,16.31,9.42,16.31c2.81,4.87,3.71,8.91,.13,13.54l-12.9,16.67c-2.91,3.76-4.28,7.52-3.35,10.81-1.86-4.55,.14-9.71,3.06-13.41l10.55-13.39c3.61-4.59,2.76-8.54,.02-13.3l-9.19-15.92-9.19-15.92c-2.75-4.76-5.74-7.47-11.52-6.63l-16.87,2.44c-4.66,.67-10.13-.17-13.14-4.06Z" style="fill: #ae6a2b; fill-rule: evenodd;"/>
      <path d="M117.54,549.26h0c2.38,2.44,6.32,3.14,11.04,2.5l20.88-2.84c5.81-.79,8.85,2.01,11.67,6.88l3.58,6.19c-2.87-3.8-6.11-8.64-10.45-10.66-1.98-.92-4.33-.8-6.71-.46l-16.87,2.44c-4.66,.67-10.13-.17-13.14-4.06Z" style="fill: #fbdc70; fill-rule: evenodd;"/>
      <path d="M130.53,571.75l35.3-2.53,2.43,4.21,.76,1.32-35.31,2.54-3.19-5.52h0Zm15.36,26.6l-4.36-7.55c.46-.26,.45-1.13-.01-1.93-.46-.8-1.21-1.24-1.66-.98l-2.47-4.27,35.31-2.54,4.77,8.26c1.34,2.33,2.23,4.46,2.37,6.57l-33.94,2.44Z" style="fill: url(#GradientFill_6-2); fill-rule: evenodd;"/>
      <path d="M148.68,592.37l-2.47-4.27-4.68,2.7c.45-.26,.45-1.13-.02-1.93-.46-.8-1.21-1.24-1.66-.98l4.68-2.7-2.47-4.27c-.95-1.64-.38-3.76,1.26-4.71l4.28-2.47c1.64-.95,3.76-.38,4.71,1.26l6.61,11.45c.95,1.64,.38,3.76-1.26,4.71l-4.28,2.47c-1.64,.95-3.76,.38-4.71-1.26Z" style="fill: url(#GradientFill_7-19); fill-rule: evenodd;"/>
      <path d="M147.61,573.74l1.24-.71c1.64-.95,3.76-.38,4.71,1.26l6.61,11.45c.95,1.64,.38,3.76-1.26,4.71l-1.24,.71c1.64-.95,2.21-3.07,1.26-4.71l-6.61-11.45c-.95-1.64-3.07-2.21-4.71-1.26Z" style="fill: #fbdc70; fill-rule: evenodd;"/>
      <path d="M148.5,576.2h4c.83,0,1.51,.68,1.51,1.51v11.95c0,.83-.68,1.51-1.51,1.51h-4c-.83,0-1.51-.68-1.51-1.51v-11.95c0-.83,.68-1.51,1.51-1.51Z" transform="translate(-271.67 153.44) rotate(-30)" style="fill: #31b0e6;"/>
      <path d="M150.55,576.75l2.55,4.42,.87,1.5,2.55,4.42c.16,.28-.36,1.01-.94,.6l-1.99-1.41-1.9-3.3-1.9-3.3-.23-2.43c-.07-.71,.83-.79,.99-.51Z" style="fill: #194d9c; fill-rule: evenodd;"/>
      <path d="M144.47,580.26l2.55,4.42,.87,1.5,2.55,4.42c.16,.28,1.05,.2,.99-.51l-.23-2.43-1.9-3.3-1.9-3.3-1.99-1.41c-.58-.41-1.1,.32-.94,.6Z" style="fill: #68c4d8; fill-rule: evenodd;"/>
      <rect x="149.12" y="579.87" width="2.75" height="7.62" transform="translate(-271.67 153.44) rotate(-30)" style="fill: #bbe0e1;"/>
      <polygon points="151.21 587.67 147.43 581.11 149.79 579.69 147.18 580.37 145.36 579.63 146.73 581.13 151.21 587.67" style="fill: #fff; fill-rule: evenodd;"/>
      <path d="M152.4,586.98l-1.19,.69,.23,2.43c.06,.67,.86,1.19,1.3,.93l1.5-.87,1.5-.87c.44-.25,.39-1.2-.16-1.59l-1.99-1.41-1.19,.69Z" style="fill: #0090a6; fill-rule: evenodd;"/>
      <polygon points="149.81 579.74 153.6 586.29 151.21 587.67 153.85 587.04 155.67 587.78 154.3 586.28 149.81 579.74" style="fill: #0c3f8a; fill-rule: evenodd;"/>
      <path d="M155.86,612.77c.02-2.07,.79-3.85,2.26-5.53l8.73-10.02c1.26-1.45,1.79-2.69,1.81-3.86,.02-1.21-.49-2.5-1.32-3.93l-6.7-11.6-6.7-11.6c-.83-1.43-1.68-2.52-2.74-3.11-1.02-.57-2.37-.73-4.25-.36l-13.05,2.55c-2.19,.43-4.12,.21-5.92-.81,.36-.93-2.94-2.88-4.21-4.45,4,3.16,6.27,2.6,8.56,2.14l13.97-2.74c2.72-.53,4.8-.23,6.53,.73,1.69,.94,2.92,2.44,4.02,4.35l6.7,11.6,6.7,11.6c1.1,1.91,1.79,3.73,1.76,5.66-.03,1.97-.81,3.92-2.63,6.02l-9.35,10.73c-1.54,1.77-3.16,3.45-2.42,8.49-.72-1.89-.75-5.72-1.74-5.87Z" style="fill: #fbdc70; fill-rule: evenodd;"/>
      <path d="M154.38,613.07c.02-2.07,.79-3.85,2.26-5.53l8.73-10.02c1.26-1.45,1.79-2.69,1.81-3.86,.02-1.21-.49-2.5-1.32-3.93l-6.46-11.19-6.46-11.19c-.83-1.43-1.68-2.52-2.74-3.11-1.02-.57-2.37-.73-4.25-.36l-13.04,2.55c-2.19,.43-4.12,.21-5.92-.81,.36-.93,.17-2.08-1.11-3.64,.44,.31,.87,.57,1.32,.78,1.67,.8,3.03,.78,4.76,.44l13.35-2.62c2.72-.53,4.8-.23,6.53,.73,1.69,.94,2.92,2.44,4.02,4.35l6.46,11.19,6.46,11.19c1.1,1.91,1.79,3.73,1.76,5.66-.03,1.97-.81,3.92-2.63,6.02l-8.94,10.26c-1.16,1.33-1.86,2.49-2,4.34-.04,.49-.03,1,.02,1.53-.72-1.89-1.61-2.63-2.6-2.78Z" style="fill: url(#GradientFill_7-20); fill-rule: evenodd;"/>
    </g>
    <g>
      <path d="M620.59,689.32l8.96-2.87c2.39-1.55,2.47-5.79-.57-11.37-3.98,3.25-8.05,6.39-12.19,9.45l3.81,4.79Z" style="fill: url(#GradientFill_7-21); fill-rule: evenodd;"/>
      <path d="M556.33,726.42l-6.96,6.32c-2.54,1.3-6.21-.69-9.52-6.11,4.81-1.82,9.52-3.84,14.24-5.9l2.25,5.69Z" style="fill: url(#GradientFill_7-22); fill-rule: evenodd;"/>
      <path d="M629.55,686.45l-10.8,6.24c-1,.33-1.92,.53-2.79,.62-1.89,.72-2.63,1.61-2.78,2.6l-22.27,12.86c-.26-.45-1.13-.45-1.93,.02-.8,.46-1.24,1.21-.98,1.66l-22.27,12.85c-.93-.36-2.08-.17-3.64,1.11-.51,.71-1.15,1.41-1.93,2.11l-10.8,6.24c2.44-2.38,3.14-6.32,2.5-11.04l-2.84-20.88c-.79-5.81,2.01-8.85,6.88-11.67l16.31-9.42,16.31-9.42c4.87-2.81,8.91-3.71,13.54-.12l16.67,12.9c3.76,2.91,7.52,4.28,10.81,3.35Z" style="fill: url(#GradientFill_1-8); fill-rule: evenodd;"/>
      <path d="M549.37,732.74h0c2.44-2.38,3.14-6.32,2.5-11.04l-2.84-20.88c-.79-5.81,2.01-8.85,6.88-11.67l16.31-9.42,16.31-9.42c4.87-2.81,8.91-3.71,13.54-.12l16.67,12.9c3.76,2.91,7.52,4.28,10.81,3.35-4.55,1.86-9.71-.15-13.41-3.06l-13.39-10.55c-4.59-3.61-8.54-2.76-13.3-.02l-15.92,9.19-15.92,9.19c-4.76,2.75-7.47,5.74-6.63,11.52l2.44,16.87c.67,4.66-.17,10.13-4.06,13.14Z" style="fill: #ae6a2b; fill-rule: evenodd;"/>
      <path d="M549.37,732.74h0c2.44-2.38,3.14-6.32,2.5-11.04l-2.84-20.88c-.79-5.81,2.01-8.85,6.88-11.67l6.19-3.58c-3.8,2.87-8.64,6.11-10.66,10.45-.92,1.98-.8,4.33-.46,6.71l2.44,16.87c.67,4.66-.17,10.13-4.06,13.14Z" style="fill: #fbdc70; fill-rule: evenodd;"/>
      <path d="M571.87,719.75l-2.54-35.3,4.21-2.43,1.32-.76,2.54,35.31-5.52,3.19h0Zm26.6-15.36l-7.55,4.36c-.26-.45-1.13-.45-1.93,.02-.8,.46-1.24,1.21-.98,1.66l-4.27,2.47-2.53-35.31,8.26-4.77c2.33-1.34,4.46-2.23,6.57-2.37l2.44,33.94Z" style="fill: url(#GradientFill_6-3); fill-rule: evenodd;"/>
      <path d="M592.48,701.6l-4.27,2.47,2.7,4.68c-.26-.45-1.13-.45-1.93,.02-.8,.46-1.24,1.21-.98,1.66l-2.7-4.68-4.27,2.46c-1.64,.95-3.76,.38-4.71-1.26l-2.47-4.28c-.95-1.64-.38-3.76,1.26-4.71l11.45-6.61c1.64-.95,3.76-.38,4.71,1.26l2.47,4.28c.95,1.64,.38,3.76-1.26,4.71Z" style="fill: url(#GradientFill_7-23); fill-rule: evenodd;"/>
      <path d="M573.85,702.67l-.71-1.24c-.95-1.64-.38-3.76,1.26-4.71l11.45-6.61c1.64-.95,3.76-.38,4.71,1.26l.71,1.24c-.95-1.64-3.07-2.21-4.71-1.26l-11.45,6.61c-1.64,.95-2.21,3.07-1.26,4.71Z" style="fill: #fbdc70; fill-rule: evenodd;"/>
      <path d="M590.72,699.84l-10.35,5.98c-.72,.41-1.65,.17-2.06-.55l-2-3.47c-.42-.72-.17-1.65,.55-2.06l10.35-5.98c.72-.42,1.65-.17,2.06,.55l2,3.47c.42,.72,.17,1.65-.55,2.06Z" style="fill: #31b0e6; fill-rule: evenodd;"/>
      <path d="M576.86,699.73l4.42-2.55,1.5-.87,4.42-2.55c.28-.16,1.01,.36,.6,.94l-1.41,1.99-3.3,1.9-3.3,1.91-2.43,.22c-.71,.07-.79-.83-.51-.99Z" style="fill: #194d9c; fill-rule: evenodd;"/>
      <path d="M580.37,705.81l4.42-2.55,1.5-.87,4.42-2.55c.28-.16,.2-1.05-.51-.99l-2.43,.22-3.3,1.91-3.3,1.9-1.41,1.99c-.41,.58,.32,1.1,.6,.94Z" style="fill: #68c4d8; fill-rule: evenodd;"/>
      <rect x="579.98" y="698.41" width="7.62" height="2.75" transform="translate(-271.67 385.64) rotate(-30)" style="fill: #bbe0e1;"/>
      <polygon points="587.78 699.07 581.23 702.86 579.8 700.5 580.48 703.11 579.74 704.93 581.24 703.56 587.78 699.07" style="fill: #fff; fill-rule: evenodd;"/>
      <path d="M587.09,697.88l.69,1.19,2.43-.22c.67-.06,1.19-.86,.93-1.3l-.87-1.5-.87-1.5c-.25-.44-1.2-.4-1.59,.16l-1.41,1.99,.69,1.19Z" style="fill: #0090a6; fill-rule: evenodd;"/>
      <polygon points="579.85 700.47 586.4 696.69 587.78 699.07 587.15 696.44 587.89 694.62 586.39 695.98 579.85 700.47" style="fill: #0c3f8a; fill-rule: evenodd;"/>
      <path d="M612.88,694.42c-2.07-.02-3.85-.79-5.53-2.26l-10.02-8.74c-1.45-1.26-2.69-1.79-3.86-1.81-1.21-.02-2.5,.5-3.93,1.32l-11.6,6.7-11.6,6.7c-1.43,.83-2.52,1.68-3.11,2.74-.57,1.02-.73,2.37-.36,4.25l2.55,13.04c.43,2.2,.21,4.12-.81,5.92-.93-.36-2.88,2.94-4.45,4.21,3.16-4,2.6-6.26,2.14-8.56l-2.74-13.97c-.53-2.72-.23-4.8,.73-6.53,.94-1.69,2.44-2.92,4.35-4.02l11.6-6.7,11.6-6.7c1.91-1.1,3.73-1.79,5.66-1.76,1.97,.03,3.92,.81,6.02,2.63l10.73,9.36c1.77,1.54,3.45,3.16,8.49,2.42-1.89,.72-5.72,.75-5.87,1.74Z" style="fill: #fbdc70; fill-rule: evenodd;"/>
      <path d="M613.18,695.9c-2.07-.02-3.85-.79-5.53-2.26l-10.02-8.74c-1.45-1.26-2.69-1.79-3.86-1.81-1.21-.02-2.5,.5-3.93,1.32l-11.19,6.46-11.19,6.46c-1.43,.83-2.52,1.68-3.11,2.74-.57,1.03-.73,2.37-.36,4.25l2.55,13.05c.43,2.2,.21,4.12-.81,5.92-.93-.36-2.08-.17-3.64,1.11,.31-.44,.57-.88,.79-1.32,.8-1.67,.78-3.03,.44-4.76l-2.62-13.36c-.53-2.72-.23-4.8,.73-6.53,.94-1.69,2.44-2.92,4.35-4.02l11.19-6.46,11.19-6.46c1.91-1.1,3.73-1.79,5.66-1.76,1.97,.03,3.92,.81,6.02,2.63l10.26,8.94c1.33,1.16,2.49,1.86,4.34,2,.49,.04,1,.03,1.53-.02-1.89,.72-2.63,1.61-2.78,2.6Z" style="fill: url(#GradientFill_7-24); fill-rule: evenodd;"/>
    </g>
    <g>
      <path d="M689.43,229.69l-2.87-8.95c-1.55-2.39-5.79-2.47-11.37,.57,3.25,3.98,6.39,8.05,9.45,12.19l4.79-3.81Z" style="fill: url(#GradientFill_7-25); fill-rule: evenodd;"/>
      <path d="M726.53,293.95l6.32,6.96c1.3,2.54-.69,6.21-6.12,9.52-1.82-4.81-3.84-9.52-5.9-14.24l5.69-2.24Z" style="fill: url(#GradientFill_7-26); fill-rule: evenodd;"/>
      <path d="M686.56,220.73l6.24,10.8c.33,1,.53,1.92,.62,2.79,.72,1.89,1.61,2.63,2.6,2.78l12.85,22.27c-.45,.26-.45,1.13,.02,1.93,.46,.8,1.21,1.24,1.66,.98l12.86,22.27c-.36,.93-.17,2.08,1.11,3.64,.71,.51,1.41,1.15,2.11,1.93l6.24,10.8c-2.38-2.44-6.32-3.14-11.04-2.5l-20.88,2.84c-5.81,.79-8.85-2.01-11.67-6.88l-9.42-16.31-9.42-16.31c-2.81-4.87-3.71-8.91-.13-13.54l12.9-16.67c2.91-3.76,4.28-7.52,3.35-10.81Z" style="fill: url(#GradientFill_1-9); fill-rule: evenodd;"/>
      <path d="M732.85,300.92h0c-2.38-2.44-6.32-3.14-11.04-2.5l-20.88,2.84c-5.81,.79-8.85-2.01-11.67-6.88l-9.42-16.31-9.42-16.31c-2.81-4.87-3.71-8.91-.13-13.54l12.9-16.67c2.91-3.76,4.28-7.52,3.35-10.81,1.86,4.55-.15,9.71-3.06,13.41l-10.55,13.39c-3.61,4.59-2.76,8.54-.02,13.3l9.19,15.92,9.19,15.92c2.75,4.76,5.74,7.47,11.52,6.63l16.87-2.44c4.66-.67,10.13,.17,13.14,4.06Z" style="fill: #ae6a2b; fill-rule: evenodd;"/>
      <path d="M732.85,300.92h0c-2.38-2.44-6.32-3.14-11.04-2.5l-20.88,2.84c-5.81,.79-8.85-2.01-11.67-6.88l-3.58-6.19c2.87,3.8,6.11,8.64,10.45,10.66,1.98,.92,4.33,.8,6.71,.46l16.87-2.44c4.66-.67,10.13,.17,13.14,4.06Z" style="fill: #fbdc70; fill-rule: evenodd;"/>
      <path d="M719.86,278.42l-35.31,2.53-2.43-4.21-.76-1.32,35.3-2.53,3.19,5.52h0Zm-15.36-26.6l4.36,7.55c-.45,.26-.45,1.13,.02,1.93,.46,.8,1.21,1.24,1.66,.98l2.47,4.27-35.3,2.53-4.77-8.26c-1.34-2.33-2.23-4.46-2.37-6.57l33.94-2.44Z" style="fill: url(#GradientFill_6-4); fill-rule: evenodd;"/>
      <path d="M701.72,257.81l2.47,4.27,4.68-2.7c-.45,.26-.45,1.13,.02,1.93,.46,.8,1.21,1.24,1.66,.98l-4.68,2.7,2.46,4.27c.95,1.64,.38,3.76-1.26,4.71l-4.28,2.47c-1.64,.95-3.76,.38-4.71-1.26l-6.61-11.45c-.95-1.64-.38-3.76,1.26-4.71l4.28-2.47c1.64-.95,3.76-.38,4.71,1.26Z" style="fill: url(#GradientFill_7-27); fill-rule: evenodd;"/>
      <path d="M702.78,276.44l-1.24,.71c-1.64,.95-3.76,.38-4.71-1.26l-6.61-11.45c-.95-1.64-.38-3.76,1.26-4.71l1.24-.71c-1.64,.95-2.21,3.07-1.26,4.71l6.61,11.45c.95,1.64,3.07,2.21,4.71,1.26Z" style="fill: #fbdc70; fill-rule: evenodd;"/>
      <path d="M699.95,259.56l5.98,10.35c.41,.72,.17,1.65-.55,2.06l-3.47,2c-.72,.42-1.65,.17-2.06-.55l-5.98-10.35c-.41-.72-.17-1.65,.55-2.06l3.47-2c.72-.41,1.65-.17,2.06,.55Z" style="fill: #31b0e6; fill-rule: evenodd;"/>
      <path d="M699.84,273.42l-2.55-4.42-.87-1.5-2.55-4.42c-.16-.28,.36-1.01,.94-.6l1.99,1.41,1.91,3.3,1.91,3.3,.22,2.43c.07,.71-.83,.79-.99,.51Z" style="fill: #194d9c; fill-rule: evenodd;"/>
      <path d="M705.92,269.91l-2.55-4.42-.87-1.5-2.55-4.42c-.16-.28-1.05-.2-.99,.52l.22,2.43,1.91,3.3,1.9,3.3,1.99,1.41c.58,.41,1.1-.32,.94-.6Z" style="fill: #68c4d8; fill-rule: evenodd;"/>
      <rect x="698.52" y="262.68" width="2.75" height="7.62" transform="translate(-39.48 385.63) rotate(-30)" style="fill: #bbe0e1;"/>
      <polygon points="699.18 262.5 702.97 269.06 700.61 270.48 703.22 269.8 705.04 270.55 703.67 269.04 699.18 262.5" style="fill: #fff; fill-rule: evenodd;"/>
      <path d="M697.99,263.19l1.19-.69-.22-2.43c-.06-.67-.86-1.19-1.3-.94l-1.5,.87-1.5,.87c-.44,.25-.39,1.2,.16,1.6l1.99,1.41,1.19-.69Z" style="fill: #0090a6; fill-rule: evenodd;"/>
      <polygon points="700.58 270.44 696.8 263.88 699.18 262.5 696.55 263.13 694.73 262.39 696.1 263.9 700.58 270.44" style="fill: #0c3f8a; fill-rule: evenodd;"/>
      <path d="M694.54,237.41c-.02,2.07-.79,3.85-2.26,5.53l-8.73,10.02c-1.26,1.45-1.79,2.69-1.81,3.86-.02,1.21,.5,2.5,1.32,3.93l6.7,11.6,6.7,11.6c.83,1.43,1.68,2.52,2.74,3.11,1.03,.57,2.37,.73,4.25,.36l13.04-2.55c2.2-.43,4.12-.21,5.92,.81-.36,.93,2.94,2.88,4.21,4.44-4-3.15-6.26-2.59-8.56-2.14l-13.97,2.74c-2.72,.53-4.8,.23-6.53-.73-1.69-.94-2.92-2.44-4.02-4.35l-6.7-11.6-6.7-11.6c-1.1-1.91-1.79-3.73-1.76-5.66,.03-1.97,.81-3.92,2.63-6.02l9.36-10.73c1.54-1.77,3.16-3.45,2.42-8.49,.72,1.89,.75,5.72,1.74,5.87Z" style="fill: #fbdc70; fill-rule: evenodd;"/>
      <path d="M696.01,237.11c-.02,2.07-.79,3.85-2.26,5.53l-8.73,10.02c-1.26,1.45-1.79,2.69-1.81,3.86-.02,1.21,.5,2.5,1.32,3.93l6.46,11.19,6.46,11.19c.83,1.43,1.68,2.52,2.74,3.11,1.02,.57,2.37,.73,4.25,.36l13.04-2.55c2.19-.43,4.12-.21,5.92,.81-.36,.93-.17,2.08,1.11,3.64-.44-.31-.87-.57-1.32-.78-1.67-.8-3.03-.78-4.76-.44l-13.36,2.61c-2.72,.53-4.8,.23-6.53-.73-1.69-.94-2.92-2.44-4.02-4.35l-6.46-11.19-6.46-11.19c-1.1-1.91-1.79-3.73-1.76-5.66,.03-1.97,.81-3.92,2.63-6.02l8.94-10.26c1.16-1.33,1.86-2.49,2-4.34,.04-.49,.03-1-.02-1.53,.72,1.89,1.61,2.63,2.6,2.78Z" style="fill: url(#GradientFill_7-28); fill-rule: evenodd;"/>
    </g>
    <g>
      <path d="M123.86,293.95l-6.32,6.96c-1.3,2.54,.76,6.25,6.18,9.56,1.82-4.81,3.78-9.56,5.83-14.28l-5.69-2.24Z" style="fill: url(#GradientFill_7-29); fill-rule: evenodd;"/>
      <path d="M160.97,229.69l2.87-8.95c1.55-2.39,5.72-2.5,11.3,.53-3.25,3.98-6.32,8.09-9.38,12.23l-4.79-3.81Z" style="fill: url(#GradientFill_7-30); fill-rule: evenodd;"/>
      <path d="M117.54,300.92l6.24-10.8c.7-.78,1.4-1.42,2.11-1.93,1.28-1.56,1.47-2.71,1.11-3.64l12.85-22.27c.45,.26,1.2-.18,1.66-.98,.46-.8,.47-1.67,.02-1.93l12.86-22.27c.99-.16,1.88-.9,2.6-2.78,.08-.87,.29-1.79,.62-2.79l6.24-10.8c-.93,3.29,.44,7.05,3.35,10.81l12.9,16.67c3.59,4.64,2.69,8.67-.13,13.54l-9.42,16.31-9.42,16.31c-2.81,4.87-5.86,7.67-11.67,6.88l-20.88-2.84c-4.72-.64-8.65,.06-11.04,2.5Z" style="fill: url(#GradientFill_1-10); fill-rule: evenodd;"/>
      <path d="M163.84,220.74h0c-.93,3.29,.44,7.05,3.35,10.81l12.9,16.67c3.59,4.64,2.69,8.67-.13,13.54l-9.42,16.31-9.42,16.31c-2.81,4.87-5.86,7.67-11.67,6.88l-20.88-2.84c-4.72-.64-8.65,.06-11.04,2.5,3.01-3.89,8.48-4.73,13.14-4.06l16.87,2.44c5.78,.84,8.78-1.88,11.52-6.63l9.19-15.92,9.19-15.92c2.75-4.76,3.6-8.71-.02-13.3l-10.55-13.39c-2.91-3.7-4.92-8.86-3.06-13.41Z" style="fill: #ae6a2b; fill-rule: evenodd;"/>
      <path d="M163.84,220.74h0c-.93,3.29,.44,7.05,3.35,10.81l12.9,16.67c3.59,4.64,2.69,8.67-.13,13.54l-3.58,6.19c1.85-4.39,4.43-9.61,4.01-14.38-.19-2.18-1.47-4.15-2.96-6.04l-10.55-13.39c-2.91-3.7-4.92-8.86-3.06-13.41Z" style="fill: #fbdc70; fill-rule: evenodd;"/>
      <path d="M150.85,243.23l19.85,29.31-2.43,4.21-.76,1.32-19.85-29.31,3.19-5.52h0Zm-15.36,26.6l19.08,28.17c1.76-1.17,3.16-3.01,4.51-5.34l4.77-8.26-19.85-29.31-2.47,4.27c.46,.26,.45,1.13-.02,1.93-.46,.8-1.21,1.24-1.66,.98l-4.36,7.55Z" style="fill: url(#GradientFill_6-5); fill-rule: evenodd;"/>
      <path d="M142.07,269.25l2.47-4.27-4.68-2.7c.45,.26,1.2-.18,1.66-.98,.46-.8,.47-1.67,.02-1.93l4.68,2.7,2.47-4.27c.95-1.64,3.07-2.21,4.71-1.26l4.28,2.47c1.64,.95,2.21,3.07,1.26,4.71l-6.61,11.45c-.95,1.64-3.07,2.21-4.71,1.26l-4.28-2.47c-1.64-.95-2.21-3.07-1.26-4.71Z" style="fill: url(#GradientFill_7-31); fill-rule: evenodd;"/>
      <path d="M157.67,259.02l1.24,.71c1.64,.95,2.21,3.07,1.26,4.71l-6.61,11.45c-.95,1.64-3.07,2.21-4.71,1.26l-1.24-.71c1.64,.95,3.76,.38,4.71-1.26l6.61-11.45c.95-1.64,.38-3.76-1.26-4.71Z" style="fill: #fbdc70; fill-rule: evenodd;"/>
      <rect x="143.02" y="262.98" width="14.97" height="7.02" rx="1.51" ry="1.51" transform="translate(-155.54 263.59) rotate(-60)" style="fill: #31b0e6;"/>
      <path d="M156.53,263.07l-2.55,4.42-.87,1.5-2.55,4.42c-.16,.28-1.05,.2-.99-.51l.22-2.43,1.9-3.3,1.91-3.3,1.99-1.41c.59-.41,1.1,.32,.94,.6Z" style="fill: #194d9c; fill-rule: evenodd;"/>
      <path d="M150.45,259.56l-2.55,4.42-.87,1.5-2.55,4.42c-.16,.28,.35,1.01,.94,.6l1.99-1.41,1.9-3.3,1.9-3.3,.23-2.43c.06-.71-.83-.79-.99-.51Z" style="fill: #68c4d8; fill-rule: evenodd;"/>
      <rect x="146.69" y="265.11" width="7.62" height="2.75" transform="translate(-155.54 263.6) rotate(-60)" style="fill: #bbe0e1;"/>
      <polygon points="147.4 269.1 151.19 262.54 153.6 263.88 151.71 261.96 151.44 260.01 150.82 261.95 147.4 269.1" style="fill: #fff; fill-rule: evenodd;"/>
      <path d="M148.59,269.79l-1.19-.69-1.99,1.41c-.55,.39-.6,1.34-.16,1.59l1.5,.87,1.5,.87c.44,.25,1.24-.26,1.3-.93l.23-2.43-1.19-.69Z" style="fill: #0090a6; fill-rule: evenodd;"/>
      <polygon points="153.57 263.92 149.79 270.48 147.4 269.1 149.27 271.07 149.54 273.01 150.15 271.08 153.57 263.92" style="fill: #0c3f8a; fill-rule: evenodd;"/>
      <path d="M127.99,285.67c1.8-1.02,3.73-1.24,5.92-.81l13.04,2.55c1.88,.37,3.23,.21,4.25-.36,1.06-.59,1.91-1.68,2.74-3.11l6.7-11.6,6.7-11.6c.83-1.43,1.34-2.71,1.32-3.93-.02-1.17-.55-2.42-1.81-3.86l-8.73-10.02c-1.47-1.69-2.24-3.46-2.26-5.53,.99-.16,1.03-3.99,1.74-5.87-.73,5.04,.88,6.72,2.43,8.49l9.35,10.73c1.82,2.09,2.6,4.04,2.63,6.02,.03,1.93-.66,3.74-1.76,5.66l-6.7,11.6-6.7,11.6c-1.1,1.91-2.33,3.41-4.02,4.35-1.73,.96-3.8,1.26-6.53,.73l-13.97-2.74c-2.3-.45-4.57-1.01-8.56,2.14,1.28-1.56,4.57-3.51,4.21-4.44Z" style="fill: #fbdc70; fill-rule: evenodd;"/>
      <path d="M126.99,284.55c1.8-1.02,3.73-1.24,5.92-.81l13.04,2.55c1.88,.37,3.23,.21,4.25-.36,1.06-.59,1.91-1.68,2.74-3.11l6.46-11.19,6.46-11.19c.83-1.43,1.34-2.71,1.32-3.93-.02-1.17-.55-2.42-1.81-3.86l-8.73-10.02c-1.47-1.69-2.24-3.46-2.26-5.53,.99-.16,1.88-.9,2.6-2.78-.05,.53-.06,1.04-.02,1.53,.14,1.85,.84,3.02,2,4.34l8.94,10.26c1.82,2.09,2.6,4.04,2.63,6.02,.03,1.93-.65,3.74-1.76,5.66l-6.46,11.19-6.46,11.19c-1.1,1.91-2.33,3.41-4.02,4.35-1.72,.96-3.8,1.26-6.53,.73l-13.35-2.61c-1.73-.34-3.09-.36-4.76,.44-.44,.21-.88,.47-1.32,.78,1.28-1.56,1.47-2.71,1.11-3.64Z" style="fill: url(#GradientFill_7-32); fill-rule: evenodd;"/>
    </g>
    <g>
      <path d="M294.06,726.42l6.96,6.32c2.54,1.3,6.25-.76,9.56-6.18-4.81-1.82-9.56-3.78-14.28-5.83l-2.24,5.69Z" style="fill: url(#GradientFill_7-33); fill-rule: evenodd;"/>
      <path d="M229.8,689.32l-8.96-2.87c-2.39-1.55-2.5-5.72,.54-11.3,3.98,3.25,8.09,6.32,12.23,9.38l-3.81,4.79Z" style="fill: url(#GradientFill_7-34); fill-rule: evenodd;"/>
      <path d="M301.03,732.74l-10.8-6.24c-.78-.7-1.42-1.4-1.93-2.11-1.56-1.28-2.71-1.47-3.64-1.11l-22.27-12.86c.26-.45-.18-1.2-.98-1.66-.8-.46-1.67-.47-1.93-.02l-22.27-12.86c-.16-.99-.9-1.88-2.78-2.6-.87-.08-1.79-.29-2.79-.62l-10.8-6.24c3.29,.92,7.05-.44,10.81-3.35l16.67-12.9c4.64-3.59,8.67-2.69,13.54,.12l16.31,9.42,16.31,9.42c4.87,2.81,7.67,5.86,6.88,11.67l-2.84,20.88c-.64,4.72,.06,8.65,2.5,11.04Z" style="fill: url(#GradientFill_1-11); fill-rule: evenodd;"/>
      <path d="M220.85,686.45h0c3.29,.92,7.05-.44,10.81-3.35l16.67-12.9c4.64-3.59,8.67-2.69,13.54,.12l16.31,9.42,16.31,9.42c4.87,2.81,7.67,5.86,6.88,11.67l-2.84,20.88c-.64,4.72,.06,8.65,2.5,11.04-3.89-3.01-4.73-8.49-4.06-13.14l2.44-16.87c.84-5.78-1.88-8.78-6.63-11.52l-15.92-9.19-15.92-9.19c-4.76-2.75-8.71-3.6-13.3,.02l-13.39,10.55c-3.7,2.91-8.86,4.92-13.41,3.06Z" style="fill: #ae6a2b; fill-rule: evenodd;"/>
      <path d="M220.85,686.45h0c3.29,.92,7.05-.44,10.81-3.35l16.67-12.9c4.64-3.59,8.67-2.69,13.54,.12l6.19,3.58c-4.39-1.85-9.61-4.43-14.38-4.01-2.18,.19-4.15,1.47-6.04,2.96l-13.39,10.55c-3.7,2.91-8.86,4.92-13.41,3.06Z" style="fill: #fbdc70; fill-rule: evenodd;"/>
      <path d="M243.34,699.44l29.31-19.85,4.21,2.43,1.32,.76-29.31,19.85-5.52-3.19h0Zm26.6,15.36l28.17-19.08c-1.17-1.76-3.01-3.17-5.34-4.51l-8.26-4.77-29.31,19.85,4.27,2.47c.26-.46,1.13-.45,1.93,.02,.8,.46,1.24,1.21,.98,1.66l7.55,4.36Z" style="fill: url(#GradientFill_6-6); fill-rule: evenodd;"/>
      <path d="M269.37,708.21l-4.27-2.47-2.7,4.68c.26-.45-.18-1.2-.98-1.66-.8-.46-1.67-.47-1.93-.02l2.7-4.68-4.27-2.47c-1.64-.95-2.21-3.07-1.26-4.71l2.47-4.28c.95-1.64,3.07-2.21,4.71-1.26l11.45,6.61c1.64,.95,2.21,3.07,1.26,4.71l-2.47,4.28c-.95,1.64-3.07,2.21-4.71,1.26Z" style="fill: url(#GradientFill_7-35); fill-rule: evenodd;"/>
      <path d="M259.13,692.61l.71-1.24c.95-1.64,3.07-2.21,4.71-1.26l11.45,6.61c1.64,.95,2.21,3.07,1.26,4.71l-.71,1.24c.95-1.64,.38-3.76-1.26-4.71l-11.45-6.61c-1.64-.95-3.76-.38-4.71,1.26Z" style="fill: #fbdc70; fill-rule: evenodd;"/>
      <path d="M264.6,692.3h4c.83,0,1.51,.68,1.51,1.51v11.95c0,.83-.68,1.51-1.51,1.51h-4c-.83,0-1.51-.68-1.51-1.51v-11.95c0-.83,.68-1.51,1.51-1.51Z" transform="translate(-472.73 580.78) rotate(-60)" style="fill: #31b0e6;"/>
      <path d="M263.18,693.76l4.42,2.55,1.5,.87,4.42,2.55c.28,.16,.2,1.05-.52,.99l-2.43-.22-3.3-1.91-3.3-1.9-1.41-1.99c-.41-.59,.32-1.1,.6-.94Z" style="fill: #194d9c; fill-rule: evenodd;"/>
      <path d="M259.67,699.83l4.42,2.55,1.5,.87,4.42,2.55c.28,.16,1.01-.36,.6-.94l-1.41-1.99-3.3-1.91-3.3-1.9-2.43-.23c-.71-.06-.79,.83-.52,.99Z" style="fill: #68c4d8; fill-rule: evenodd;"/>
      <rect x="265.22" y="695.97" width="2.75" height="7.62" transform="translate(-472.73 580.8) rotate(-60)" style="fill: #bbe0e1;"/>
      <polygon points="269.21 702.88 262.66 699.1 263.99 696.69 262.07 698.57 260.12 698.84 262.06 699.46 269.21 702.88" style="fill: #fff; fill-rule: evenodd;"/>
      <path d="M269.9,701.69l-.69,1.19,1.41,1.99c.39,.55,1.34,.6,1.59,.16l.87-1.5,.87-1.5c.25-.44-.26-1.24-.93-1.3l-2.43-.22-.69,1.19Z" style="fill: #0090a6; fill-rule: evenodd;"/>
      <polygon points="264.03 696.71 270.59 700.5 269.21 702.88 271.18 701.02 273.12 700.75 271.19 700.13 264.03 696.71" style="fill: #0c3f8a; fill-rule: evenodd;"/>
      <path d="M285.78,722.29c-1.02-1.8-1.24-3.72-.81-5.92l2.55-13.04c.37-1.88,.21-3.23-.36-4.25-.59-1.06-1.68-1.92-3.11-2.74l-11.6-6.7-11.6-6.7c-1.43-.83-2.71-1.34-3.93-1.32-1.17,.02-2.42,.55-3.86,1.81l-10.02,8.73c-1.69,1.47-3.46,2.24-5.53,2.26-.16-.99-3.99-1.03-5.87-1.74,5.04,.73,6.72-.88,8.49-2.42l10.73-9.36c2.09-1.82,4.04-2.6,6.02-2.63,1.93-.03,3.74,.66,5.66,1.76l11.6,6.7,11.6,6.7c1.91,1.1,3.41,2.33,4.35,4.02,.96,1.72,1.26,3.8,.73,6.53l-2.74,13.97c-.45,2.3-1.01,4.57,2.14,8.56-1.56-1.28-3.51-4.57-4.44-4.21Z" style="fill: #fbdc70; fill-rule: evenodd;"/>
      <path d="M284.66,723.29c-1.02-1.8-1.24-3.73-.81-5.92l2.55-13.04c.37-1.88,.21-3.23-.36-4.25-.59-1.06-1.68-1.91-3.11-2.74l-11.19-6.46-11.19-6.46c-1.43-.83-2.71-1.34-3.93-1.32-1.17,.02-2.42,.55-3.86,1.81l-10.02,8.73c-1.69,1.47-3.46,2.24-5.53,2.26-.16-.99-.9-1.88-2.78-2.6,.53,.05,1.04,.06,1.53,.02,1.85-.14,3.02-.84,4.34-2l10.26-8.94c2.09-1.82,4.04-2.6,6.02-2.63,1.93-.03,3.75,.65,5.66,1.76l11.19,6.46,11.19,6.46c1.91,1.1,3.41,2.33,4.35,4.02,.96,1.72,1.26,3.8,.73,6.53l-2.62,13.36c-.34,1.73-.36,3.09,.44,4.76,.21,.44,.47,.88,.78,1.32-1.56-1.28-2.71-1.47-3.64-1.11Z" style="fill: url(#GradientFill_7-36); fill-rule: evenodd;"/>
    </g>
    <g>
      <path d="M726.53,556.22l6.32-6.96c1.3-2.54-.76-6.25-6.18-9.56-1.82,4.81-3.78,9.56-5.83,14.28l5.69,2.25Z" style="fill: url(#GradientFill_7-37); fill-rule: evenodd;"/>
      <path d="M689.43,620.48l-2.87,8.96c-1.55,2.39-5.72,2.5-11.3-.54,3.25-3.98,6.32-8.09,9.38-12.23l4.79,3.81Z" style="fill: url(#GradientFill_7-38); fill-rule: evenodd;"/>
      <path d="M732.85,549.26l-6.24,10.8c-.7,.78-1.4,1.42-2.11,1.93-1.28,1.56-1.47,2.71-1.11,3.64l-12.86,22.27c-.46-.26-1.2,.17-1.66,.98-.46,.8-.47,1.67-.02,1.93l-12.86,22.27c-.99,.16-1.88,.9-2.6,2.78-.08,.87-.29,1.79-.62,2.79l-6.24,10.8c.93-3.29-.44-7.05-3.35-10.81l-12.9-16.67c-3.59-4.64-2.69-8.67,.12-13.54l9.42-16.31,9.42-16.31c2.81-4.87,5.86-7.67,11.67-6.88l20.88,2.84c4.72,.64,8.65-.06,11.04-2.5Z" style="fill: url(#GradientFill_1-12); fill-rule: evenodd;"/>
      <path d="M686.56,629.44h0c.93-3.29-.44-7.05-3.35-10.81l-12.9-16.67c-3.59-4.64-2.69-8.67,.12-13.54l9.42-16.31,9.42-16.31c2.81-4.87,5.86-7.67,11.67-6.88l20.88,2.84c4.72,.64,8.65-.06,11.04-2.5-3.01,3.89-8.49,4.73-13.14,4.06l-16.87-2.44c-5.78-.84-8.78,1.88-11.52,6.63l-9.19,15.92-9.19,15.92c-2.75,4.76-3.6,8.71,.02,13.3l10.55,13.39c2.91,3.7,4.92,8.86,3.06,13.41Z" style="fill: #ae6a2b; fill-rule: evenodd;"/>
      <path d="M686.56,629.44h0c.93-3.29-.44-7.05-3.35-10.81l-12.9-16.67c-3.59-4.64-2.69-8.67,.12-13.54l3.58-6.19c-1.85,4.39-4.43,9.61-4.01,14.38,.19,2.18,1.47,4.15,2.96,6.04l10.55,13.39c2.91,3.7,4.92,8.86,3.06,13.41Z" style="fill: #fbdc70; fill-rule: evenodd;"/>
      <path d="M699.55,606.94l-19.85-29.31,2.43-4.21,.76-1.32,19.85,29.31-3.19,5.52h0Zm15.36-26.6l-19.08-28.17c-1.76,1.17-3.17,3.01-4.51,5.34l-4.77,8.26,19.85,29.31,2.47-4.27c-.46-.26-.45-1.13,.02-1.93,.46-.8,1.21-1.24,1.66-.98l4.36-7.55Z" style="fill: url(#GradientFill_6-7); fill-rule: evenodd;"/>
      <path d="M708.33,580.92l-2.47,4.27,4.68,2.7c-.46-.26-1.2,.17-1.66,.98-.46,.8-.47,1.67-.02,1.93l-4.68-2.7-2.47,4.27c-.95,1.64-3.07,2.21-4.71,1.26l-4.28-2.47c-1.64-.95-2.21-3.07-1.26-4.71l6.61-11.45c.95-1.64,3.07-2.21,4.71-1.26l4.28,2.47c1.64,.95,2.21,3.07,1.26,4.71Z" style="fill: url(#GradientFill_7-39); fill-rule: evenodd;"/>
      <path d="M692.72,591.16l-1.24-.71c-1.64-.95-2.21-3.07-1.26-4.71l6.61-11.45c.95-1.64,3.07-2.21,4.71-1.26l1.24,.71c-1.64-.95-3.76-.38-4.71,1.26l-6.61,11.45c-.95,1.64-.38,3.76,1.26,4.71Z" style="fill: #fbdc70; fill-rule: evenodd;"/>
      <path d="M705.92,580.26l-5.97,10.35c-.41,.72-1.34,.97-2.06,.55l-3.47-2c-.72-.41-.97-1.34-.55-2.06l5.98-10.35c.42-.72,1.34-.97,2.06-.55l3.47,2c.72,.42,.97,1.34,.55,2.06Z" style="fill: #31b0e6; fill-rule: evenodd;"/>
      <path d="M693.87,587.1l2.55-4.42,.87-1.5,2.55-4.42c.16-.28,1.05-.2,.99,.51l-.23,2.43-1.91,3.3-1.9,3.3-1.99,1.41c-.58,.41-1.1-.32-.94-.6Z" style="fill: #194d9c; fill-rule: evenodd;"/>
      <path d="M699.95,590.61l2.55-4.42,.87-1.5,2.55-4.42c.16-.28-.36-1.01-.94-.6l-1.99,1.41-1.91,3.3-1.9,3.3-.23,2.43c-.07,.71,.83,.79,.99,.51Z" style="fill: #68c4d8; fill-rule: evenodd;"/>
      <rect x="696.08" y="582.31" width="7.62" height="2.75" transform="translate(-155.53 897.99) rotate(-60)" style="fill: #bbe0e1;"/>
      <polygon points="702.99 581.07 699.21 587.63 696.8 586.29 698.69 588.22 698.95 590.16 699.57 588.23 702.99 581.07" style="fill: #fff; fill-rule: evenodd;"/>
      <path d="M701.8,580.38l1.19,.69,1.99-1.41c.55-.39,.6-1.34,.16-1.59l-1.5-.87-1.5-.87c-.44-.25-1.24,.26-1.3,.93l-.22,2.43,1.19,.69Z" style="fill: #0090a6; fill-rule: evenodd;"/>
      <polygon points="696.82 586.25 700.61 579.69 702.99 581.07 701.13 579.11 700.86 577.16 700.24 579.1 696.82 586.25" style="fill: #0c3f8a; fill-rule: evenodd;"/>
      <path d="M722.4,564.5c-1.8,1.02-3.72,1.24-5.92,.81l-13.04-2.55c-1.88-.37-3.23-.21-4.25,.36-1.06,.59-1.92,1.68-2.74,3.11l-6.7,11.6-6.7,11.6c-.83,1.43-1.34,2.71-1.32,3.93,.02,1.17,.55,2.42,1.81,3.86l8.73,10.02c1.47,1.69,2.24,3.46,2.26,5.53-.99,.16-1.03,3.99-1.74,5.87,.73-5.04-.88-6.72-2.42-8.49l-9.36-10.73c-1.82-2.09-2.6-4.04-2.63-6.02-.03-1.93,.66-3.75,1.76-5.66l6.7-11.6,6.7-11.6c1.1-1.91,2.33-3.41,4.02-4.35,1.72-.96,3.8-1.26,6.53-.73l13.97,2.74c2.3,.45,4.57,1.01,8.56-2.14-1.28,1.56-4.57,3.51-4.21,4.45Z" style="fill: #fbdc70; fill-rule: evenodd;"/>
      <path d="M723.4,565.63c-1.8,1.02-3.73,1.24-5.92,.81l-13.04-2.55c-1.88-.37-3.23-.21-4.25,.36-1.06,.59-1.92,1.68-2.74,3.11l-6.46,11.19-6.46,11.19c-.83,1.43-1.34,2.71-1.32,3.93,.02,1.17,.55,2.42,1.81,3.86l8.73,10.02c1.47,1.69,2.24,3.46,2.26,5.53-.99,.16-1.88,.9-2.6,2.78,.05-.53,.06-1.04,.02-1.53-.14-1.85-.84-3.02-2-4.34l-8.94-10.26c-1.82-2.09-2.6-4.04-2.63-6.02-.03-1.93,.66-3.75,1.76-5.66l6.46-11.19,6.46-11.19c1.1-1.91,2.33-3.41,4.02-4.35,1.73-.96,3.8-1.26,6.53-.73l13.36,2.61c1.73,.34,3.09,.36,4.76-.44,.44-.21,.88-.47,1.32-.79-1.28,1.56-1.47,2.71-1.11,3.64Z" style="fill: url(#GradientFill_7-40); fill-rule: evenodd;"/>
    </g>
    <g>
      <path d="M556.33,123.75l-6.96-6.32c-2.54-1.3-6.25,.76-9.56,6.18,4.81,1.82,9.56,3.78,14.28,5.83l2.24-5.69Z" style="fill: url(#GradientFill_7-41); fill-rule: evenodd;"/>
      <path d="M620.59,160.86l8.96,2.87c2.39,1.55,2.5,5.72-.54,11.3-3.98-3.25-8.09-6.32-12.23-9.38l3.81-4.79Z" style="fill: url(#GradientFill_7-42); fill-rule: evenodd;"/>
      <path d="M549.37,117.43l10.8,6.23c.78,.7,1.42,1.4,1.93,2.11,1.56,1.28,2.71,1.47,3.64,1.11l22.27,12.85c-.26,.46,.18,1.2,.98,1.66,.8,.46,1.67,.47,1.93,.02l22.27,12.86c.16,.99,.9,1.88,2.78,2.6,.87,.09,1.79,.29,2.79,.62l10.8,6.24c-3.29-.93-7.05,.44-10.81,3.35l-16.67,12.9c-4.64,3.59-8.67,2.69-13.54-.13l-16.31-9.42-16.31-9.42c-4.87-2.81-7.67-5.86-6.88-11.67l2.84-20.88c.64-4.72-.06-8.65-2.5-11.04Z" style="fill: url(#GradientFill_1-13); fill-rule: evenodd;"/>
      <path d="M629.55,163.73h0c-3.29-.93-7.05,.44-10.81,3.35l-16.67,12.9c-4.64,3.59-8.67,2.69-13.54-.13l-16.31-9.42-16.31-9.42c-4.87-2.81-7.67-5.86-6.88-11.67l2.84-20.88c.64-4.72-.06-8.65-2.5-11.04,3.89,3.01,4.73,8.48,4.06,13.14l-2.44,16.87c-.84,5.78,1.88,8.78,6.63,11.52l15.92,9.19,15.92,9.19c4.76,2.75,8.71,3.6,13.3-.02l13.39-10.55c3.7-2.91,8.86-4.92,13.41-3.06Z" style="fill: #ae6a2b; fill-rule: evenodd;"/>
      <path d="M629.55,163.73h0c-3.29-.93-7.05,.44-10.81,3.35l-16.67,12.9c-4.64,3.59-8.67,2.69-13.54-.13l-6.19-3.58c4.39,1.85,9.61,4.43,14.38,4.01,2.18-.19,4.15-1.47,6.04-2.96l13.39-10.55c3.7-2.91,8.86-4.92,13.41-3.06Z" style="fill: #fbdc70; fill-rule: evenodd;"/>
      <path d="M607.05,150.74l-29.31,19.85-4.21-2.43-1.32-.76,29.31-19.85,5.52,3.19h0Zm-26.6-15.36l-28.17,19.08c1.17,1.76,3.01,3.16,5.34,4.51l8.26,4.77,29.31-19.85-4.27-2.47c-.26,.45-1.13,.45-1.93-.02-.8-.46-1.24-1.21-.98-1.66l-7.55-4.36Z" style="fill: url(#GradientFill_6-8); fill-rule: evenodd;"/>
      <path d="M581.03,141.96l4.27,2.47,2.7-4.68c-.26,.46,.18,1.2,.98,1.66,.8,.46,1.67,.47,1.93,.02l-2.7,4.68,4.27,2.47c1.64,.95,2.21,3.07,1.26,4.71l-2.47,4.28c-.95,1.64-3.07,2.21-4.71,1.26l-11.45-6.61c-1.64-.95-2.21-3.07-1.26-4.71l2.47-4.28c.95-1.64,3.07-2.21,4.71-1.26Z" style="fill: url(#GradientFill_7-43); fill-rule: evenodd;"/>
      <path d="M591.27,157.56l-.71,1.24c-.95,1.64-3.07,2.21-4.71,1.26l-11.45-6.61c-1.64-.95-2.21-3.07-1.26-4.71l.71-1.24c-.95,1.64-.38,3.76,1.26,4.71l11.45,6.61c1.64,.95,3.76,.38,4.71-1.26Z" style="fill: #fbdc70; fill-rule: evenodd;"/>
      <path d="M581.79,142.9h4c.83,0,1.51,.68,1.51,1.51v11.95c0,.83-.68,1.51-1.51,1.51h-4c-.83,0-1.51-.68-1.51-1.51v-11.95c0-.83,.68-1.51,1.51-1.51Z" transform="translate(161.67 580.78) rotate(-60)" style="fill: #31b0e6;"/>
      <path d="M587.21,156.42l-4.42-2.55-1.5-.87-4.42-2.55c-.28-.16-.2-1.05,.51-.99l2.43,.23,3.3,1.91,3.3,1.9,1.41,1.99c.41,.59-.32,1.1-.6,.94Z" style="fill: #194d9c; fill-rule: evenodd;"/>
      <path d="M590.72,150.34l-4.42-2.55-1.5-.87-4.42-2.55c-.28-.16-1.01,.36-.6,.94l1.41,1.99,3.3,1.91,3.3,1.9,2.43,.23c.71,.07,.79-.83,.52-.99Z" style="fill: #68c4d8; fill-rule: evenodd;"/>
      <rect x="582.42" y="146.58" width="2.75" height="7.62" transform="translate(161.66 580.78) rotate(-60)" style="fill: #bbe0e1;"/>
      <polygon points="581.18 147.29 587.74 151.08 586.4 153.49 588.33 151.6 590.27 151.33 588.34 150.71 581.18 147.29" style="fill: #fff; fill-rule: evenodd;"/>
      <path d="M580.49,148.48l.69-1.19-1.41-1.99c-.39-.55-1.34-.6-1.59-.16l-.87,1.5-.87,1.5c-.25,.44,.26,1.24,.93,1.3l2.43,.23,.69-1.19Z" style="fill: #0090a6; fill-rule: evenodd;"/>
      <polygon points="586.36 153.46 579.81 149.68 581.18 147.29 579.22 149.16 577.27 149.42 579.21 150.04 586.36 153.46" style="fill: #0c3f8a; fill-rule: evenodd;"/>
      <path d="M564.61,127.88c1.02,1.8,1.24,3.72,.81,5.92l-2.55,13.05c-.37,1.88-.21,3.23,.36,4.25,.59,1.06,1.68,1.91,3.11,2.74l11.6,6.7,11.6,6.7c1.43,.83,2.71,1.34,3.93,1.32,1.17-.02,2.42-.55,3.86-1.81l10.02-8.73c1.69-1.47,3.46-2.24,5.53-2.26,.16,.99,3.98,1.03,5.87,1.74-5.04-.73-6.72,.89-8.49,2.43l-10.73,9.35c-2.09,1.82-4.04,2.6-6.02,2.63-1.93,.03-3.75-.65-5.66-1.76l-11.6-6.7-11.6-6.7c-1.91-1.1-3.41-2.33-4.35-4.02-.96-1.72-1.26-3.8-.73-6.53l2.74-13.97c.45-2.3,1.01-4.57-2.14-8.56,1.56,1.28,3.51,4.58,4.45,4.22Z" style="fill: #fbdc70; fill-rule: evenodd;"/>
      <path d="M565.74,126.88c1.02,1.8,1.24,3.72,.81,5.92l-2.55,13.05c-.37,1.88-.21,3.23,.36,4.25,.59,1.06,1.68,1.91,3.11,2.74l11.19,6.46,11.19,6.46c1.43,.83,2.71,1.34,3.93,1.32,1.17-.02,2.42-.55,3.86-1.81l10.02-8.73c1.69-1.47,3.46-2.24,5.53-2.26,.16,.99,.9,1.88,2.78,2.6-.53-.05-1.04-.06-1.53-.02-1.85,.14-3.02,.84-4.34,2l-10.26,8.94c-2.09,1.82-4.04,2.6-6.02,2.63-1.93,.03-3.75-.65-5.66-1.76l-11.19-6.46-11.19-6.46c-1.91-1.1-3.41-2.33-4.35-4.02-.96-1.72-1.26-3.8-.73-6.53l2.61-13.35c.34-1.73,.36-3.09-.44-4.76-.21-.44-.47-.88-.79-1.32,1.56,1.28,2.71,1.47,3.64,1.11Z" style="fill: url(#GradientFill_7-44); fill-rule: evenodd;"/>
    </g>
    <path d="M502.61,726.78c-11.44,2.93-23.13,5.23-35.03,6.85l2.52,2.63c11.6-1.66,23-3.96,34.14-6.85,11.26-2.92,22.28-6.46,33.03-10.56l-.41-3.01c-11.12,4.28-22.55,7.94-34.25,10.94h0Zm142.66-81.49c-7.72,7.72-15.84,15.04-24.34,21.92l2.4,1.86c8.37-6.81,16.39-14.05,24.03-21.69,7.63-7.63,14.87-15.65,21.68-24.02l-1.86-2.4c-6.88,8.5-14.19,16.62-21.9,24.33h0Zm81.46-142.66c-3,11.71-6.66,23.14-10.95,34.27l3.01,.41c4.11-10.75,7.64-21.78,10.57-33.05,2.89-11.15,5.19-22.54,6.85-34.15l-2.63-2.5c-1.62,11.9-3.92,23.59-6.85,35.02h0Zm-343.98,230.99c-11.9-1.62-23.59-3.92-35.03-6.85-11.7-3-23.13-6.66-34.25-10.94l-.41,3.01c10.74,4.11,21.76,7.64,33.03,10.56,11.15,2.89,22.54,5.19,34.14,6.85l2.52-2.63h0Zm-153.34-66.42c-8.5-6.89-16.63-14.21-24.34-21.92-7.71-7.71-15.02-15.83-21.9-24.33l-1.86,2.4c6.81,8.37,14.04,16.39,21.68,24.02,7.64,7.64,15.66,14.88,24.03,21.69l2.4-1.86h0Zm-94.86-130.32c-4.28-11.13-7.95-22.57-10.95-34.27-2.93-11.43-5.23-23.12-6.85-35.02l-2.63,2.5c1.66,11.6,3.96,23,6.85,34.15,2.92,11.27,6.46,22.3,10.57,33.05l3.01-.41h0ZM467.58,116.6c11.9,1.62,23.59,3.92,35.03,6.85,11.7,3,23.13,6.66,34.25,10.94l.41-3.01c-10.74-4.11-21.76-7.64-33.03-10.56-11.15-2.89-22.54-5.19-34.14-6.85l-2.52,2.63h0Zm153.35,66.42c8.5,6.89,16.63,14.21,24.34,21.92,7.71,7.71,15.02,15.83,21.9,24.33l1.86-2.4c-6.81-8.37-14.04-16.39-21.68-24.02-7.64-7.64-15.66-14.88-24.03-21.69l-2.4,1.86h0Zm94.86,130.32c4.28,11.13,7.95,22.57,10.95,34.27,2.93,11.44,5.23,23.12,6.85,35.02l2.63-2.5c-1.66-11.6-3.96-23-6.85-34.15-2.92-11.27-6.46-22.3-10.57-33.05l-3.01,.41h0ZM347.72,123.48c11.44-2.93,23.13-5.23,35.03-6.85l-2.52-2.63c-11.6,1.66-23,3.96-34.14,6.85-11.26,2.92-22.28,6.46-33.03,10.56l.41,3.01c11.12-4.28,22.55-7.94,34.25-10.94h0Zm-142.66,81.49c7.72-7.72,15.84-15.04,24.34-21.92l-2.4-1.86c-8.37,6.81-16.39,14.05-24.03,21.69-7.63,7.63-14.87,15.65-21.68,24.02l1.86,2.4c6.88-8.5,14.19-16.62,21.9-24.33h0Zm-81.46,142.66c3-11.71,6.67-23.14,10.95-34.27l-3.01-.41c-4.11,10.75-7.64,21.78-10.57,33.05-2.89,11.15-5.19,22.55-6.85,34.15l2.63,2.5c1.62-11.9,3.92-23.59,6.85-35.02Z" style="fill: #ae6a2b; fill-rule: evenodd;"/>
    <path d="M502.26,725.42c-11.39,2.92-23.02,5.21-34.87,6.82l1.2,1.25c11.55-1.62,22.91-3.87,34.02-6.71,11.59-2.97,22.92-6.59,33.94-10.82l-.19-1.43c-11.07,4.26-22.45,7.9-34.1,10.89h0Zm142.01-81.12c-7.68,7.68-15.77,14.97-24.23,21.83l1.14,.88c8.41-6.83,16.45-14.08,24.09-21.71,7.63-7.63,14.87-15.67,21.69-24.07l-.88-1.14c-6.85,8.46-14.13,16.54-21.8,24.22h0Zm81.09-142.02c-2.99,11.65-6.63,23.04-10.9,34.12l1.43,.2c4.23-11.03,7.86-22.37,10.83-33.96,2.85-11.11,5.1-22.47,6.71-34.02l-1.26-1.19c-1.61,11.85-3.9,23.48-6.82,34.87h0Zm-342.43,229.94c-11.85-1.62-23.49-3.9-34.87-6.82-11.65-2.98-23.03-6.63-34.1-10.89l-.19,1.43c11.02,4.23,22.35,7.85,33.94,10.82,11.11,2.85,22.47,5.1,34.02,6.71l1.2-1.25h0Zm-152.65-66.12c-8.46-6.86-16.55-14.14-24.23-21.83-7.68-7.68-14.96-15.76-21.8-24.22l-.89,1.14c6.82,8.4,14.06,16.44,21.7,24.07,7.64,7.64,15.68,14.89,24.09,21.71l1.14-.88h0Zm-94.43-129.73c-4.26-11.08-7.91-22.46-10.9-34.12-2.92-11.38-5.21-23.02-6.82-34.86l-1.26,1.2c1.61,11.55,3.86,22.91,6.71,34.02,2.97,11.6,6.6,22.93,10.83,33.96l1.43-.19h0ZM467.39,118c11.85,1.62,23.49,3.9,34.87,6.82,11.65,2.98,23.03,6.63,34.1,10.89l.19-1.43c-11.02-4.23-22.35-7.85-33.94-10.82-11.11-2.85-22.47-5.1-34.02-6.71l-1.2,1.25h0Zm152.65,66.12c8.46,6.86,16.55,14.14,24.23,21.83,7.68,7.68,14.96,15.76,21.8,24.22l.88-1.14c-6.82-8.4-14.06-16.44-21.69-24.07-7.64-7.64-15.68-14.89-24.09-21.71l-1.14,.88h0Zm94.43,129.73c4.26,11.08,7.91,22.46,10.9,34.12,2.92,11.38,5.21,23.02,6.82,34.86l1.26-1.19c-1.61-11.55-3.86-22.91-6.71-34.02-2.97-11.6-6.6-22.93-10.83-33.96l-1.43,.19h0ZM348.07,124.84c11.39-2.92,23.02-5.21,34.87-6.82l-1.2-1.25c-11.55,1.61-22.91,3.86-34.02,6.71-11.59,2.97-22.92,6.59-33.94,10.82l.19,1.43c11.07-4.26,22.45-7.9,34.1-10.89h0Zm-142.01,81.12c7.68-7.68,15.77-14.97,24.23-21.82l-1.14-.88c-8.41,6.83-16.45,14.08-24.09,21.71-7.63,7.63-14.88,15.67-21.7,24.07l.89,1.14c6.85-8.46,14.13-16.54,21.8-24.22h0Zm-81.09,142.02c2.99-11.65,6.63-23.04,10.9-34.12l-1.43-.19c-4.23,11.03-7.86,22.36-10.83,33.96-2.85,11.11-5.1,22.47-6.71,34.02l1.26,1.19c1.61-11.85,3.9-23.48,6.82-34.87Z" style="fill: #fbdc70; fill-rule: evenodd;"/>
  </g>
</svg>