<?xml version="1.0" encoding="UTF-8"?>
<svg id="NFT_ANVIL" data-name="NFT ANVIL" xmlns="http://www.w3.org/2000/svg" xmlns:xlink="http://www.w3.org/1999/xlink" viewBox="0 0 850.39 850.39">
  <defs>
    <linearGradient id="GradientFill_1" data-name="GradientFill 1" x1="503.3" y1="618.4" x2="338.64" y2="210.84" gradientTransform="matrix(1, 0, 0, 1, 0, 0)" gradientUnits="userSpaceOnUse">
      <stop offset="0" stop-color="#e28b43"/>
      <stop offset="1" stop-color="#f7c96c"/>
    </linearGradient>
    <linearGradient id="GradientFill_4" data-name="GradientFill 4" x1="419.72" y1="320.57" x2="435.91" y2="629.57" gradientTransform="matrix(1, 0, 0, 1, 0, 0)" gradientUnits="userSpaceOnUse">
      <stop offset="0" stop-color="#fbdc70"/>
      <stop offset="1" stop-color="#ae6a2b"/>
    </linearGradient>
    <linearGradient id="GradientFill_1-2" data-name="GradientFill 1" x1="503.67" y1="619.31" x2="338.29" y2="209.97" xlink:href="#GradientFill_1"/>
    <linearGradient id="GradientFill_5" data-name="GradientFill 5" x1="396.38" y1="276.82" x2="463.11" y2="620.15" gradientTransform="matrix(1, 0, 0, 1, 0, 0)" gradientUnits="userSpaceOnUse">
      <stop offset="0" stop-color="#ca7934"/>
      <stop offset="1" stop-color="#f7c96c"/>
    </linearGradient>
    <linearGradient id="GradientFill_1-3" data-name="GradientFill 1" x1="425.2" y1="223.28" x2="425.2" y2="248.46" xlink:href="#GradientFill_1"/>
    <linearGradient id="GradientFill_2" data-name="GradientFill 2" x1="420.45" y1="254.78" x2="438.38" y2="223.72" gradientTransform="matrix(1, 0, 0, 1, 0, 0)" gradientUnits="userSpaceOnUse">
      <stop offset="0" stop-color="#fbdc70"/>
      <stop offset="1" stop-color="#e69c4f"/>
    </linearGradient>
    <linearGradient id="GradientFill_6" data-name="GradientFill 6" x1="425.2" y1="192.63" x2="425.2" y2="292.93" gradientTransform="matrix(1, 0, 0, 1, 0, 0)" gradientUnits="userSpaceOnUse">
      <stop offset="0" stop-color="#fbdc70"/>
      <stop offset="1" stop-color="#f0b45e"/>
    </linearGradient>
    <linearGradient id="GradientFill_4-2" data-name="GradientFill 4" x1="425.2" y1="183.85" x2="425.2" y2="358.38" xlink:href="#GradientFill_4"/>
    <linearGradient id="GradientFill_7" data-name="GradientFill 7" x1="444.85" y1="245.2" x2="440.83" y2="246.2" gradientTransform="matrix(1, 0, 0, 1, 0, 0)" gradientUnits="userSpaceOnUse">
      <stop offset="0" stop-color="#ae6a2b"/>
      <stop offset="1" stop-color="#844808"/>
    </linearGradient>
    <linearGradient id="GradientFill_7-2" data-name="GradientFill 7" x1="405.25" y1="245.07" x2="409.23" y2="246.13" xlink:href="#GradientFill_7"/>
    <linearGradient id="GradientFill_1-4" data-name="GradientFill 1" x1="425.2" y1="626.89" x2="425.2" y2="601.71" xlink:href="#GradientFill_1"/>
    <linearGradient id="GradientFill_2-2" data-name="GradientFill 2" x1="431.96" y1="591.9" x2="414.03" y2="622.96" xlink:href="#GradientFill_2"/>
    <linearGradient id="GradientFill_6-2" data-name="GradientFill 6" y1="657.54" y2="557.24" xlink:href="#GradientFill_6"/>
    <linearGradient id="GradientFill_4-3" data-name="GradientFill 4" x1="425.2" y1="740.45" x2="425.2" y2="565.92" xlink:href="#GradientFill_4"/>
    <linearGradient id="GradientFill_7-3" data-name="GradientFill 7" x1="405.22" y1="605.05" x2="409.25" y2="604.05" xlink:href="#GradientFill_7"/>
    <linearGradient id="GradientFill_7-4" data-name="GradientFill 7" x1="444.83" y1="605.02" x2="440.85" y2="603.96" xlink:href="#GradientFill_7"/>
    <linearGradient id="GradientFill_1-5" data-name="GradientFill 1" x1="630.4" y1="425.09" x2="605.22" y2="425.09" xlink:href="#GradientFill_1"/>
    <linearGradient id="GradientFill_2-3" data-name="GradientFill 2" x1="595.47" y1="420.68" x2="626.87" y2="438.08" xlink:href="#GradientFill_2"/>
    <linearGradient id="GradientFill_6-3" data-name="GradientFill 6" x1="675.43" y1="425.09" x2="575.13" y2="425.09" xlink:href="#GradientFill_6"/>
    <linearGradient id="GradientFill_4-4" data-name="GradientFill 4" x1="691.41" y1="425.09" x2="516.89" y2="425.09" xlink:href="#GradientFill_4"/>
    <linearGradient id="GradientFill_7-5" data-name="GradientFill 7" x1="605.07" y1="444.66" x2="604.06" y2="440.64" xlink:href="#GradientFill_7"/>
    <linearGradient id="GradientFill_7-6" data-name="GradientFill 7" x1="605.11" y1="405.53" x2="604.04" y2="409.51" xlink:href="#GradientFill_7"/>
    <linearGradient id="GradientFill_1-6" data-name="GradientFill 1" x1="226.79" y1="425.09" x2="251.97" y2="425.09" xlink:href="#GradientFill_1"/>
    <linearGradient id="GradientFill_2-4" data-name="GradientFill 2" x1="258.47" y1="431.9" x2="227.41" y2="413.97" xlink:href="#GradientFill_2"/>
    <linearGradient id="GradientFill_6-4" data-name="GradientFill 6" x1="210.51" y1="425.09" x2="310.81" y2="425.09" xlink:href="#GradientFill_6"/>
    <linearGradient id="GradientFill_4-5" data-name="GradientFill 4" x1="134.82" y1="425.09" x2="309.34" y2="425.09" xlink:href="#GradientFill_4"/>
    <linearGradient id="GradientFill_7-7" data-name="GradientFill 7" x1="245.21" y1="405.03" x2="246.21" y2="409.06" xlink:href="#GradientFill_7"/>
    <linearGradient id="GradientFill_7-8" data-name="GradientFill 7" x1="245.16" y1="445.11" x2="246.22" y2="441.13" xlink:href="#GradientFill_7"/>
    <linearGradient id="GradientFill_1-7" data-name="GradientFill 1" x1="524.33" y1="253.38" x2="511.02" y2="276.44" xlink:href="#GradientFill_1"/>
    <linearGradient id="GradientFill_2-5" data-name="GradientFill 2" x1="508.31" y1="274.03" x2="539.56" y2="255.99" xlink:href="#GradientFill_2"/>
    <linearGradient id="GradientFill_6-5" data-name="GradientFill 6" x1="527.31" y1="248.23" x2="494.94" y2="304.29" xlink:href="#GradientFill_6"/>
    <linearGradient id="GradientFill_4-6" data-name="GradientFill 4" x1="519.93" y1="261.01" x2="433.86" y2="410.08" xlink:href="#GradientFill_4"/>
    <linearGradient id="GradientFill_7-9" data-name="GradientFill 7" x1="532.75" y1="279.3" x2="529.36" y2="278.32" xlink:href="#GradientFill_7"/>
    <linearGradient id="GradientFill_7-10" data-name="GradientFill 7" x1="497.84" y1="259.12" x2="500.33" y2="261.61" xlink:href="#GradientFill_7"/>
    <linearGradient id="GradientFill_1-8" data-name="GradientFill 1" x1="321.8" y1="604.18" x2="335.11" y2="581.12" xlink:href="#GradientFill_1"/>
    <linearGradient id="GradientFill_2-6" data-name="GradientFill 2" x1="349.9" y1="571.63" x2="318.66" y2="589.67" xlink:href="#GradientFill_2"/>
    <linearGradient id="GradientFill_6-6" data-name="GradientFill 6" x1="312.63" y1="620.05" x2="345" y2="563.99" xlink:href="#GradientFill_6"/>
    <linearGradient id="GradientFill_4-7" data-name="GradientFill 4" x1="242.83" y1="740.96" x2="328.89" y2="591.89" xlink:href="#GradientFill_4"/>
    <linearGradient id="GradientFill_7-11" data-name="GradientFill 7" x1="319.1" y1="571.3" x2="322.49" y2="572.27" xlink:href="#GradientFill_7"/>
    <linearGradient id="GradientFill_7-12" data-name="GradientFill 7" x1="351.72" y1="590.22" x2="349.23" y2="587.73" xlink:href="#GradientFill_7"/>
    <linearGradient id="GradientFill_1-9" data-name="GradientFill 1" x1="600.02" y1="526.02" x2="576.96" y2="512.71" xlink:href="#GradientFill_1"/>
    <linearGradient id="GradientFill_2-7" data-name="GradientFill 2" x1="574.6" y1="505.97" x2="593.2" y2="536.93" xlink:href="#GradientFill_2"/>
    <linearGradient id="GradientFill_6-7" data-name="GradientFill 6" x1="610.57" y1="532.11" x2="554.51" y2="499.75" xlink:href="#GradientFill_6"/>
    <linearGradient id="GradientFill_4-8" data-name="GradientFill 4" x1="640.2" y1="549.22" x2="491.14" y2="463.16" xlink:href="#GradientFill_4"/>
    <linearGradient id="GradientFill_7-13" data-name="GradientFill 7" x1="571.06" y1="532.38" x2="572.04" y2="528.99" xlink:href="#GradientFill_7"/>
    <linearGradient id="GradientFill_7-14" data-name="GradientFill 7" x1="590.97" y1="497.92" x2="588.49" y2="500.41" xlink:href="#GradientFill_7"/>
    <linearGradient id="GradientFill_1-10" data-name="GradientFill 1" x1="249.23" y1="323.49" x2="272.29" y2="336.8" xlink:href="#GradientFill_1"/>
    <linearGradient id="GradientFill_2-8" data-name="GradientFill 2" x1="277.26" y1="347.37" x2="259.22" y2="316.12" xlink:href="#GradientFill_2"/>
    <linearGradient id="GradientFill_6-8" data-name="GradientFill 6" x1="238.75" y1="317.44" x2="294.8" y2="349.8" xlink:href="#GradientFill_6"/>
    <linearGradient id="GradientFill_4-9" data-name="GradientFill 4" x1="160.26" y1="272.12" x2="309.32" y2="358.19" xlink:href="#GradientFill_4"/>
    <linearGradient id="GradientFill_7-15" data-name="GradientFill 7" x1="279.06" y1="318.73" x2="278.09" y2="322.11" xlink:href="#GradientFill_7"/>
    <linearGradient id="GradientFill_7-16" data-name="GradientFill 7" x1="259.88" y1="351.8" x2="262.37" y2="349.31" xlink:href="#GradientFill_7"/>
    <linearGradient id="GradientFill_1-11" data-name="GradientFill 1" x1="600.02" y1="324.15" x2="576.96" y2="337.47" xlink:href="#GradientFill_1"/>
    <linearGradient id="GradientFill_2-9" data-name="GradientFill 2" x1="570.88" y1="335.82" x2="609.92" y2="335.82" xlink:href="#GradientFill_2"/>
    <linearGradient id="GradientFill_6-9" data-name="GradientFill 6" x1="610.58" y1="318.06" x2="554.51" y2="350.43" xlink:href="#GradientFill_6"/>
    <linearGradient id="GradientFill_4-10" data-name="GradientFill 4" x1="609.16" y1="318.87" x2="460.04" y2="404.97" xlink:href="#GradientFill_4"/>
    <linearGradient id="GradientFill_7-17" data-name="GradientFill 7" x1="590.94" y1="352.3" x2="588.48" y2="349.75" xlink:href="#GradientFill_7"/>
    <linearGradient id="GradientFill_7-18" data-name="GradientFill 7" x1="571.12" y1="317.79" x2="572.03" y2="321.17" xlink:href="#GradientFill_7"/>
    <linearGradient id="GradientFill_1-12" data-name="GradientFill 1" x1="249.23" y1="526.68" x2="272.29" y2="513.37" xlink:href="#GradientFill_1"/>
    <linearGradient id="GradientFill_2-10" data-name="GradientFill 2" x1="287.86" y1="514.35" x2="248.82" y2="514.35" xlink:href="#GradientFill_2"/>
    <linearGradient id="GradientFill_6-10" data-name="GradientFill 6" x1="238.75" y1="532.73" x2="294.8" y2="500.37" xlink:href="#GradientFill_6"/>
    <linearGradient id="GradientFill_4-11" data-name="GradientFill 4" x1="129.16" y1="596" x2="278.28" y2="509.91" xlink:href="#GradientFill_4"/>
    <linearGradient id="GradientFill_7-19" data-name="GradientFill 7" x1="259.91" y1="498.34" x2="262.37" y2="500.89" xlink:href="#GradientFill_7"/>
    <linearGradient id="GradientFill_7-20" data-name="GradientFill 7" x1="279.02" y1="531.45" x2="278.12" y2="528.07" xlink:href="#GradientFill_7"/>
    <linearGradient id="GradientFill_1-13" data-name="GradientFill 1" x1="524.33" y1="596.79" x2="511.02" y2="573.73" xlink:href="#GradientFill_1"/>
    <linearGradient id="GradientFill_2-11" data-name="GradientFill 2" x1="514.1" y1="567.7" x2="514.79" y2="606.78" xlink:href="#GradientFill_2"/>
    <linearGradient id="GradientFill_6-11" data-name="GradientFill 6" x1="527.31" y1="601.94" x2="494.94" y2="545.89" xlink:href="#GradientFill_6"/>
    <linearGradient id="GradientFill_4-12" data-name="GradientFill 4" x1="550.94" y1="642.87" x2="464.84" y2="493.75" xlink:href="#GradientFill_4"/>
    <linearGradient id="GradientFill_7-21" data-name="GradientFill 7" x1="497.79" y1="591.02" x2="500.34" y2="588.56" xlink:href="#GradientFill_7"/>
    <linearGradient id="GradientFill_7-22" data-name="GradientFill 7" x1="532.76" y1="570.94" x2="529.38" y2="571.84" xlink:href="#GradientFill_7"/>
    <linearGradient id="GradientFill_1-14" data-name="GradientFill 1" x1="321.8" y1="246" x2="335.11" y2="269.06" xlink:href="#GradientFill_1"/>
    <linearGradient id="GradientFill_2-12" data-name="GradientFill 2" x1="335.94" y1="284.64" x2="335.94" y2="245.6" xlink:href="#GradientFill_2"/>
    <linearGradient id="GradientFill_6-12" data-name="GradientFill 6" x1="312.63" y1="230.12" x2="345" y2="286.18" xlink:href="#GradientFill_6"/>
    <linearGradient id="GradientFill_4-13" data-name="GradientFill 4" x1="273.81" y1="162.87" x2="359.9" y2="311.99" xlink:href="#GradientFill_4"/>
    <linearGradient id="GradientFill_7-23" data-name="GradientFill 7" x1="351.75" y1="259.98" x2="349.2" y2="262.44" xlink:href="#GradientFill_7"/>
    <linearGradient id="GradientFill_7-24" data-name="GradientFill 7" x1="319.1" y1="278.84" x2="322.48" y2="277.94" xlink:href="#GradientFill_7"/>
  </defs>
  <g id="Ring_2-2" data-name="Ring 2">
    <path d="M425.2,227.17c109.31,0,197.92,88.61,197.92,197.92s-88.61,197.92-197.92,197.92-197.91-88.61-197.91-197.92,88.61-197.92,197.91-197.92h0Zm0,16.33c-100.29,0-181.59,81.3-181.59,181.59s81.3,181.59,181.59,181.59,181.59-81.3,181.59-181.59-81.3-181.59-181.59-181.59Z" style="fill: url(#GradientFill_1); fill-rule: evenodd;"/>
    <path d="M425.2,227.17c109.31,0,197.92,88.61,197.92,197.92s-88.61,197.92-197.92,197.92-197.91-88.61-197.91-197.92,88.61-197.92,197.91-197.92h0Zm0,3.98c-107.11,0-193.94,86.83-193.94,193.94s86.83,193.94,193.94,193.94,193.94-86.83,193.94-193.94-86.83-193.94-193.94-193.94Z" style="fill: url(#GradientFill_4); fill-rule: evenodd;"/>
    <path d="M425.2,234.2c105.43,0,190.89,85.46,190.89,190.89s-85.46,190.89-190.89,190.89-190.89-85.46-190.89-190.89,85.46-190.89,190.89-190.89h0Zm0,3.05c-103.74,0-187.84,84.1-187.84,187.84s84.1,187.84,187.84,187.84,187.84-84.1,187.84-187.84-84.1-187.84-187.84-187.84Z" style="fill: #ae6a2b; fill-rule: evenodd;"/>
    <path d="M425.2,237.06c103.84,0,188.02,84.18,188.02,188.02s-84.18,188.02-188.02,188.02-188.02-84.18-188.02-188.02,84.18-188.02,188.02-188.02h0Zm0,6.43c-100.29,0-181.59,81.3-181.59,181.59s81.3,181.59,181.59,181.59,181.59-81.3,181.59-181.59-81.3-181.59-181.59-181.59Z" style="fill: url(#GradientFill_1-2); fill-rule: evenodd;"/>
    <path d="M450.92,608.07c-101.06,14.21-194.5-56.2-208.71-157.26-14.21-101.06,56.2-194.5,157.26-208.7,101.06-14.21,194.5,56.2,208.7,157.26,14.21,101.06-56.2,194.5-157.26,208.71h0Zm-.44-3.16c99.31-13.96,168.5-105.79,154.54-205.1-13.96-99.31-105.79-168.5-205.1-154.54-99.31,13.96-168.5,105.79-154.54,205.1,13.96,99.31,105.79,168.5,205.1,154.54Z" style="fill: url(#GradientFill_5); fill-rule: evenodd;"/>
    <path d="M616.07,425.47c0,.16,0,.31,0,.47,0,105.47-85.67,190.98-191.35,190.98s-191.35-85.5-191.35-190.98c0-.16,0-.31,0-.47,.26,105.26,85.82,190.5,191.34,190.5s191.09-85.25,191.34-190.5h0Zm-191.34-187.45c103.83,0,188.03,83.88,188.28,187.45,0-.16,0-.31,0-.47,0-103.79-84.3-187.92-188.29-187.92s-188.29,84.13-188.29,187.92c0,.16,0,.31,0,.47,.26-103.57,84.45-187.45,188.28-187.45Z" style="fill: #fbdc70; fill-rule: evenodd;"/>
    <g>
      <path d="M425.2,251.51c-3.66,.1-7.27,.37-10.75,.71-3.32,.32-9.11-2.03-9.15-7.62,1.62-.19,3.24-.36,4.86-.48l11.15-22.22c.85-1.69,2.5-2.33,3.89-2.41,1.39,.07,3.04,.71,3.89,2.41l11.15,22.22c1.63,.12,3.25,.29,4.86,.48-.04,5.6-5.83,7.95-9.15,7.62-3.48-.34-7.09-.61-10.75-.71Z" style="fill: url(#GradientFill_1-3); fill-rule: evenodd;"/>
      <path d="M435.38,234.44l-8.32,17.13c-.62-.03-1.24-.05-1.87-.07-1.85,.05-3.69,.15-5.5,.27l11.99-24.7,3.7,7.36Z" style="fill: url(#GradientFill_2); fill-rule: evenodd;"/>
      <path d="M413.36,252.23c.15-.22,.29-.47,.43-.74l7.8-15.54c.35-.7,.86-1.21,1.42-1.56,.69-.43,1.44-1.1,2.19-1.09,.75-.02,1.49,.66,2.19,1.09,.56,.35,1.07,.85,1.42,1.56l7.8,15.54c.14,.27,.28,.52,.43,.74-.38,.02-.75,.02-1.08-.01-.69-.07-1.39-.13-2.1-.19-.07-.12-.13-.23-.19-.35l-.68-1.34-6.56-13.07c-.25-.5-.58-.72-1.14-.77h-.17c-.56,.05-.89,.28-1.14,.77l-6.56,13.07-.68,1.34c-.06,.12-.12,.23-.19,.35-.7,.06-1.4,.13-2.1,.19-.34,.03-.7,.04-1.08,.01Z" style="fill: url(#GradientFill_6); fill-rule: evenodd;"/>
      <path d="M413.59,252.24c-1.25-.04-2.71-.4-4.06-1.09,1.23,.48,3.05,0,4.26-2.41l7.8-15.54c.35-.7,.86-1.21,1.42-1.56,.69-.43,1.44-.63,2.19-.62,.75-.02,1.49,.19,2.19,.62,.56,.35,1.07,.85,1.42,1.56l7.8,15.54c1.21,2.4,3.03,2.89,4.26,2.41-1.34,.7-2.8,1.05-4.06,1.09-1.36-.69-2.45-1.96-3.14-3.32l-.68-1.34-6.56-13.07c-.25-.49-.58-.72-1.14-.77h-.17c-.56,.05-.89,.28-1.14,.77l-6.56,13.07-.68,1.34c-.7,1.36-1.78,2.63-3.14,3.32Z" style="fill: #ae6a2b; fill-rule: evenodd;"/>
      <path d="M405.29,244.59c1.62-.19,3.24-.36,4.86-.48l11.15-22.22c.85-1.69,2.5-2.33,3.89-2.41,1.39,.07,3.04,.71,3.89,2.41l11.15,22.21c1.63,.12,3.25,.27,4.87,.46-.04,5.51-4.01,5.01-6.21,.64l-10.03-19.99c-.8-1.59-2.36-2.2-3.67-2.27-1.31,.07-2.87,.68-3.67,2.27l-10.03,19.99c-2.2,4.37-6.16,4.89-6.21-.62Z" style="fill: url(#GradientFill_4-2); fill-rule: evenodd;"/>
      <path d="M440.26,244.11h-.02c1.19,2.5,2.8,4.31,4.29,3.28h.02c.34-.66,.54-1.59,.55-2.82-1.61-.19-3.22-.34-4.84-.46Z" style="fill: url(#GradientFill_7); fill-rule: evenodd;"/>
      <path d="M410.15,244.12h.02c-1.19,2.5-2.8,4.31-4.29,3.28h-.02c-.34-.66-.54-1.59-.55-2.82,1.61-.19,3.22-.34,4.84-.46Z" style="fill: url(#GradientFill_7-2); fill-rule: evenodd;"/>
    </g>
    <g>
      <path d="M425.2,598.67c3.66-.1,7.27-.37,10.75-.71,3.32-.32,9.11,2.03,9.15,7.62-1.62,.19-3.23,.36-4.86,.48l-11.15,22.22c-.85,1.69-2.5,2.33-3.89,2.41-1.39-.07-3.04-.71-3.89-2.41l-11.15-22.22c-1.63-.12-3.25-.29-4.86-.48,.04-5.6,5.83-7.95,9.15-7.62,3.48,.34,7.09,.61,10.75,.71Z" style="fill: url(#GradientFill_1-4); fill-rule: evenodd;"/>
      <path d="M415.01,615.73l8.32-17.13c.62,.03,1.24,.05,1.87,.07,1.85-.05,3.69-.15,5.5-.27l-11.99,24.7-3.7-7.36Z" style="fill: url(#GradientFill_2-2); fill-rule: evenodd;"/>
      <path d="M437.03,597.94c-.15,.22-.29,.47-.43,.74l-7.8,15.54c-.35,.7-.86,1.21-1.42,1.56-.69,.43-1.44,1.11-2.19,1.09-.75,.02-1.49-.66-2.19-1.09-.56-.35-1.07-.85-1.42-1.56l-7.8-15.54c-.14-.27-.28-.52-.43-.74,.38-.02,.75-.02,1.08,.01,.69,.07,1.39,.13,2.1,.19,.07,.12,.13,.23,.19,.35l.68,1.34,6.56,13.07c.25,.5,.58,.72,1.14,.77h.17c.56-.05,.89-.28,1.14-.77l6.56-13.07,.68-1.34c.06-.12,.12-.23,.19-.35,.7-.06,1.4-.12,2.1-.19,.34-.03,.7-.04,1.08-.01Z" style="fill: url(#GradientFill_6-2); fill-rule: evenodd;"/>
      <path d="M436.81,597.93c1.25,.04,2.71,.4,4.06,1.09-1.23-.48-3.05,0-4.26,2.41l-7.8,15.54c-.35,.7-.86,1.21-1.42,1.56-.69,.43-1.44,.63-2.19,.62-.75,.02-1.49-.19-2.19-.62-.56-.35-1.07-.85-1.42-1.56l-7.8-15.54c-1.21-2.4-3.03-2.89-4.26-2.41,1.34-.7,2.8-1.05,4.06-1.09,1.36,.69,2.45,1.96,3.14,3.32l.68,1.34,6.56,13.07c.25,.49,.58,.72,1.14,.77h.17c.56-.05,.89-.28,1.14-.77l6.56-13.07,.68-1.34c.7-1.36,1.78-2.63,3.14-3.32Z" style="fill: #ae6a2b; fill-rule: evenodd;"/>
      <path d="M445.1,605.58c-1.62,.19-3.23,.36-4.86,.48l-11.15,22.22c-.85,1.69-2.5,2.33-3.89,2.41-1.39-.07-3.04-.71-3.89-2.41l-11.15-22.21c-1.63-.12-3.25-.27-4.87-.46,.04-5.51,4.01-5.01,6.21-.64l10.03,19.99c.8,1.59,2.36,2.2,3.67,2.27,1.31-.07,2.87-.68,3.67-2.27l10.03-19.99c2.2-4.38,6.16-4.89,6.21,.62Z" style="fill: url(#GradientFill_4-3); fill-rule: evenodd;"/>
      <path d="M410.14,606.06h.02c-1.19-2.5-2.8-4.31-4.29-3.28h-.02c-.34,.66-.54,1.59-.55,2.82,1.61,.19,3.22,.34,4.84,.46Z" style="fill: url(#GradientFill_7-3); fill-rule: evenodd;"/>
      <path d="M440.24,606.06h-.02c1.19-2.5,2.8-4.31,4.29-3.28h.02c.34,.66,.54,1.59,.55,2.82-1.61,.19-3.22,.34-4.84,.46Z" style="fill: url(#GradientFill_7-4); fill-rule: evenodd;"/>
    </g>
    <g>
      <path d="M598.78,425.09c-.1-3.66-.37-7.27-.71-10.75-.32-3.32,2.03-9.11,7.62-9.15,.19,1.62,.36,3.24,.48,4.86l22.22,11.15c1.69,.85,2.33,2.5,2.41,3.89-.07,1.39-.71,3.04-2.41,3.89l-22.22,11.16c-.12,1.63-.29,3.25-.48,4.86-5.6-.04-7.95-5.83-7.62-9.15,.34-3.48,.61-7.09,.71-10.75Z" style="fill: url(#GradientFill_1-5); fill-rule: evenodd;"/>
      <path d="M615.84,435.27l-17.13-8.32c.03-.62,.05-1.24,.07-1.87-.05-1.85-.15-3.69-.27-5.5l24.7,11.99-7.36,3.7Z" style="fill: url(#GradientFill_2-3); fill-rule: evenodd;"/>
      <path d="M598.05,413.25c.22,.15,.47,.29,.74,.43l15.54,7.8c.7,.35,1.21,.86,1.56,1.42,.43,.69,1.1,1.44,1.09,2.19,.02,.75-.66,1.49-1.09,2.19-.35,.56-.85,1.07-1.56,1.42l-15.54,7.8c-.27,.14-.52,.28-.74,.43-.02-.38-.02-.75,.01-1.08,.07-.69,.13-1.39,.19-2.1,.12-.07,.23-.13,.35-.19l1.33-.68,13.07-6.56c.49-.25,.72-.58,.77-1.14v-.17c-.05-.56-.28-.89-.77-1.14l-13.07-6.56-1.33-.68c-.12-.06-.23-.12-.35-.19-.06-.7-.13-1.4-.19-2.1-.03-.34-.04-.7-.01-1.08Z" style="fill: url(#GradientFill_6-3); fill-rule: evenodd;"/>
      <path d="M598.04,413.48c.04-1.25,.4-2.71,1.09-4.06-.48,1.23,0,3.05,2.41,4.26l15.54,7.8c.7,.35,1.21,.86,1.56,1.42,.43,.69,.63,1.44,.62,2.19,.02,.75-.19,1.49-.62,2.19-.35,.56-.85,1.07-1.56,1.42l-15.54,7.8c-2.4,1.21-2.89,3.03-2.41,4.26-.7-1.34-1.05-2.8-1.09-4.06,.69-1.36,1.96-2.45,3.32-3.14l1.33-.68,13.07-6.56c.49-.25,.72-.58,.77-1.14v-.17c-.05-.56-.28-.89-.77-1.14l-13.07-6.56-1.33-.68c-1.36-.7-2.63-1.79-3.32-3.14Z" style="fill: #ae6a2b; fill-rule: evenodd;"/>
      <path d="M605.69,405.18c.19,1.62,.36,3.24,.48,4.86l22.22,11.15c1.69,.85,2.33,2.5,2.41,3.89-.07,1.39-.71,3.04-2.41,3.89l-22.21,11.15c-.12,1.63-.27,3.25-.46,4.87-5.51-.04-5.01-4.01-.64-6.21l19.99-10.03c1.59-.8,2.2-2.36,2.27-3.67-.07-1.31-.68-2.87-2.27-3.67l-19.99-10.03c-4.37-2.2-4.89-6.16,.62-6.21Z" style="fill: url(#GradientFill_4-4); fill-rule: evenodd;"/>
      <path d="M606.17,440.15v-.02c-2.5,1.19-4.31,2.8-3.28,4.29v.02c.66,.34,1.59,.54,2.82,.55,.19-1.61,.34-3.22,.46-4.84Z" style="fill: url(#GradientFill_7-5); fill-rule: evenodd;"/>
      <path d="M606.17,410.04v.02c-2.5-1.19-4.31-2.8-3.28-4.29v-.02c.66-.34,1.59-.54,2.82-.55,.19,1.61,.34,3.22,.46,4.84Z" style="fill: url(#GradientFill_7-6); fill-rule: evenodd;"/>
    </g>
    <g>
      <path d="M251.62,425.09c.1,3.66,.37,7.27,.71,10.75,.32,3.32-2.03,9.11-7.62,9.15-.19-1.62-.36-3.24-.48-4.86l-22.22-11.16c-1.69-.85-2.33-2.5-2.41-3.89,.07-1.39,.71-3.04,2.41-3.89l22.22-11.15c.12-1.63,.29-3.25,.48-4.86,5.6,.04,7.95,5.83,7.62,9.15-.34,3.48-.61,7.09-.71,10.75Z" style="fill: url(#GradientFill_1-6); fill-rule: evenodd;"/>
      <path d="M234.55,414.9l17.13,8.32c-.03,.62-.05,1.24-.07,1.87,.05,1.85,.15,3.69,.27,5.5l-24.7-11.99,7.36-3.7Z" style="fill: url(#GradientFill_2-4); fill-rule: evenodd;"/>
      <path d="M252.34,436.92c-.22-.15-.47-.29-.74-.43l-15.54-7.8c-.7-.35-1.21-.86-1.56-1.42-.43-.69-1.1-1.44-1.09-2.19-.02-.75,.66-1.49,1.09-2.19,.35-.56,.85-1.07,1.56-1.42l15.54-7.8c.27-.14,.52-.28,.74-.43,.02,.38,.02,.75-.01,1.08-.07,.69-.13,1.39-.19,2.1-.12,.07-.23,.13-.35,.19l-1.34,.68-13.07,6.56c-.5,.25-.72,.58-.77,1.14v.17c.05,.56,.28,.89,.77,1.14l13.07,6.56,1.34,.68c.12,.06,.23,.12,.35,.19,.06,.7,.13,1.4,.19,2.1,.03,.34,.04,.7,.01,1.08Z" style="fill: url(#GradientFill_6-4); fill-rule: evenodd;"/>
      <path d="M252.35,436.7c-.04,1.25-.4,2.71-1.09,4.06,.48-1.23,0-3.05-2.41-4.26l-15.54-7.8c-.7-.35-1.21-.86-1.56-1.42-.43-.69-.63-1.44-.62-2.19-.02-.75,.19-1.49,.62-2.19,.35-.56,.85-1.07,1.56-1.42l15.54-7.8c2.4-1.21,2.89-3.03,2.41-4.26,.7,1.34,1.05,2.8,1.09,4.06-.69,1.36-1.96,2.45-3.32,3.14l-1.34,.68-13.06,6.56c-.5,.25-.72,.58-.77,1.14v.17c.05,.56,.28,.89,.77,1.14l13.06,6.56,1.34,.68c1.36,.7,2.63,1.79,3.32,3.14Z" style="fill: #ae6a2b; fill-rule: evenodd;"/>
      <path d="M244.7,444.99c-.19-1.62-.36-3.24-.48-4.86l-22.22-11.16c-1.69-.85-2.33-2.5-2.41-3.89,.07-1.39,.71-3.04,2.41-3.89l22.21-11.15c.12-1.63,.27-3.25,.46-4.87,5.51,.04,5.01,4.01,.64,6.21l-19.99,10.03c-1.59,.8-2.2,2.36-2.27,3.67,.07,1.31,.68,2.87,2.27,3.67l19.99,10.03c4.37,2.2,4.89,6.16-.62,6.21Z" style="fill: url(#GradientFill_4-5); fill-rule: evenodd;"/>
      <path d="M244.22,410.03v.02c2.5-1.19,4.31-2.8,3.28-4.29v-.02c-.66-.34-1.59-.54-2.82-.55-.19,1.61-.34,3.22-.46,4.84Z" style="fill: url(#GradientFill_7-7); fill-rule: evenodd;"/>
      <path d="M244.23,440.13v-.02c2.5,1.19,4.31,2.8,3.28,4.29v.02c-.66,.34-1.59,.54-2.82,.55-.19-1.61-.34-3.22-.46-4.84Z" style="fill: url(#GradientFill_7-8); fill-rule: evenodd;"/>
    </g>
    <g>
      <path d="M511.99,274.76c-3.23-1.74-6.48-3.31-9.67-4.76-3.04-1.38-6.88-6.31-4.12-11.18,1.5,.64,2.98,1.31,4.45,2.02l20.77-13.66c1.58-1.04,3.33-.77,4.57-.14,1.16,.76,2.28,2.14,2.16,4.03l-1.45,24.82c1.35,.92,2.67,1.87,3.97,2.85-2.84,4.82-9.02,3.97-11.74,2.02-2.84-2.03-5.84-4.07-8.96-5.99Z" style="fill: url(#GradientFill_1-7); fill-rule: evenodd;"/>
      <path d="M529.34,265.08l-15.77,10.68c-.53-.33-1.05-.66-1.58-.99-1.63-.88-3.27-1.72-4.9-2.52l22.73-15.4-.48,8.23Z" style="fill: url(#GradientFill_2-5); fill-rule: evenodd;"/>
      <path d="M501.37,269.47c.24-.12,.49-.26,.74-.43l14.53-9.56c.66-.43,1.34-.62,2.01-.64,.82-.02,1.8-.24,2.44,.15,.65,.36,.96,1.32,1.35,2.04,.31,.58,.5,1.27,.45,2.06l-1.01,17.36c-.02,.3-.02,.59,0,.86-.34-.17-.66-.36-.93-.56-.57-.41-1.14-.81-1.72-1.22,0-.13,0-.26,.01-.39l.08-1.5,.85-14.6c.03-.55-.14-.92-.6-1.24l-.08-.03-.07-.05c-.51-.24-.91-.2-1.38,.1l-12.21,8.04-1.26,.81c-.11,.07-.22,.14-.34,.21-.64-.3-1.28-.59-1.91-.88-.31-.14-.63-.32-.95-.53Z" style="fill: url(#GradientFill_6-5); fill-rule: evenodd;"/>
      <path d="M501.56,269.59c-1.07-.66-2.15-1.7-2.97-2.97,.82,1.03,2.65,1.52,4.89,.04l14.53-9.56c.66-.43,1.34-.62,2.01-.64,.82-.02,1.57,.17,2.2,.56,.65,.36,1.2,.91,1.59,1.63,.31,.58,.5,1.27,.45,2.06l-1.01,17.36c-.16,2.68,1.18,4.02,2.48,4.22-1.51-.07-2.95-.49-4.06-1.08-.83-1.27-1.14-2.92-1.06-4.44l.08-1.5,.85-14.59c.03-.55-.14-.92-.6-1.24l-.08-.03-.07-.05c-.51-.24-.91-.2-1.38,.1l-12.21,8.04-1.26,.82c-1.28,.83-2.86,1.39-4.38,1.3Z" style="fill: #ae6a2b; fill-rule: evenodd;"/>
      <path d="M498.2,258.82c1.5,.64,2.98,1.31,4.45,2.02l20.77-13.66c1.58-1.04,3.33-.77,4.57-.14,1.16,.76,2.28,2.14,2.16,4.03l-1.45,24.81c1.35,.92,2.68,1.86,3.98,2.84-2.79,4.75-5.98,2.34-5.69-2.55l1.31-22.33c.1-1.78-.94-3.08-2.04-3.8-1.17-.59-2.82-.85-4.31,.13l-18.68,12.3c-4.09,2.69-7.78,1.15-5.07-3.64Z" style="fill: url(#GradientFill_4-6); fill-rule: evenodd;"/>
      <path d="M528.73,275.89h-.02c-.22,2.76,.27,5.12,2.08,4.98h.02c.62-.4,1.26-1.1,1.88-2.16-1.3-.97-2.62-1.91-3.96-2.82Z" style="fill: url(#GradientFill_7-9); fill-rule: evenodd;"/>
      <path d="M502.66,260.84h.01c-2.28,1.58-4.58,2.34-5.36,.71v-.02c.02-.74,.31-1.64,.92-2.71,1.49,.64,2.96,1.32,4.43,2.02Z" style="fill: url(#GradientFill_7-10); fill-rule: evenodd;"/>
    </g>
    <g>
      <path d="M338.41,575.41c3.23,1.74,6.48,3.31,9.67,4.76,3.04,1.38,6.87,6.31,4.12,11.18-1.5-.64-2.98-1.31-4.45-2.02l-20.77,13.66c-1.58,1.04-3.33,.77-4.57,.14-1.16-.76-2.28-2.14-2.16-4.03l1.45-24.82c-1.35-.92-2.67-1.87-3.97-2.85,2.83-4.82,9.02-3.97,11.74-2.03,2.85,2.03,5.84,4.07,8.96,5.99Z" style="fill: url(#GradientFill_1-8); fill-rule: evenodd;"/>
      <path d="M321.05,585.1l15.77-10.68c.52,.33,1.05,.67,1.58,.99,1.63,.88,3.27,1.72,4.9,2.52l-22.74,15.4,.48-8.23Z" style="fill: url(#GradientFill_2-6); fill-rule: evenodd;"/>
      <path d="M349.02,580.7c-.24,.12-.49,.26-.74,.43l-14.53,9.56c-.66,.43-1.34,.62-2.01,.64-.82,.02-1.8,.24-2.44-.15-.65-.36-.96-1.32-1.35-2.04-.31-.58-.5-1.27-.45-2.06l1.01-17.36c.02-.3,.02-.59,0-.86,.34,.17,.66,.36,.93,.55,.57,.41,1.14,.81,1.72,1.22,0,.13,0,.26-.01,.39l-.08,1.5-.85,14.6c-.03,.55,.14,.92,.6,1.24l.08,.03,.07,.05c.51,.24,.91,.2,1.38-.1l12.21-8.03,1.26-.82c.11-.07,.22-.14,.34-.21,.64,.3,1.28,.59,1.91,.88,.31,.14,.63,.32,.95,.53Z" style="fill: url(#GradientFill_6-6); fill-rule: evenodd;"/>
      <path d="M348.83,580.58c1.06,.66,2.15,1.7,2.97,2.97-.82-1.03-2.65-1.52-4.89-.04l-14.53,9.56c-.66,.43-1.34,.62-2.01,.64-.82,.02-1.57-.17-2.2-.56-.65-.36-1.2-.91-1.59-1.63-.31-.58-.5-1.27-.45-2.06l1.01-17.36c.16-2.68-1.18-4.02-2.48-4.22,1.51,.07,2.95,.49,4.06,1.08,.83,1.27,1.14,2.92,1.06,4.44l-.08,1.5-.85,14.59c-.03,.55,.14,.92,.6,1.24l.08,.03,.07,.05c.51,.24,.91,.21,1.38-.1l12.21-8.04,1.26-.82c1.28-.83,2.86-1.39,4.38-1.3Z" style="fill: #ae6a2b; fill-rule: evenodd;"/>
      <path d="M352.19,591.35c-1.5-.64-2.98-1.31-4.45-2.02l-20.77,13.66c-1.58,1.04-3.33,.77-4.57,.14-1.16-.76-2.28-2.14-2.16-4.03l1.45-24.81c-1.35-.92-2.68-1.86-3.98-2.83,2.79-4.75,5.98-2.34,5.69,2.55l-1.31,22.33c-.1,1.78,.94,3.08,2.04,3.8,1.17,.59,2.82,.85,4.31-.13l18.68-12.3c4.09-2.69,7.78-1.15,5.07,3.64Z" style="fill: url(#GradientFill_4-7); fill-rule: evenodd;"/>
      <path d="M321.67,574.28h.02c.22-2.76-.27-5.12-2.08-4.98h-.02c-.62,.39-1.26,1.1-1.88,2.16,1.3,.97,2.62,1.91,3.96,2.82Z" style="fill: url(#GradientFill_7-11); fill-rule: evenodd;"/>
      <path d="M347.74,589.33h-.01c2.28-1.58,4.58-2.34,5.35-.71v.02c-.02,.74-.31,1.64-.91,2.71-1.49-.64-2.96-1.32-4.43-2.02Z" style="fill: url(#GradientFill_7-12); fill-rule: evenodd;"/>
    </g>
    <g>
      <path d="M575.52,511.88c1.74-3.23,3.31-6.48,4.76-9.67,1.38-3.04,6.31-6.88,11.18-4.12-.64,1.5-1.31,2.98-2.02,4.45l13.66,20.77c1.04,1.58,.77,3.33,.14,4.57-.76,1.16-2.14,2.27-4.03,2.16l-24.82-1.45c-.92,1.35-1.87,2.67-2.85,3.97-4.82-2.84-3.97-9.02-2.02-11.74,2.03-2.84,4.07-5.84,5.99-8.96Z" style="fill: url(#GradientFill_1-9); fill-rule: evenodd;"/>
      <path d="M585.21,529.23l-10.68-15.77c.33-.52,.66-1.05,.99-1.58,.88-1.63,1.72-3.27,2.52-4.9l15.4,22.74-8.23-.48Z" style="fill: url(#GradientFill_2-7); fill-rule: evenodd;"/>
      <path d="M580.81,501.26c.12,.24,.26,.49,.43,.74l9.56,14.53c.43,.66,.62,1.35,.64,2.01,.02,.82,.24,1.8-.15,2.44-.36,.65-1.32,.96-2.04,1.35-.58,.31-1.27,.5-2.06,.45l-17.36-1.01c-.3-.02-.59-.02-.86,0,.17-.34,.36-.66,.55-.93,.41-.57,.81-1.14,1.22-1.72,.13,0,.26,0,.39,.01l1.5,.08,14.6,.85c.55,.03,.92-.14,1.24-.6l.03-.08,.05-.07c.24-.51,.2-.91-.1-1.38l-8.04-12.21-.82-1.26c-.07-.11-.14-.22-.21-.33,.3-.64,.59-1.28,.88-1.91,.14-.31,.32-.63,.53-.95Z" style="fill: url(#GradientFill_6-7); fill-rule: evenodd;"/>
      <path d="M580.69,501.45c.66-1.06,1.7-2.15,2.97-2.97-1.03,.82-1.52,2.65-.04,4.9l9.56,14.52c.43,.66,.62,1.34,.64,2.01,.02,.82-.17,1.57-.56,2.2-.36,.65-.91,1.2-1.63,1.59-.58,.31-1.27,.5-2.06,.45l-17.36-1.01c-2.68-.16-4.02,1.18-4.22,2.48,.07-1.51,.49-2.96,1.08-4.06,1.27-.83,2.92-1.14,4.44-1.06l1.5,.08,14.6,.85c.55,.03,.92-.14,1.24-.6l.03-.08,.05-.07c.23-.51,.2-.91-.1-1.38l-8.04-12.21-.82-1.26c-.83-1.28-1.39-2.86-1.3-4.38Z" style="fill: #ae6a2b; fill-rule: evenodd;"/>
      <path d="M591.46,498.09c-.64,1.5-1.31,2.98-2.02,4.45l13.66,20.77c1.04,1.58,.77,3.33,.14,4.57-.76,1.16-2.14,2.27-4.03,2.16l-24.81-1.45c-.92,1.35-1.86,2.68-2.83,3.98-4.75-2.79-2.34-5.98,2.55-5.69l22.33,1.31c1.78,.1,3.08-.94,3.8-2.04,.59-1.17,.85-2.82-.13-4.31l-12.29-18.68c-2.69-4.09-1.15-7.78,3.64-5.07Z" style="fill: url(#GradientFill_4-8); fill-rule: evenodd;"/>
      <path d="M574.39,528.62v-.02c-2.76-.22-5.12,.27-4.98,2.08v.02c.4,.62,1.1,1.26,2.16,1.88,.97-1.3,1.91-2.62,2.82-3.96Z" style="fill: url(#GradientFill_7-13); fill-rule: evenodd;"/>
      <path d="M589.44,502.54h-.01c-1.57-2.27-2.33-4.56-.7-5.34h.02c.74,.02,1.64,.31,2.71,.91-.64,1.49-1.32,2.96-2.02,4.43Z" style="fill: url(#GradientFill_7-14); fill-rule: evenodd;"/>
    </g>
    <g>
      <path d="M274.87,338.3c-1.74,3.23-3.31,6.48-4.76,9.67-1.38,3.04-6.31,6.88-11.18,4.12,.64-1.5,1.31-2.98,2.02-4.45l-13.66-20.77c-1.04-1.58-.77-3.33-.14-4.57,.76-1.16,2.14-2.27,4.03-2.16l24.82,1.45c.92-1.35,1.87-2.67,2.85-3.97,4.82,2.84,3.97,9.02,2.02,11.74-2.03,2.84-4.07,5.84-5.99,8.96Z" style="fill: url(#GradientFill_1-10); fill-rule: evenodd;"/>
      <path d="M265.19,320.94l10.68,15.77c-.33,.52-.66,1.05-.99,1.58-.88,1.63-1.72,3.27-2.52,4.9l-15.4-22.73,8.23,.48Z" style="fill: url(#GradientFill_2-8); fill-rule: evenodd;"/>
      <path d="M269.58,348.91c-.12-.24-.26-.49-.43-.74l-9.56-14.53c-.43-.66-.62-1.35-.64-2.01-.02-.82-.24-1.8,.15-2.44,.36-.65,1.32-.96,2.04-1.35,.58-.31,1.27-.5,2.06-.45l17.36,1.01c.3,.02,.59,.02,.86,0-.17,.34-.36,.66-.56,.93-.41,.57-.81,1.14-1.22,1.72-.13,0-.26,0-.39-.01l-1.5-.08-14.6-.85c-.55-.03-.92,.14-1.24,.6l-.03,.08-.05,.07c-.24,.51-.2,.91,.1,1.38l8.04,12.21,.81,1.26c.07,.11,.14,.22,.21,.34-.3,.64-.59,1.28-.88,1.91-.14,.31-.32,.63-.53,.95Z" style="fill: url(#GradientFill_6-8); fill-rule: evenodd;"/>
      <path d="M269.7,348.72c-.66,1.06-1.7,2.15-2.97,2.97,1.03-.82,1.52-2.65,.04-4.89l-9.56-14.53c-.43-.66-.62-1.34-.64-2.01-.02-.82,.17-1.57,.56-2.2,.36-.65,.91-1.2,1.63-1.59,.58-.31,1.27-.5,2.06-.45l17.36,1.01c2.68,.16,4.02-1.18,4.22-2.48-.07,1.51-.49,2.95-1.08,4.06-1.27,.83-2.92,1.14-4.44,1.06l-1.5-.08-14.59-.85c-.55-.03-.92,.14-1.24,.6l-.03,.08-.05,.07c-.24,.51-.2,.91,.1,1.38l8.04,12.21,.81,1.26c.83,1.28,1.39,2.86,1.3,4.38Z" style="fill: #ae6a2b; fill-rule: evenodd;"/>
      <path d="M258.93,352.08c.64-1.5,1.31-2.98,2.02-4.45l-13.66-20.77c-1.04-1.58-.77-3.33-.14-4.57,.76-1.16,2.14-2.27,4.03-2.16l24.81,1.45c.92-1.35,1.86-2.68,2.83-3.98,4.75,2.79,2.34,5.98-2.55,5.69l-22.33-1.31c-1.78-.1-3.08,.94-3.8,2.04-.59,1.17-.85,2.82,.13,4.31l12.29,18.68c2.69,4.09,1.15,7.78-3.64,5.07Z" style="fill: url(#GradientFill_4-9); fill-rule: evenodd;"/>
      <path d="M276,321.56v.02c2.75,.22,5.12-.27,4.98-2.08v-.02c-.4-.62-1.1-1.26-2.16-1.88-.97,1.3-1.91,2.62-2.82,3.96Z" style="fill: url(#GradientFill_7-15); fill-rule: evenodd;"/>
      <path d="M260.95,347.63h.01c1.57,2.27,2.33,4.56,.69,5.34h-.02c-.74-.02-1.64-.31-2.71-.91,.64-1.49,1.32-2.96,2.02-4.43Z" style="fill: url(#GradientFill_7-16); fill-rule: evenodd;"/>
    </g>
    <g>
      <path d="M575.52,338.3c-1.92-3.12-3.96-6.11-5.99-8.96-1.94-2.72-2.8-8.9,2.02-11.74,.97,1.3,1.93,2.62,2.85,3.97l24.82-1.45c1.89-.11,3.27,1,4.03,2.17,.63,1.24,.9,2.99-.14,4.57l-13.66,20.77c.71,1.47,1.37,2.96,2.02,4.45-4.87,2.76-9.8-1.08-11.18-4.12-1.45-3.18-3.02-6.44-4.76-9.67Z" style="fill: url(#GradientFill_1-11); fill-rule: evenodd;"/>
      <path d="M595.39,338.58l-19,1.36c-.29-.55-.58-1.1-.88-1.65-.97-1.58-1.97-3.12-2.99-4.63l27.39-1.97-4.53,6.88Z" style="fill: url(#GradientFill_2-9); fill-rule: evenodd;"/>
      <path d="M568.97,328.41c.27,.02,.55,.02,.86,0l17.36-1.01c.79-.05,1.47,.14,2.06,.45,.72,.39,1.68,.7,2.04,1.35,.39,.64,.17,1.62,.15,2.44-.02,.66-.21,1.35-.64,2.01l-9.56,14.53c-.17,.25-.31,.5-.43,.74-.21-.32-.39-.64-.53-.95-.29-.64-.58-1.27-.88-1.91,.07-.11,.13-.23,.21-.34l.82-1.26,8.04-12.21c.3-.46,.33-.87,.1-1.38l-.05-.07-.03-.08c-.32-.46-.69-.63-1.24-.6l-14.6,.85-1.5,.08c-.13,0-.26,0-.39,.01-.41-.58-.81-1.15-1.22-1.72-.2-.28-.38-.59-.55-.93Z" style="fill: url(#GradientFill_6-9); fill-rule: evenodd;"/>
      <path d="M569.08,328.61c-.59-1.1-1.01-2.55-1.08-4.06,.2,1.3,1.54,2.64,4.22,2.48l17.36-1.01c.78-.05,1.47,.14,2.06,.45,.72,.39,1.27,.93,1.63,1.59,.39,.64,.58,1.39,.56,2.2-.02,.66-.21,1.35-.64,2.01l-9.56,14.53c-1.48,2.24-.99,4.07,.04,4.89-1.27-.82-2.31-1.9-2.97-2.97-.08-1.52,.47-3.1,1.3-4.38l.82-1.26,8.04-12.21c.3-.46,.33-.87,.1-1.38l-.05-.07-.03-.08c-.32-.46-.69-.63-1.24-.6l-14.6,.85-1.5,.08c-1.53,.08-3.17-.23-4.44-1.06Z" style="fill: #ae6a2b; fill-rule: evenodd;"/>
      <path d="M571.55,317.6c.97,1.3,1.93,2.62,2.85,3.97l24.82-1.45c1.89-.11,3.27,1,4.03,2.17,.63,1.24,.9,2.99-.14,4.57l-13.66,20.76c.71,1.47,1.39,2.95,2.03,4.45-4.79,2.72-6.34-.97-3.65-5.06l12.29-18.68c.98-1.49,.73-3.14,.13-4.31-.71-1.1-2.02-2.15-3.8-2.04l-22.33,1.31c-4.89,.29-7.32-2.89-2.57-5.68Z" style="fill: url(#GradientFill_4-10); fill-rule: evenodd;"/>
      <path d="M589.46,347.64h-.01c-1.57,2.27-2.33,4.56-.7,5.34h.02c.74-.02,1.64-.31,2.71-.91-.64-1.49-1.32-2.96-2.02-4.43Z" style="fill: url(#GradientFill_7-17); fill-rule: evenodd;"/>
      <path d="M574.4,321.57v.02c-2.76,.22-5.12-.27-4.98-2.08v-.02c.39-.62,1.1-1.26,2.16-1.88,.97,1.3,1.91,2.62,2.82,3.96Z" style="fill: url(#GradientFill_7-18); fill-rule: evenodd;"/>
    </g>
    <g>
      <path d="M274.87,511.88c1.92,3.12,3.96,6.11,5.99,8.96,1.94,2.72,2.8,8.9-2.02,11.74-.97-1.3-1.93-2.62-2.85-3.97l-24.82,1.45c-1.89,.11-3.27-1-4.03-2.16-.63-1.24-.9-2.99,.14-4.57l13.66-20.77c-.71-1.47-1.37-2.96-2.02-4.45,4.87-2.76,9.8,1.08,11.18,4.12,1.45,3.18,3.02,6.44,4.76,9.67Z" style="fill: url(#GradientFill_1-12); fill-rule: evenodd;"/>
      <path d="M255,511.59l19-1.36c.29,.55,.58,1.1,.88,1.65,.97,1.58,1.97,3.12,2.99,4.63l-27.39,1.97,4.53-6.88Z" style="fill: url(#GradientFill_2-10); fill-rule: evenodd;"/>
      <path d="M281.42,521.77c-.27-.02-.55-.02-.86,0l-17.36,1.01c-.78,.05-1.47-.14-2.06-.45-.72-.39-1.68-.7-2.04-1.35-.39-.64-.18-1.62-.15-2.44,.02-.66,.21-1.35,.64-2.01l9.56-14.53c.17-.25,.31-.5,.43-.74,.21,.32,.39,.64,.53,.95,.29,.64,.58,1.27,.88,1.91-.07,.11-.14,.23-.21,.34l-.81,1.26-8.04,12.21c-.3,.46-.34,.87-.1,1.38l.05,.07,.03,.08c.32,.46,.69,.63,1.24,.6l14.6-.85,1.5-.08c.13,0,.26-.01,.39-.01,.4,.58,.81,1.15,1.22,1.72,.2,.28,.38,.59,.56,.93Z" style="fill: url(#GradientFill_6-10); fill-rule: evenodd;"/>
      <path d="M281.32,521.56c.59,1.1,1.01,2.55,1.08,4.06-.2-1.3-1.54-2.64-4.22-2.48l-17.36,1.01c-.78,.04-1.47-.14-2.06-.45-.72-.39-1.27-.93-1.63-1.59-.39-.64-.58-1.39-.56-2.2,.02-.66,.21-1.35,.64-2.01l9.56-14.52c1.48-2.25,.99-4.07-.04-4.9,1.27,.82,2.31,1.9,2.97,2.97,.08,1.52-.47,3.1-1.3,4.38l-.81,1.26-8.04,12.21c-.3,.46-.33,.87-.1,1.38l.05,.07,.03,.08c.32,.46,.69,.63,1.24,.6l14.59-.85,1.5-.08c1.53-.08,3.17,.23,4.44,1.06Z" style="fill: #ae6a2b; fill-rule: evenodd;"/>
      <path d="M278.84,532.57c-.97-1.3-1.93-2.62-2.85-3.97l-24.82,1.45c-1.89,.11-3.27-1-4.03-2.16-.63-1.24-.9-2.99,.14-4.57l13.66-20.76c-.71-1.47-1.39-2.95-2.03-4.45,4.79-2.72,6.34,.96,3.65,5.05l-12.29,18.68c-.98,1.49-.73,3.14-.13,4.31,.71,1.1,2.02,2.15,3.8,2.04l22.33-1.31c4.89-.29,7.31,2.89,2.57,5.68Z" style="fill: url(#GradientFill_4-11); fill-rule: evenodd;"/>
      <path d="M260.94,502.53h.01c1.57-2.27,2.33-4.56,.7-5.34h-.02c-.74,.02-1.64,.31-2.71,.92,.64,1.49,1.32,2.96,2.02,4.43Z" style="fill: url(#GradientFill_7-19); fill-rule: evenodd;"/>
      <path d="M275.99,528.6v-.02c2.76-.22,5.12,.27,4.98,2.08v.02c-.39,.62-1.1,1.26-2.16,1.88-.97-1.3-1.91-2.62-2.82-3.96Z" style="fill: url(#GradientFill_7-20); fill-rule: evenodd;"/>
    </g>
    <g>
      <path d="M511.99,575.41c3.12-1.92,6.11-3.96,8.96-5.99,2.71-1.94,8.9-2.8,11.74,2.03-1.3,.97-2.62,1.93-3.97,2.85l1.45,24.82c.11,1.89-1,3.27-2.17,4.03-1.24,.63-2.99,.9-4.57-.14l-20.77-13.66c-1.47,.71-2.95,1.37-4.45,2.02-2.76-4.87,1.08-9.8,4.12-11.18,3.18-1.45,6.44-3.02,9.67-4.76Z" style="fill: url(#GradientFill_1-13); fill-rule: evenodd;"/>
      <path d="M511.7,595.28l-1.36-19c.55-.29,1.1-.58,1.65-.88,1.58-.97,3.12-1.97,4.63-2.99l1.97,27.39-6.88-4.53Z" style="fill: url(#GradientFill_2-11); fill-rule: evenodd;"/>
      <path d="M521.87,568.86c-.02,.27-.02,.55,0,.86l1.01,17.36c.04,.78-.14,1.47-.45,2.06-.39,.72-.7,1.68-1.35,2.04-.64,.39-1.62,.17-2.44,.15-.66-.02-1.35-.21-2.01-.64l-14.53-9.56c-.25-.17-.5-.31-.74-.43,.32-.21,.64-.39,.95-.53,.63-.29,1.27-.58,1.91-.88,.11,.07,.23,.14,.33,.21l1.26,.82,12.21,8.03c.46,.3,.87,.34,1.38,.1l.07-.05,.08-.03c.46-.32,.63-.69,.6-1.24l-.85-14.6-.08-1.5c0-.13,0-.26-.01-.39,.58-.4,1.15-.81,1.72-1.22,.28-.2,.59-.38,.93-.55Z" style="fill: url(#GradientFill_6-11); fill-rule: evenodd;"/>
      <path d="M521.67,568.97c1.1-.59,2.55-1.01,4.06-1.08-1.3,.2-2.64,1.54-2.48,4.22l1.01,17.36c.05,.79-.14,1.47-.45,2.06-.39,.72-.93,1.27-1.59,1.63-.64,.39-1.39,.58-2.2,.56-.66-.02-1.35-.21-2.01-.64l-14.53-9.56c-2.25-1.48-4.07-.99-4.89,.04,.82-1.27,1.9-2.31,2.97-2.97,1.52-.08,3.1,.47,4.38,1.3l1.26,.82,12.21,8.04c.46,.3,.87,.34,1.38,.1l.07-.05,.08-.03c.46-.33,.63-.69,.6-1.24l-.85-14.59-.08-1.5c-.08-1.53,.23-3.17,1.06-4.44Z" style="fill: #ae6a2b; fill-rule: evenodd;"/>
      <path d="M532.68,571.44c-1.3,.97-2.62,1.93-3.97,2.85l1.45,24.82c.11,1.89-1,3.27-2.17,4.03-1.24,.63-2.99,.9-4.57-.14l-20.76-13.66c-1.47,.71-2.95,1.39-4.45,2.03-2.72-4.79,.97-6.34,5.05-3.65l18.68,12.29c1.49,.98,3.14,.73,4.31,.13,1.1-.71,2.15-2.02,2.04-3.8l-1.31-22.33c-.28-4.89,2.89-7.31,5.68-2.57Z" style="fill: url(#GradientFill_4-12); fill-rule: evenodd;"/>
      <path d="M502.64,589.34h.01c-2.28-1.58-4.58-2.34-5.35-.71v.02c.02,.74,.31,1.64,.91,2.71,1.49-.64,2.96-1.32,4.43-2.02Z" style="fill: url(#GradientFill_7-21); fill-rule: evenodd;"/>
      <path d="M528.71,574.29h-.02c-.22-2.75,.27-5.12,2.08-4.98h.02c.62,.39,1.26,1.1,1.88,2.16-1.3,.97-2.62,1.91-3.96,2.82Z" style="fill: url(#GradientFill_7-22); fill-rule: evenodd;"/>
    </g>
    <g>
      <path d="M338.41,274.76c-3.12,1.92-6.11,3.96-8.96,5.99-2.71,1.94-8.9,2.8-11.74-2.02,1.31-.97,2.62-1.93,3.97-2.85l-1.45-24.82c-.11-1.89,1-3.27,2.16-4.03,1.24-.63,2.99-.9,4.57,.14l20.77,13.66c1.47-.71,2.96-1.37,4.45-2.02,2.76,4.87-1.08,9.8-4.12,11.18-3.18,1.45-6.44,3.02-9.67,4.76Z" style="fill: url(#GradientFill_1-14); fill-rule: evenodd;"/>
      <path d="M338.7,254.89l1.36,19c-.55,.29-1.1,.58-1.65,.88-1.58,.97-3.12,1.97-4.63,2.99l-1.96-27.39,6.88,4.53Z" style="fill: url(#GradientFill_2-12); fill-rule: evenodd;"/>
      <path d="M328.52,281.31c.02-.27,.02-.55,0-.86l-1.01-17.36c-.04-.78,.14-1.47,.45-2.06,.39-.72,.7-1.68,1.35-2.04,.64-.39,1.62-.17,2.44-.15,.66,.02,1.35,.21,2.01,.64l14.53,9.56c.25,.17,.5,.31,.74,.43-.32,.21-.64,.39-.95,.53-.63,.29-1.27,.58-1.91,.88-.11-.07-.23-.14-.34-.21l-1.26-.81-12.21-8.04c-.46-.3-.87-.34-1.38-.1l-.07,.05-.08,.03c-.46,.32-.63,.69-.6,1.24l.85,14.6,.08,1.5c0,.13,0,.26,.01,.39-.58,.4-1.15,.81-1.72,1.22-.28,.2-.59,.38-.93,.56Z" style="fill: url(#GradientFill_6-12); fill-rule: evenodd;"/>
      <path d="M328.72,281.2c-1.1,.59-2.55,1.01-4.06,1.08,1.3-.2,2.64-1.54,2.48-4.22l-1.01-17.36c-.05-.78,.14-1.47,.45-2.06,.39-.72,.93-1.27,1.59-1.63,.64-.39,1.39-.58,2.2-.56,.66,.02,1.35,.21,2.01,.64l14.53,9.56c2.25,1.48,4.07,.99,4.89-.04-.82,1.27-1.9,2.31-2.97,2.97-1.52,.08-3.1-.47-4.38-1.3l-1.26-.82-12.21-8.04c-.46-.3-.87-.33-1.38-.1l-.07,.05-.08,.03c-.46,.32-.63,.69-.6,1.24l.85,14.59,.08,1.5c.08,1.53-.23,3.17-1.06,4.44Z" style="fill: #ae6a2b; fill-rule: evenodd;"/>
      <path d="M317.71,278.73c1.31-.97,2.62-1.93,3.97-2.85l-1.45-24.82c-.11-1.89,1-3.27,2.16-4.03,1.24-.63,2.99-.9,4.57,.14l20.76,13.66c1.47-.71,2.95-1.39,4.45-2.03,2.72,4.79-.97,6.34-5.05,3.65l-18.68-12.29c-1.49-.98-3.14-.73-4.31-.13-1.1,.71-2.15,2.02-2.04,3.8l1.31,22.33c.28,4.89-2.89,7.31-5.68,2.57Z" style="fill: url(#GradientFill_4-13); fill-rule: evenodd;"/>
      <path d="M347.75,260.83h-.01c2.28,1.58,4.58,2.34,5.35,.71v-.02c-.02-.74-.31-1.64-.91-2.71-1.49,.64-2.96,1.32-4.43,2.02Z" style="fill: url(#GradientFill_7-23); fill-rule: evenodd;"/>
      <path d="M321.68,275.88h.02c.22,2.76-.27,5.12-2.08,4.98h-.02c-.62-.39-1.26-1.1-1.88-2.16,1.3-.97,2.62-1.91,3.96-2.82Z" style="fill: url(#GradientFill_7-24); fill-rule: evenodd;"/>
    </g>
    <g>
      <polygon points="410.17 244.12 408.49 244.26 417.08 230.32 410.17 244.12" style="fill: #844808; fill-rule: evenodd;"/>
      <polygon points="440.24 244.12 441.92 244.26 433.33 230.32 440.24 244.12" style="fill: #844808; fill-rule: evenodd;"/>
    </g>
    <g>
      <polygon points="321.7 275.88 320.32 276.84 320.78 260.47 321.7 275.88" style="fill: #844808; fill-rule: evenodd;"/>
      <polygon points="347.74 260.84 349.27 260.12 334.86 252.34 347.74 260.84" style="fill: #844808; fill-rule: evenodd;"/>
    </g>
    <g>
      <polygon points="528.71 275.88 530.1 276.84 529.63 260.47 528.71 275.88" style="fill: #844808; fill-rule: evenodd;"/>
      <polygon points="502.67 260.84 501.14 260.12 515.56 252.34 502.67 260.84" style="fill: #844808; fill-rule: evenodd;"/>
    </g>
    <g>
      <polygon points="260.96 347.61 260.25 349.14 252.47 334.73 260.96 347.61" style="fill: #844808; fill-rule: evenodd;"/>
      <polygon points="275.99 321.57 276.96 320.19 260.59 320.66 275.99 321.57" style="fill: #844808; fill-rule: evenodd;"/>
    </g>
    <g>
      <polygon points="589.44 347.63 590.15 349.16 597.93 334.75 589.44 347.63" style="fill: #844808; fill-rule: evenodd;"/>
      <polygon points="574.41 321.59 573.44 320.21 589.81 320.67 574.41 321.59" style="fill: #844808; fill-rule: evenodd;"/>
    </g>
    <g>
      <polygon points="244.23 440.11 244.37 441.79 230.43 433.2 244.23 440.11" style="fill: #844808; fill-rule: evenodd;"/>
      <polygon points="244.23 410.04 244.37 408.36 230.43 416.95 244.23 410.04" style="fill: #844808; fill-rule: evenodd;"/>
    </g>
    <g>
      <polygon points="606.17 440.13 606.03 441.81 619.97 433.22 606.17 440.13" style="fill: #844808; fill-rule: evenodd;"/>
      <polygon points="606.18 410.06 606.03 408.38 619.98 416.97 606.18 410.06" style="fill: #844808; fill-rule: evenodd;"/>
    </g>
    <g>
      <polygon points="275.99 528.58 276.95 529.97 260.58 529.5 275.99 528.58" style="fill: #844808; fill-rule: evenodd;"/>
      <polygon points="260.95 502.54 260.23 501.01 252.45 515.43 260.95 502.54" style="fill: #844808; fill-rule: evenodd;"/>
    </g>
    <g>
      <polygon points="347.9 589.41 349.43 590.13 335.02 597.91 347.9 589.41" style="fill: #844808; fill-rule: evenodd;"/>
      <polygon points="321.86 574.38 320.47 573.41 320.94 589.78 321.86 574.38" style="fill: #844808; fill-rule: evenodd;"/>
    </g>
    <g>
      <polygon points="440.22 606.05 441.91 605.91 433.31 619.85 440.22 606.05" style="fill: #844808; fill-rule: evenodd;"/>
      <polygon points="410.15 606.06 408.47 605.91 417.06 619.86 410.15 606.06" style="fill: #844808; fill-rule: evenodd;"/>
    </g>
    <g>
      <polygon points="528.69 574.3 530.08 573.33 529.61 589.7 528.69 574.3" style="fill: #844808; fill-rule: evenodd;"/>
      <polygon points="502.65 589.33 501.12 590.05 515.54 597.83 502.65 589.33" style="fill: #844808; fill-rule: evenodd;"/>
    </g>
    <g>
      <polygon points="589.44 502.54 590.16 501.02 597.94 515.43 589.44 502.54" style="fill: #844808; fill-rule: evenodd;"/>
      <polygon points="574.41 528.59 573.45 529.97 589.82 529.5 574.41 528.59" style="fill: #844808; fill-rule: evenodd;"/>
    </g>
  </g>
</svg>