<?xml version="1.0" encoding="UTF-8"?>
<svg id="NFT_ANVIL" data-name="NFT ANVIL" xmlns="http://www.w3.org/2000/svg" xmlns:xlink="http://www.w3.org/1999/xlink" viewBox="0 0 850.39 850.39">
  <defs>
    <linearGradient id="GradientFill_1" data-name="GradientFill 1" x1="532.27" y1="260.21" x2="381.12" y2="532.89" gradientTransform="matrix(1, 0, 0, 1, 0, 0)" gradientUnits="userSpaceOnUse">
      <stop offset="0" stop-color="#e28b43"/>
      <stop offset="1" stop-color="#f7c96c"/>
    </linearGradient>
    <linearGradient id="GradientFill_3" data-name="GradientFill 3" x1="535.88" y1="419.5" x2="421.7" y2="565.63" gradientTransform="matrix(1, 0, 0, 1, 0, 0)" gradientUnits="userSpaceOnUse">
      <stop offset="0" stop-color="#fbdc70"/>
      <stop offset=".32" stop-color="#f9d86e"/>
      <stop offset=".6" stop-color="#f6ce69"/>
      <stop offset=".85" stop-color="#f1bc60"/>
      <stop offset="1" stop-color="#edaf5a"/>
    </linearGradient>
    <linearGradient id="GradientFill_3-2" data-name="GradientFill 3" x1="500.16" y1="345.63" x2="343.07" y2="546.69" xlink:href="#GradientFill_3"/>
  </defs>
  <g id="NFT_ANVIL_LOGO" data-name="NFT ANVIL LOGO">
    <path d="M399.35,483.96c-26.12,0-44.09-17.34-50.04-34.09,16.71,21.24,41.1,15.41,50.04,34.09h0Zm23.19-201.37h-.4c16.53,31.32,11.77,55.11-16.53,72.04-6.68,4-13.14,8.37-18.95,13.47-9.19,8.06-16.6,17.91-20.46,29.61-4.82,14.61-3.6,30.92,5.7,47.44h0c-21.67-10.19-27.48-33.36-26.52-50.35-14.53,17.36-23.28,39.73-23.28,64.14,0,39.41,22.8,73.49,55.92,89.79,14.77,5.83,31.67,.26,31.77-13.6v-8.1c0-3.93-2.85-6.55-6.83-6.95-20.27-2.05-40.83-10.69-52.64-29.72h136.54v10.44c0,6.1-2.59,9.67-7.9,10.81-11.66,2.5-25.18,5.65-36.84,8.15-4.43,1-7.67,3.16-7.68,7.27l-.02,8.1c.08,10.19,9.22,15.89,19.92,15.89,3.87,0,7.95-.75,11.87-2.3,22.88-11.26,40.84-31.01,49.75-55.15,3.63-9.85,5.69-19.94,5.7-30.09v-.16c0-7.39-1.08-14.81-3.41-22.2-3.69-11.69-6.21-22.42,2.68-28.64-9.21-7.52-32.62-8.24-52.95,6.32l-37.97,27.24,13.95,19.45-25.74,18.46-30.5-42.52c4.65-7.88,5.65-19.11,1.85-29l10.78-7.73,20.14,28.09,47.32-33.94c46.86-34.8,13.09-107.94-45.29-116.26h0Zm-55.34,91.36c1.43-12.86,7.56-25.34,14.76-34.75,6.33-8.27,9.06-14.22,8.26-23.32,16.11,5.29,15.76,21.88,3.86,31.2-8.21,6.44-18.95,14.97-26.88,26.87h0Z" style="fill: url(#GradientFill_1); fill-rule: evenodd;"/>
    <path d="M517.89,439.96l-31.02,60.23v-9.83h-12.44l41.71-80.66c1.86,.77,3.47,1.71,4.79,2.79-8.59,6.01-6.53,16.24-3.05,27.47h0Zm-36.5,70.88l-20.32,39.45c-2.26,.49-4.53,.73-6.72,.73-3.71,0-7.23-.69-10.25-2l17.34-33.53c6-1.35,11.98-2.69,17.53-3.88,.88-.19,1.69-.45,2.42-.77Z" style="fill: url(#GradientFill_3); fill-rule: evenodd;"/>
    <path d="M399.35,483.96c-7.33,0-14.01-1.37-19.97-3.7l-5.24,10.09h26.17l9.4-18.26-15.15-21.12-10.24,19.73c6.33,2.81,11.72,6.36,15.01,13.25h0Zm71.61-67.16l-37.88,73.55h-17.61l3.63-7.01,24.87-17.84-9.09-12.67,8.44-16.32,24.67-17.7c.98-.7,1.97-1.37,2.97-2h0Zm-61.18,118.79l-5.72,11.11c-4.86,3.75-12.21,5.15-19.7,3.82l15.91-30.76c.9,.12,1.8,.22,2.7,.31,3.98,.4,6.83,3.02,6.83,6.95v8.1c0,.16,0,.32-.01,.47h0Zm50.03-130.99l29.48-57.02c2.63,18.85-3.46,37.89-21.47,51.27l-8.02,5.75h0Zm23.84-76.07c-3.51-7.68-8.41-14.95-14.45-21.38l-58.27,112.29,9.57,13.35,14.99-10.75,48.16-93.51h0Zm-97.01,188.36c-7.47-2.23-14.64-5.54-21.01-10.15l-12.68,24.44c5.72,5.47,12.09,10.28,18.98,14.29l14.72-28.57Z" style="fill: url(#GradientFill_3-2); fill-rule: evenodd;"/>
    <path d="M349.32,449.87c4.88,21.34,25.17,39.35,51.3,39.35-.29-2.13-.67-3.65-1.26-5.25-26.12,0-44.09-17.34-50.04-34.09h0Zm73.23-167.27h-.4c1.18,2.24,2.25,4.43,3.21,6.59h0c.54,.12,1.09,.24,1.62,.37,43.04,10.28,70.34,56.01,56.86,91.05h0c19.95-37.37-11.83-90.96-61.3-98.01h0Zm-50.64,162.55c1.84,3.16,3.5,5.48,5.04,7.16-23.59-9.43-35.09-34.89-34.13-51.88-5.07,6.06-9.43,12.72-12.97,19.87,3.9-9.29,9.16-17.88,15.54-25.5-.96,16.99,4.85,40.16,26.52,50.35h0Zm34.99,98.72c1.81-2.37,2.87-5.3,2.9-8.75v-8.1c0-3.93-2.85-6.55-6.83-6.95-20.27-2.05-40.83-10.69-52.64-29.72,8.75,21.93,29.8,33.3,50.07,35.35,3.98,.4,6.83,3.02,6.83,6.95v8.1c0,1.09-.12,2.13-.33,3.12h0Zm79.88-41.14c-.51,4.92-3.08,7.85-7.81,8.87-11.66,2.5-25.18,5.65-36.84,8.15-4.43,1-7.67,3.16-7.68,7.27v.52c1.33-1.01,3.1-1.7,5.11-2.16,11.66-2.5,25.18-5.65,36.84-8.15,4.52-.97,10.41-5.44,10.38-14.5h0Zm25.02,.51c1.55-3.13,2.95-6.36,4.17-9.67,3.64-9.85,5.69-19.94,5.7-30.09v-.16c0-7.39-1.08-14.81-3.41-22.2s-4.19-14.38-3.01-20.1c-5.03,6.37-2.73,15.7,.44,25.73,1.31,4.14,2.22,8.28,2.77,12.43,.44,3.3,.64,6.6,.64,9.92-.02,10.15-2.07,20.24-5.7,30.09-.5,1.36-1.04,2.71-1.6,4.04h0Zm4.96-86.28c-8.69-5.49-26.12-6.2-43.06,2.43-14.03,7.15-28.87,22.24-43.68,26.65l37.97-27.23c20.33-14.56,43.73-13.84,52.95-6.32-1.86,1.3-3.23,2.81-4.18,4.48h0Zm-72.79,48.53l3.57,1.22-31.88,22.87-30.5-42.52c4.65-7.88,5.74-25.78-.2-35.21l4.62,.58c3.8,9.9,2.8,21.12-1.85,29l30.5,42.52,25.74-18.46h0Zm-53.85-143.03c.27-2.05,.31-4.21,.1-6.59,13.11,4.3,15.32,16.08,9.28,25.35,2.01-7.29-.76-14.88-9.37-18.76Z" style="fill: #fbdc70; fill-rule: evenodd;"/>
    <path d="M390.26,316.38l-.04-.49,.06,.02c0,.16-.01,.32-.02,.47Z" style="fill: #ae6a2b; fill-rule: evenodd;"/>
    <path d="M367.21,373.95c.19-1.72,.47-3.44,.82-5.14,7.83-11.23,18.09-19.37,26-25.57,5.02-3.93,7.98-9.16,8.52-14.29,.89,6.25-2.17,13.21-8.46,18.14-8.21,6.44-18.94,14.97-26.88,26.87h0Z" style="fill: #ae6a2b; fill-rule: evenodd;"/>
    <path d="M389.59,412.44l10.78-7.73,20.14,28.09,47.32-33.94c16.3-12.11,22.84-28.86,21.98-45.91-.25,15.7-6.97,30.86-22.04,42.06l-47.32,33.94-20.15-28.09-15.33,11,4.62,.58Z" style="fill: #ae6a2b; fill-rule: evenodd;"/>
    <polygon points="431.8 444.77 430.02 446.05 443.97 465.5 447.54 466.72 431.8 444.77" style="fill: #ae6a2b; fill-rule: evenodd;"/>
    <path d="M514.93,423.4c.29-4.34,1.98-8.09,6.01-10.91-.75-.61-1.6-1.18-2.54-1.7-3.12,3.4-3.91,7.73-3.47,12.61Z" style="fill: #ae6a2b; fill-rule: evenodd;"/>
    <path d="M434.44,532.68v2.44c.07,10.19,9.21,15.89,19.91,15.89,3.87,0,7.95-.75,11.87-2.3,22.88-11.26,40.84-31.01,49.75-55.15,3.64-9.85,5.69-19.94,5.7-30.09v-.16c0-1.06-.02-2.12-.07-3.17-.09,9.97-2.13,19.89-5.7,29.57-8.91,24.13-26.86,43.88-49.75,55.15-3.93,1.55-8,2.3-11.87,2.3-10.2,0-18.98-5.18-19.85-14.48Z" style="fill: #ae6a2b; fill-rule: evenodd;"/>
    <path d="M350.33,490.35h136.48v-3.85h-139.09c.83,1.33,1.7,2.62,2.61,3.85Z" style="fill: #ae6a2b; fill-rule: evenodd;"/>
    <path d="M322.1,458.74v.2c0,39.41,22.8,73.49,55.93,89.79,14.77,5.83,31.67,.26,31.77-13.6v-8.1c0-.34-.02-.68-.06-1v5.25c-.1,13.86-17,19.43-31.77,13.6-32.1-15.79-54.5-48.28-55.86-86.14Z" style="fill: #ae6a2b; fill-rule: evenodd;"/>
    <path d="M345.29,397.5c.01-.92,.04-1.82,.09-2.71l-.16,.2c0,.83,.03,1.66,.07,2.51Z" style="fill: #ae6a2b; fill-rule: evenodd;"/>
    <path d="M371.9,445.15c.92,1.53,3.48,5.72,5.04,7.16l-3.88-11.85c-5.25-9.32-9.84-21.09-8.55-36.36-2.61,12.91-.57,26.9,7.39,41.04Z" style="fill: #ae6a2b; fill-rule: evenodd;"/>
    <path d="M422.55,282.6h-.4c5.71,10.83,8.88,20.75,9.42,29.8,.23-8.94-2.27-18.78-7.42-29.55-.53-.09-1.06-.18-1.6-.26Z" style="fill: #ae6a2b; fill-rule: evenodd;"/>
    <path d="M353.76,454.76c14.95,14.22,33.91,12.56,43.27,25.31-1.17-5.72-3.18-7.97-7.96-10.78-11.38-6.69-27.64-7.79-39.82-23.27-.17,1.19-.08,2.5,.06,3.85,1.4,1.74,2.83,3.35,4.45,4.89Z" style="fill: #ae6a2b; fill-rule: evenodd;"/>
  </g>
</svg>