<?xml version="1.0" encoding="UTF-8"?>
<svg id="b" data-name="Layer 2" xmlns="http://www.w3.org/2000/svg" xmlns:xlink="http://www.w3.org/1999/xlink" viewBox="0 0 128.33 195.33">
  <defs>
    <linearGradient id="d" x1="125.07" y1="-22.77" x2="33.07" y2="193.96" gradientUnits="userSpaceOnUse">
      <stop offset="0" stop-color="#4de9fa"/>
      <stop offset="1" stop-color="#226ed1"/>
    </linearGradient>
  </defs>
  <g id="c" data-name="Layer 1">
    <path d="M64.17,0h0c35.29,0,64.16,28.87,64.16,64.17v124.79c0,3.5-2.86,6.36-6.36,6.36h-38.55c-4.03,0-6.07-2.46-7.75-5.9-8.02-16.45-11.12-31.36-11.66-41.35,4.38,11.13,6.39,15.49,13.25,26.93,.75,1.25,2.77,1.08,2.99-.86l3.19-27.52c.49-4.25,.88-7.79,.79-12.39,1.08,1.48,2.24,2.74,3.59,3.98,4.62,4.21,9.89,6.21,14.92,5.1,4.42-.98,7.99-4.24,10.41-8.95,3.61-7.01,4.68-17.23,2.29-27.96-1.94-8.69-5.8-16.13-10.52-21.19-5.01-5.37-10.99-8.09-16.66-6.82-3.24,.72-6.02,2.66-8.23,5.5-4.59,5.9-6.71,15.67-5.35,26.41h0c-5.31-13.2,.51-33,10.72-36.63-1.72-2.79-3.95-3.63-7.08-4.21l-6.06-1.12c-2.18-.41-3.36-2.54-3.36-4.64v-1.7c-1.28,.36-2.65,.36-3.46,.06,1.44-.59,3.16-1.61,4.3-2.98,1.16-1.4,1.68-3.44,1.97-5.65l.89-6.61c.59,1.29,.84,3,.99,4.6,.09,.97,.16,1.91,.14,2.8,.02,1.06-.1,2.04-.34,2.92,.8,2.01,1.74,3.84,2.87,5.51,1.74-.63,3.41-1.42,4.88-2.4-2.83-3.02-4.48-6.35-5.36-10.58,2.39-1.02,2.82-3.25,1.11-5.51-.52-.69-1.2-1.35-1.89-2.09l-5.89-5.76,4.09,1.2c.93,.27,1.55-.34,1.26-1.22-.97-2.96-3.19-5.37-6.01-6.59-2.81-1.22-6.03-1.18-8.82,.11-3.7,1.72-6.29,5.49-6.29,9.83v2.52c-.66,.69-1.29,1.33-1.79,1.98-1.69,2.23-1.29,4.44,1.02,5.47-.88,4.25-2.53,7.6-5.37,10.63,1.47,.98,3.14,1.78,4.88,2.4,1.65-2.46,2.91-5.24,3.89-8.46,.12,1.16,.49,2.25,1.04,3.21-.6,2.18-1.33,4.24-2.18,6.19,.98,.31,1.99,.59,3,.8,.77-1,1.39-2.45,1.6-3.6v2.91c0,2.12-.8,4.12-3.02,4.54l-1.59,.29c5.86,8.64,8.49,11.57,14.59,17.04-5.33-1.23-10.9-5.7-17.49-13.55-1.31-1.56-3.21-2.5-5.08-1.51-1.3,.69-2.29,1.64-3.03,2.94-.43,.75-.85,1.91-1.18,2.77l-7.34,19.06-6.38-11.61c-.96-1.75-1.05-2.48-1.05-4.38v-1.08c0-1.18-.03-1.95-.31-3.37l-1.08-5.94c-.76,.03-1.34,.28-1.64,.84v-10.28c-1.31-2.83-1.92-5.33-1.92-9.5v-8.64l1.54,7.63c.63,3.13,1.57,5.1,3.03,6.82,1.45-2.96,.96-5.81-.65-10.91l-3.92-12.41-3.92,12.41c-2.21,6.99-2.3,9.74,1.81,14.38v14.81h-.72c-1.89,0-2.83,1.39-2.67,3.19l.65,7.02c.14,1.49,1.23,2.73,2.73,2.73v108.34H6.36c-3.5,0-6.36-2.86-6.36-6.36V64.17C0,28.87,28.87,0,64.17,0h0Zm-19.31,138.23c-1.36-6.01-1-11.66,1.94-18.45,1.58-3.63,3.16-6.88,3.16-11.23v-6.24c0-4.67-.68-9.47-2.56-13.78l-7.29,14.59c-1.51,2.81-3.77,5.68-7.5,5.68-2.03-2.01-3.58-4.9-4.48-8.13l-3.33-12.02v106.66h18.05c4.28,.25,7.02-2.54,6.25-9.83l-2.9-27.27c-.1-.96,.94-1.22,1.39-.51,1.87,2.93,4.37,6.98,5.6,9.68-.41-8.32-6.33-20.31-8.33-29.16h0Zm46.43-51.75c-1.95,.43-3.67,1.49-5.11,3.01-2.11,2.24-3.62,5.51-4.38,9.37,1.69-3.26,4.17-5.52,7.24-6.2,4.14-.92,8.52,1.19,12.11,5.3,3.07,3.51,5.58,8.49,6.86,14.26,1.42,6.37,1.09,12.5-.6,17.19,3.94-4.85,5.46-13.57,3.4-22.8-1.18-5.28-3.35-9.92-6.03-13.42-3.87-5.04-8.83-7.75-13.5-6.71h0ZM61.82,25.86c.76-.17,1.54-.26,2.34-.26h0c.82,0,1.63,.09,2.4,.27l1.13-14.81c-1.12-.34-2.29-.52-3.5-.52s-2.38,.18-3.5,.52l1.13,14.8h0Zm10.22,33.87c-.36,.43-.77,.83-1.25,1.18v1.31c0,.74,.27,1.38,.77,1.9,.62-.16,1.27-.34,1.95-.55-.54-1.23-1.03-2.51-1.46-3.84Z" style="fill: url(#d); fill-rule: evenodd;"/>
  </g>
</svg>