<svg xmlns="http://www.w3.org/2000/svg" xmlns:xlink="http://www.w3.org/1999/xlink" viewBox="0 0 512 512"><defs><linearGradient id="a" x1="214.51" y1="478.22" x2="339.62" y2="11.29" gradientUnits="userSpaceOnUse"><stop offset="0" stop-color="#7aacbc"/><stop offset="0.25" stop-color="#557abc"/><stop offset="0.63" stop-color="#76c9d9"/><stop offset="1" stop-color="#fff"/></linearGradient></defs><path d="M305.18,502.13c59.94,0,105.83-57.74,122.42-102.66,11.73-31.79,14.59-64.92,4.26-97.63-4.95-15.66-41.5-116.41-61.69-84.14-11.35,18.15-26.32,38.8-72.83,50C380.71,192.27,362,21.53,252.88,6.59c30.85,58.37,22,102.69-30.72,134.23a240.36,240.36,0,0,0-35.28,25.08c-17.09,15-30.9,33.34-38.09,55.11-9,27.21-6.7,57.57,10.61,88.31h0c-40.35-19-51.16-62.11-49.37-93.74A185.43,185.43,0,0,0,66.69,335c0,73.37,75.19,167.15,134.81,167.15ZM150.66,176.79c2.65-23.94,14.07-47.17,27.47-64.69C189.91,96.71,195,85.63,193.51,68.69c30,9.84,29.34,40.72,7.19,58.08-15.29,12-35.27,27.86-50,50ZM256,435.13c-73.88,28.64-152.27-69.7-138.64-117C119.25,393.48,251.9,413.31,256,435.13Z" style="fill-rule:evenodd;fill:url(#a)"/></svg>