<?xml version="1.0" encoding="UTF-8"?><svg id="NFT" xmlns="http://www.w3.org/2000/svg" width="88.9mm" height="87.1mm" xmlns:xlink="http://www.w3.org/1999/xlink" viewBox="0 0 252 247"><defs><linearGradient id="GradientFill_3" x1="169.4" y1="19.2" x2="87.1" y2="195.6" gradientUnits="userSpaceOnUse"><stop offset="0" stop-color="#73b856"/><stop offset="1" stop-color="#1aa85c"/></linearGradient><linearGradient id="GradientFill_3-2" x1="133.3" y1="-97.9" x2="127.4" y2="239.7" xlink:href="#GradientFill_3"/></defs><polygon points="105.5 28.5 189.5 63.8 212.8 153.1 152.1 207 136.6 213.8 52.4 178.4 31.7 99.1 29.1 89.1 89.8 34.8 105.5 28.5" fill="#1aa85c" fill-rule="evenodd"/><path d="M133.5,40.3l-3.3,10.7c-4.2-1.8-8.4-3.5-12.6-5.3l3.5-10.7c4.2,1.7,8.3,3.5,12.5,5.2h0Zm18.8,7.9c9.3,3.9,18.5,7.8,27.8,11.7l-3,10.9c-9.3-3.9-18.7-7.9-28-11.8l3.2-10.8h0Zm-8,142.3l-3.3,11.9c-10.3-4.3-20.5-8.6-30.8-12.9l3.5-11.8h.3c10.1,4.4,20.1,8.6,30.2,12.9h0Zm-54.1-9.5l-14.5-6.1,3.8-11.7c4.8,2,9.5,4,14.3,6l-3.6,11.8Z" fill="#73b856" fill-rule="evenodd"/><path d="M123.8,48.3l-14.4,46.8h-.3s-5.7,3.3-5.7,3.3l2.2,9.1-4.4,14.4-8.3-22.2,18.4-56.8c4.2,1.8,8.4,3.6,12.6,5.3h0Zm18.9,8l2.7,1.1c8.4,3.5,16.8,7.1,25.3,10.6l-6,21.7-15.7,2.2-10.5-1-5.7,3.3,1.9,8.1-3.3,.5-.3-1.4-.4-5.5,11.8-39.7h0Zm-7.2,48.7l-3,1.8-5,.7-2.7,9,7.5-1.1,8.3,8-5.7,3.3-13.3,1.9,2.4,10.3,8.1,7-5.7,3.3-10.6,1.5-.6-2.3-7.9,26.5c2.2,.9,4.4,1.9,6.7,2.8,8,3.4,15.9,6.7,23.8,10.1l15.2-55.6-1.7-7.3-4.8-20.2-10.8,1.5-.3-1.3h0Zm-48.1,61.5l-8.7-3.7c-.6-2.2-1.1-4.4-1.7-6.6l8.9-1.3,5.7-3.3-9.1-11-1.2-5.3,1.4-4.3,6.3,8.6,4.7,6.5-6.2,20.2h0Zm71.6-55.8l2.2-8-4,.6,1.8,7.5h0Zm-72.8,9.4l7,9.6-3.4-14.4-.8-3.5-2.7,8.4Z" fill="url(#GradientFill_3)" fill-rule="evenodd"/><path d="M110.2,42.5c11.7,5,23.5,9.9,35.3,14.9,11.7,4.9,23.5,9.9,35.3,14.8,3.2,12.5,6.5,25,9.8,37.5,3.3,12.5,6.5,25,9.8,37.5-8.5,7.6-17,15.1-25.5,22.7-8.5,7.5-17,15.1-25.5,22.7l-1.5-.6c6.9-6.1,13.7-12.2,20.6-18.3,8.5-7.6,17-15.1,25.5-22.7-3.2-12.5-6.5-25-9.8-37.5-3.3-12.5-6.5-25-9.8-37.5-11.8-4.9-23.5-9.9-35.3-14.8-11.3-4.7-22.5-9.5-33.8-14.2l4.9-4.4Z" fill="#117751" fill-rule="evenodd"/><polygon points="29.1 88.9 44.9 82.4 68.2 171.7 152.1 207 136.6 213.8 52.4 178.4 29.1 88.9" fill="#117751" fill-rule="evenodd"/><polygon points="29.1 89.1 44.9 82.4 105.5 28.5 89.8 34.8 29.1 89.1" fill="#1aa85c" fill-rule="evenodd"/><path d="M138.6,91l5.7-3.3,10.5,1,16.1-2.3,8.5,8.7-5.7,3.3-10.8,1.5,4.8,20.2,10.4,16.8-5.7,3.3-10.6,1.5-4.8-20.2-4.8-20.2-10.8,1.5-2.8-12h0Zm-69.4,9.8l5.7-3.3,14.1,15.5,9.9,13.5-3.4-14.4-3.4-14.5,5.7-3.3,10.6,28.1,11.9,22.8-5.7,3.3-10,1.4-9.8-13.5-9.8-13.5,3.4,14.4,9.1,11-5.7,3.3-10,1.4-6.2-26.2-6.2-26.2h0Zm39.9-5.6l6.2,26.2,6.2,26.2,10.6-1.5,5.7-3.3-8.1-7-2.4-10.3,13.3-1.9,5.7-3.3-8.3-8-13.3,1.9-2-8.4,15.6-2.2,5.7-3.3-8.5-8.7-20.6,.4-5.7,3.3Z" fill="#025f47" fill-rule="evenodd"/><line x1="29.1" y1="88.9" x2="44.9" y2="82.4" fill="none" stroke="#000003" stroke-miterlimit="22.9" stroke-width="4"/><path d="M37,119.4l-6.8-25.9,19.5,7.8,6.7,25.7-19.5-7.6h0Zm5.8,22.4l-3.4-13.1,19.5,7.8,3.4,12.9-19.5-7.6Z" fill="#1aa85c" fill-rule="evenodd"/><path d="M105.5,28.5c14,5.9,28,11.8,42,17.7,14,5.9,28,11.8,42,17.7,3.9,14.9,7.8,29.8,11.7,44.6,1.9,7.4,3.9,14.9,5.8,22.3,1.9,7.4,3.9,14.9,5.9,22.3l-4.1,3.6c-1.8-6.9-3.6-13.9-5.5-20.8-1.9-7.4-3.9-14.9-5.8-22.3-3.9-14.9-7.8-29.8-11.7-44.6-14-5.9-28-11.8-42-17.7-14-5.9-28-11.8-42-17.7-10.1,9-20.2,18-30.3,27-8.8,7.8-17.5,15.6-26.3,23.4l-.4-1.5c10.1-9,20.2-18,30.3-27,10.1-9,20.2-18,30.3-27Z" fill="#cae0af" fill-rule="evenodd"/><path d="M200.3,147.2l1.1,4.2c-8.5,7.6-19.2,17.1-27.7,24.7-8.5,7.5-16.8,15.1-25.3,22.7-11.8-5-23.5-9.9-35.3-14.9-11.8-4.9-25.8-10.8-37.5-15.8-3.3-12.5-6.5-25-9.8-37.5-3.2-12.5-7-27-10.3-39.5l3.7-3.3c3.1,11.8,6.7,25.7,9.8,37.5,3.2,12.5,6.5,25,9.8,37.5,11.7,5,23.5,9.9,35.3,14.8,11.8,5,23.5,9.9,35.3,14.9,8.5-7.5,17-15.1,25.5-22.7,7.3-6.5,18.2-16.2,25.5-22.7Z" fill="#cae0af" fill-rule="evenodd"/><path d="M144.2,87.7c5.4-.8,10.8-1.5,16.1-2.3,5.4-.8,10.8-1.5,16.1-2.3,.9,4,1.9,8,2.8,12-3.6,.5-7.2,1-10.8,1.5,1.6,6.7,3.2,13.4,4.8,20.2,1.6,6.7,3.2,13.4,4.8,20.2-3.5,.5-7.1,1-10.6,1.5-1.6-6.7-3.2-13.4-4.8-20.2-1.6-6.7-3.2-13.4-4.8-20.2-3.6,.5-7.2,1-10.8,1.5-1-4-1.9-8-2.8-12h0Zm-69.4,9.8c3.3-.5,6.6-.9,9.9-1.4,3.3,4.5,6.6,9,9.8,13.5,3.3,4.5,6.6,9,9.9,13.5-1.1-4.8-2.3-9.6-3.4-14.4-1.1-4.8-2.3-9.6-3.4-14.5,3.3-.5,6.7-.9,10-1.4,2.1,8.7,4.1,17.5,6.2,26.2,2.1,8.7,4.1,17.4,6.2,26.2-3.3,.5-6.7,.9-10,1.4-3.3-4.5-6.5-9-9.8-13.5-3.3-4.5-6.5-9-9.8-13.5,1.1,4.8,2.3,9.6,3.4,14.4,1.1,4.8,2.3,9.6,3.4,14.4-3.3,.5-6.7,.9-10,1.4-2.1-8.7-4.1-17.4-6.2-26.2-2.1-8.7-4.1-17.4-6.2-26.2h0Zm39.9-5.6c2.1,8.7,4.1,17.5,6.2,26.2,2.1,8.7,4.1,17.4,6.2,26.2,3.5-.5,7.1-1,10.6-1.5-.8-3.4-1.6-6.9-2.4-10.3-.8-3.4-1.6-6.9-2.4-10.3,4.4-.6,8.9-1.3,13.3-1.9-.9-3.8-1.8-7.6-2.7-11.4-4.4,.6-8.9,1.3-13.3,1.9-.7-2.8-1.3-5.6-2-8.4,5.2-.7,10.4-1.5,15.6-2.2-1-4-1.9-8-2.8-12-4.4,.6-8.7,1.2-13.1,1.9-4.4,.6-8.7,1.2-13.1,1.9Z" fill="#1aa85c" fill-rule="evenodd"/><path d="M144.2,87.7c5.4-.8,10.8-1.5,16.1-2.3,4.4-.6,8.7-1.2,13.1-1.8l-3.5,12.9-1.4,.2,.6,2.6-5.9,21.4-.6-2.3c-1.6-6.7-3.2-13.4-4.8-20.2-3.6,.5-7.2,1-10.8,1.5-1-4-1.9-8-2.8-12h0Zm-3.9,.5l-3.9,13c2.4-.3,4.9-.7,7.3-1-1-4-1.9-8-2.8-12h-.6Zm-6.5,22.1l-8.2,27.5,1.5,6.4c3.5-.5,7.1-1,10.6-1.5-.8-3.4-1.6-6.9-2.4-10.3-.8-3.4-1.6-6.9-2.4-10.3,4.4-.6,8.9-1.3,13.3-1.9-.9-3.8-1.8-7.6-2.7-11.4-3.2,.5-6.5,.9-9.7,1.4h0Zm-47.9,33.7l5.9-18.3,2,8.5c1.1,4.8,2.3,9.6,3.4,14.4-3.3,.5-6.7,.9-10,1.4l-1.4-5.9h0Zm6.8-21.1c2.5,3.4,5,6.9,7.5,10.3l3.3,4.6,8.3-27c-1.4-5.9-2.8-11.9-4.2-17.8l-5.5,.8-2.7,8.4c.5,2.2,1.1,4.5,1.6,6.7,1.1,4.8,2.3,9.6,3.4,14.4-2.8-3.8-5.5-7.5-8.2-11.3l-3.5,10.9Z" fill="url(#GradientFill_3-2)" fill-rule="evenodd"/><path d="M144.2,87.7c5.4-.8,10.8-1.5,16.1-2.3,5.4-.8,10.8-1.5,16.1-2.3,.9,4,1.9,8,2.8,12l-4.4,.6c-.8-3.4-1.6-6.8-2.4-10.2-5.4,.8-10.8,1.5-16.1,2.3-3.9,.6-7.9,1.1-11.8,1.7l-.4-1.8h0Zm24.3,9c1.4,6.1,3.3,14.1,4.8,20.2,1.6,6.7,3.2,13.4,4.8,20.2l-4.3,.6c-1.4-6.1-2.9-12.2-4.3-18.3-1.6-6.7-3.2-13.4-4.8-20.2l3.9-2.5h0Zm-93.6,.8c3.3-.5,6.6-.9,9.9-1.4,3.3,4.5,6.6,9,9.8,13.5l9.9,13.5,2.8,11.6c-3.3-4.5-13.2-18.1-16.5-22.7-3.3-4.5-6.6-9-9.8-13.5-1.8,.3-3.7,.5-5.5,.8l-.4-1.8h0Zm23.2-1.4c1.9-.3,3.8-.5,5.7-.8,2.1,8.7,4.1,17.5,6.2,26.2,1.9,8.1,3.8,16.2,5.8,24.3l4.3-.6c-2.1-8.7-4.1-17.4-6.2-26.2-2.1-8.7-4.1-17.4-6.2-26.2-3.3,.5-6.7,1-10,1.4l.4,1.8h0Zm-7.7,23.6c-2.2-3-4.4-6.1-6.7-9.1,1.1,4.8,5,21.2,6.1,26,1,4.2,2,8.4,3,12.5l4.4-.6c-1.1-4.8-2.3-9.6-3.4-14.4l-3.4-14.4h0Zm24.3-27.8c4.4-.6,8.7-1.2,13.1-1.9,4.4-.6,8.7-1.2,13.1-1.9,.9,4,1.9,8,2.8,12l-3.3,.5c-.8-3.4-1.6-6.8-2.4-10.2-4.4,.6-9.8,1.4-14.2,2l-8.8,1.2-.4-1.8h0Zm13.5,10.5l2,8.4,13.3-1.9,2.7,11.4-4.3,.6-2.3-9.5-13.3,1.9-2-8.4,3.9-2.5h0Zm4.7,19.7l2.4,10.3,2.4,10.3-4.4,.6-2-8.4-2.4-10.3,3.9-2.5Z" fill="#cae0af" fill-rule="evenodd"/><path d="M110.2,42.5c11.7,5,23.5,9.9,35.3,14.9,11.7,4.9,23.5,9.9,35.3,14.8,3.2,12.5,6.5,25,9.8,37.5,3.3,12.5,6.5,25,9.8,37.5-8.5,7.6-17,15.1-25.5,22.7-8.5,7.5-17,15.1-25.5,22.7-11.8-5-23.5-9.9-35.3-14.9-11.8-4.9-23.5-9.9-35.3-14.8-3.3-12.5-6.5-25-9.8-37.5-3.2-12.5-6.5-25-9.8-37.5,8.5-7.6,17-15.1,25.5-22.7,8.5-7.5,17-15.1,25.5-22.7Z" fill="none" fill-rule="evenodd" stroke="#000003" stroke-miterlimit="22.9" stroke-width="2.5"/><polygon points="136.6 213.8 52.4 178.4 68.2 171.7 152.1 207 136.6 213.8" fill="#025f47" fill-rule="evenodd"/><path d="M105.5,28.5c14,5.9,28,11.8,42,17.7,14,5.9,28,11.8,42,17.7,3.9,14.9,7.8,29.8,11.7,44.6,1.9,7.4,3.9,14.9,5.8,22.3,1.9,7.4,3.9,14.9,5.9,22.3-10.1,9-20.3,18-30.4,27-10.1,9-20.2,18-30.3,26.9-14-5.9-28-11.8-42-17.6-14-5.9-28-11.8-42-17.7-1.9-7.4-3.9-14.9-5.8-22.3-2-7.4-3.9-14.9-5.8-22.4-3.9-14.9-7.8-29.7-11.7-44.6,10.1-9,20.2-18,30.3-27,10.1-9,20.2-18,30.3-27Z" fill="none" fill-rule="evenodd" stroke="#000003" stroke-miterlimit="22.9" stroke-width="4"/><line x1="68.2" y1="171.7" x2="52.4" y2="178.4" fill="none" stroke="#000003" stroke-miterlimit="22.9" stroke-width="4"/><path d="M152.1,207l-15.5,6.8-84.1-35.4c-7.8-29.8-15.6-59.7-23.4-89.5l30.4-27,30.4-27,15.6-6.3" fill="none" fill-rule="evenodd" stroke="#000003" stroke-miterlimit="22.9" stroke-width="4"/></svg>