<?xml version="1.0" encoding="UTF-8"?><svg id="TF" xmlns="http://www.w3.org/2000/svg" width="88.9mm" height="87.1mm" xmlns:xlink="http://www.w3.org/1999/xlink" viewBox="0 0 252 247"><defs><linearGradient id="GradientFill_1" x1="183" y1="60.4" x2="84.5" y2="166" gradientUnits="userSpaceOnUse"><stop offset="0" stop-color="#fae2e5"/><stop offset="1" stop-color="#eb6675"/></linearGradient><linearGradient id="GradientFill_2" x1="7.2" y1="784" x2="268.9" y2="-562.3" gradientUnits="userSpaceOnUse"><stop offset="0" stop-color="#86072d"/><stop offset="1" stop-color="#d30334"/></linearGradient><linearGradient id="GradientFill_1-2" x1="154" y1="23.1" x2="105.3" y2="205.1" xlink:href="#GradientFill_1"/></defs><path d="M86,46.2c-43.7,23.3-54.5,62.7-27.4,120.9,28.6,42.9,63.1,53.6,102.6,36.1-25.1-52.3-50.2-104.7-75.3-157Z" fill="#d30334" fill-rule="evenodd"/><path d="M60.9,170.4c2.7,3.9,5.5,7.5,8.3,10.8l26.5-8.6-12.6-9.5-22.3,7.3h0Zm13.1,16l36.2-11.7,24.8,19.5-36.1,10.7c-8.7-4.1-17-10.2-24.9-18.5Z" fill="#74042b" fill-rule="evenodd"/><path d="M43.8,108.8l38.8-14.9,7.8-34.7-38.2,17.7c-5.4,9.4-8.2,20-8.5,31.9h0Zm.5,11.6l38.5-13.9v16.2s-35.7,13.1-35.7,13.1c-1.3-5.4-2.3-10.5-2.8-15.5Z" fill="#eb6675" fill-rule="evenodd"/><path d="M99.3,40.4c35.8-15.8,80.6,7,100,50.9,19.4,43.9,6.2,92.4-29.6,108.2-35.8,15.8-80.6-7-100-50.9-19.4-43.9-6.2-92.4,29.6-108.2Z" fill="#eb6675" fill-rule="evenodd"/><path d="M148.9,40.5c9,3.6,17.6,9,25.3,15.9l-2.7,12.7c-7.7-7.6-16.5-13.2-25.7-16.6l3.1-12.1h0Zm-3.4,149.9l-3,14.1c-11.3-.5-22.6-4.1-33.1-10.2l3.5-13.5c10.3,6.3,21.5,9.7,32.6,9.6h0ZM118.3,35.6c3.9-.3,7.8-.3,11.7,.2l-3.7,13.2c-4.3,0-8.6,.5-12.8,1.6l4.7-15h0Zm-24,129l-4.1,14.6c-4.6-4.6-8.8-9.9-12.5-15.6l5.2-16.4c3.2,6.4,7,12.2,11.3,17.4Z" fill="#fae2e5" fill-rule="evenodd"/><path d="M166.7,72.3l-10.4,48.8c-4.6,.6-10.6,.9-14.9-1l-5.6,4.9c1,5.6,2,11.3,3,16.9,4.2-.8,8.4-1.5,12.6-2.3l1-.2-6.8,31.7-10.4-29.4c-4.3-12.1-4.8-25.2-6.7-37.9l1-4c4.2-.8,8.5-1.6,12.7-2.3l14.4-2.6,5.6-4.9-8.6-12c-6.5,1.2-13,2.8-19.6,4.2l6.5-25.2c9.3,2.9,18.3,8.2,26.3,15.4h0Zm-23.6,110.5l-.5,.5-17.5,3.2c-2.4-13.7-4.8-27.4-7.3-41.1l-8.5,33.1c10,7,21.1,11.2,32.2,11.9l1.6-7.6h0ZM106.2,57.4c4.6-1.7,9.4-2.7,14.3-3l-8.5,30.6-14.8,.9,9-28.5h0Zm.6,46.5l-15.7,56.6c-3.8-5.1-7.1-10.7-9.8-16.9-.5-1.1-.9-2.2-1.4-3.2l10.6-33.6,5.5-1,10.8-2Z" fill="url(#GradientFill_1)" fill-rule="evenodd"/><path d="M106,53.2c29.9-13.2,67.4,5.8,83.6,42.6,10.7,24.1,9.6,49.8-.9,68.4,7.9-18,8-41.2-1.7-63.1-16.3-36.7-53.7-55.8-83.6-42.6-10.3,4.6-18.4,12.4-23.9,22.1,5.4-12.2,14.4-22,26.5-27.4Z" fill="url(#GradientFill_2)" fill-rule="evenodd"/><path d="M147.4,176.9l5.6-4.9-13-36.7c-4.7-13.3-4.9-27.7-7.3-41.6,4.8-.9,9.6-1.8,14.4-2.6l14.4-2.6,5.6-4.9-8.6-12c-12.5,2.3-24.8,6.1-37.4,6.9l-31.8,2-5.6,4.9c1,5.7,2,11.3,3,16.9,4.8-.9,9.5-1.7,14.3-2.6,4.8-.9,9.5-1.7,14.3-2.6,2.4,13.9,4.9,27.7,7.4,41.6,2.4,13.9,4.9,27.7,7.3,41.6l17.5-3.2h0Zm21.5-46c-4.2,.8-8.4,1.5-12.6,2.3-4.2,.8-8.4,1.6-12.6,2.3-1-5.6-2-11.3-3-16.9l5.6-4.9c6.1,2.7,15.4,1,19.6,.2l8.6,12-5.6,4.9Z" fill="#d30334" fill-rule="evenodd"/><path d="M153,172.1c-2.5-13.8-4.9-27.7-7.4-41.6-2.4-13.9-4.9-27.7-7.3-41.6,4.8-.9,9.6-1.8,14.4-2.6,4.8-.9,9.6-1.8,14.4-2.6-1-5.6-2-11.3-3-16.9-12.5,2.3-24.9,4.6-37.4,6.9-12.5,2.3-24.9,4.6-37.4,6.9,1,5.7,2,11.3,3,16.9,4.8-.9,9.5-1.7,14.3-2.6,4.8-.9,9.5-1.7,14.3-2.6,2.4,13.9,4.9,27.7,7.4,41.6,2.4,13.9,4.9,27.7,7.3,41.6,5.8-1.1,11.7-2.1,17.5-3.2h0Zm21.5-46c-4.2,.8-8.4,1.5-12.6,2.3-4.2,.8-8.4,1.6-12.6,2.3-1-5.6-2-11.3-3-16.9,4.2-.8,8.4-1.5,12.6-2.3,4.2-.8,8.4-1.6,12.6-2.3,1,5.6,2,11.3,3,16.9Z" fill="#eb6675" fill-rule="evenodd"/><path d="M162.5,110.8l-3.9,18.2c-3.1,.6-6.3,1.2-9.4,1.7-1-5.6-2-11.3-3-16.9,4.2-.8,8.4-1.5,12.6-2.3l3.7-.7h0Zm-11.2,52.1c-1.9-10.8-3.8-21.6-5.7-32.4-2.4-13.9-4.9-27.7-7.3-41.6,4.8-.9,9.6-1.8,14.4-2.6,4.8-.9,9.6-1.8,14.4-2.6-1-5.6-2-11.3-3-16.9-7.6,1.4-15.3,2.8-22.9,4.2l-14.2,55.7,1.2,7.1c2.4,13.9,4.9,27.7,7.3,41.6,4.6-.8,9.2-1.7,13.8-2.5l2.1-9.8h0Zm-31.7-88.1c-4.9,.9-9.8,1.8-14.7,2.7l-5.9,18.5,7.4-1.4,7.9-1.5,5.2-18.4Z" fill="url(#GradientFill_1-2)" fill-rule="evenodd"/><path d="M153,172.1c-2-11.5-4.1-22.9-6.1-34.4l-1.1,.2c-1-5.6-2-11.3-3-16.9l1.1-.2-4.5-25.5c-1.5,.3-3.1,.6-4.6,.8,2.4,13.9,4.9,27.7,7.3,41.6,2.1,11.7,4.1,23.5,6.2,35.2l4.6-.8h0Zm9.4-87.6l4.6-.8c-1-5.6-2-11.3-3-16.9-12.5,2.3-24.9,4.6-37.4,6.9-12.5,2.3-24.9,4.6-37.4,6.9l1.1,6.4c10.9-2,21.9-4,32.8-6,12.5-2.3,24.9-4.6,37.4-6.9,.6,3.5,1.2,7,1.9,10.6h0Zm12.1,41.6l-4.6,.8c-.6-3.5-1.2-7-1.9-10.6-4.2,.8-8.4,1.6-12.6,2.3l-8.1,1.5-1.1-6.4c4.2-.8,8.4-1.5,12.6-2.3,4.2-.8,8.4-1.6,12.6-2.3,1,5.6,2,11.3,3,16.9Z" fill="#fff" fill-rule="evenodd"/><path d="M207.2,146.5c-.9,5.4-2.4,10.7-4.3,15.6,5.5-19.7,4-42.9-5.8-65-19.4-43.9-64.2-66.7-100-50.9-14.7,6.5-25.6,18.5-32,33.4,5.9-17.6,17.6-31.9,34.2-39.2,35.8-15.8,80.6,7,100,50.9,8.2,18.5,10.6,37.9,7.9,55.2Z" fill="#fff" fill-rule="evenodd"/><path d="M169.6,199.5l-16.8,7.3c-35.1,15.2-80.6-7-100-50.9-19.4-43.9-6.3-92.6,29.6-108.2l16.8-7.3" fill="none" fill-rule="evenodd" stroke="#000003" stroke-miterlimit="22.9" stroke-width="4"/><path d="M179.9,175.2c-4.5,4.7-9.8,8.5-15.9,11.2-29.9,13.2-67.4-5.8-83.6-42.6-12.1-27.4-9-57,5.8-75.7-17.4,18.4-21.8,50-8.9,79.3,16.3,36.7,53.7,55.8,83.6,42.6,7.6-3.4,14-8.5,19-14.8Z" fill="#fff" fill-rule="evenodd"/><g><path d="M99.3,40.4c35.8-15.8,80.6,7,100,50.9,19.4,43.9,6.2,92.4-29.6,108.2-35.8,15.8-80.6-7-100-50.9-19.4-43.9-6.2-92.4,29.6-108.2Z" fill="none" fill-rule="evenodd" stroke="#000003" stroke-miterlimit="22.9" stroke-width="4"/><path d="M106,53.2c29.9-13.2,67.4,5.8,83.6,42.6,16.3,36.7,5.2,77.3-24.8,90.5-29.9,13.2-67.4-5.8-83.6-42.6-16.3-36.7-5.2-77.3,24.8-90.5Z" fill="none" fill-rule="evenodd" stroke="#000003" stroke-miterlimit="22.9" stroke-width="2.5"/></g></svg>