<?xml version="1.0" encoding="UTF-8"?><svg id="Liquidity" xmlns="http://www.w3.org/2000/svg" width="88.9mm" height="87.1mm" xmlns:xlink="http://www.w3.org/1999/xlink" viewBox="0 0 252 247"><defs><linearGradient id="linear-gradient" x1="167" y1="71.3" x2="194.4" y2="167.3" gradientUnits="userSpaceOnUse"><stop offset="0" stop-color="#fff"/><stop offset="1" stop-color="#fff" stop-opacity="0"/></linearGradient><linearGradient id="linear-gradient-2" x1="103.1" y1="73.8" x2="130.9" y2="169.3" xlink:href="#linear-gradient"/></defs><path d="M117.4,82c17.2,.5,41.1-5.5,56-11.6,5.2-2.1,9.3-4.3,11.7-6.2,14-11.2-2.4-13.3-12.2-13.3-17.4,0-43.2,8.6-54.2,15.1-8.7,5.1-19.1,15.4-1.3,16Z" fill="#45454d" fill-rule="evenodd"/><path d="M170.8,51.3c3.5,0,5.3,2.7,2.7,5.5-3.4,3.5-12.9,8-24.7,11.2-11,3-20.8,4-25.9,3-4.3-.9-4.8-3.7-1.5-6.4" fill="none" fill-rule="evenodd" stroke="#000003" stroke-miterlimit="22.9" stroke-width="4"/><path d="M141,207.4l-4.9-18c-1.5-5.6,16.2-15.3,39.6-21.6,23.4-6.3,43.6-6.9,45.1-1.3l4.9,18c-1.5-5.6-21.7-5-45.1,1.3-23.4,6.3-41.2,16-39.6,21.6Z" fill="#6d6f7a" fill-rule="evenodd"/><path d="M186.1,206.1c-23.4,6.3-43.6,6.9-45.1,1.3-1.5-5.6,16.2-15.3,39.6-21.6,23.4-6.3,43.6-6.9,45.1-1.3,1.5,5.6-16.2,15.3-39.6,21.6Z" fill="#6d6f7a" fill-rule="evenodd"/><path d="M207.3,115.9l-.3-.7c0,3.6-21.4,12.6-45.3,12.6s-41.6-4.7-44.8-10.8l18.9,70.8c20.5-17.6,57.8-26.4,84.6-23.5l-12.9-48.4Z" fill="#5e8c7c" fill-rule="evenodd"/><path d="M161.9,128.4c25,0,45.3-5.7,45.3-12.6s-20.4-12.6-45.3-12.6-45.3,5.7-45.3,12.6,20.4,12.6,45.3,12.6Z" fill="#8ac694" fill-rule="evenodd"/><path d="M128,107.4l-7.1-25.7c5.4-.2,12-1,19.2-2.5l6.8,24.6c-7.4,.7-13.9,2-19,3.6Z" fill="#babac1" fill-rule="evenodd"/><path d="M153.7,128.2c-8.3-.4-15.8-1.5-21.9-3l13.7,50.7,19.6-5.4-11.4-42.3Z" fill="#50b58b" fill-rule="evenodd"/><path d="M106.9,81.4l-4.5-16.8c-2.2-8.2,14.9-20.1,38.3-26.4,23.4-6.3,44.2-4.8,46.4,3.5h0s4.5,16.8,4.5,16.8h0c-2.2-8.2-23-9.8-46.4-3.5-23.4,6.3-40.6,18.1-38.3,26.4Z" fill="#6d6f7a" fill-rule="evenodd"/><path d="M164,171.4l4.9,18c-7.5,2.6-14,5.5-18.8,8.3l-4.9-18c4.8-2.8,11.3-5.7,18.8-8.3Z" fill="#45454d" fill-rule="evenodd"/><path d="M129,42l4.5,16.8c-4.1,1.6-25.2,14.6-46.1,20.5-17.2,4.8-30.3,3.8-37.1,4.3-6.5,.8-8.4-1.4-5.4-6.7,1.7-3,11.2-11.1,23.7-15.9,15.6-5.9,35.3-8.3,41.9-9.3,4.7-3.4,11-6.8,18.5-9.6Z" fill="#45454d" fill-rule="evenodd"/><g><path d="M199.6,162.5c3.5,0,6.4-2.9,6.4-6.4s-2.9-6.4-6.4-6.4-6.4,2.9-6.4,6.4,2.9,6.4,6.4,6.4Z" fill="#8ac694" fill-rule="evenodd"/><path d="M195.3,154.1c1.3-1,3.5-.3,4.8,1.5,1.3,1.8,1.4,4.1,0,5-1.3,1-3.5,.3-4.8-1.5-1.3-1.8-1.4-4.1,0-5Z" fill="#a6d2ad" fill-rule="evenodd"/><path d="M200.8,152c.8-.6,2.1-.2,2.9,.9,.8,1.1,.8,2.5,0,3.1-.8,.6-2.1,.2-2.9-.9-.8-1.1-.8-2.5,0-3.1Z" fill="#fff" fill-rule="evenodd"/></g><path d="M167.2,200.4c-1.8,3.5-3.5,6.9-5.3,10.4-6.2,.8-18.1,.1-20.2-2.3-2.8-3.2,2-7.5,11.2-12.3,.9,3.5,5.7,4.7,14.3,4.3Z" fill="#babac1" fill-rule="evenodd"/><path d="M206.2,181c2,.4,3.3,1.1,3.6,2.1,1,3.7-10.6,10-25.9,14.1-15.3,4.1-28.5,4.5-29.5,.9-.3-1.1,.5-2.4,2.3-3.9" fill="none" fill-rule="evenodd" stroke="#000003" stroke-miterlimit="22.9" stroke-width="4"/><path d="M149.6,53.9l-4.5-16.8c9.7-2.2,18.7-3.1,25.9-2.7l4.5,16.8c-7.2-.4-16.2,.5-25.9,2.7Z" fill="#babac1" fill-rule="evenodd"/><path d="M184.9,184.8l-4.9-18c9.6-2.4,18.5-3.7,25.5-4l4.9,18c-7,.3-15.9,1.6-25.5,4Z" fill="#babac1" fill-rule="evenodd"/><path d="M186.1,206.1c-23.4,6.3-43.6,6.9-45.1,1.3-1.5-5.6,16.2-15.3,39.6-21.6,23.4-6.3,43.6-6.9,45.1-1.3,1.5,5.6-16.2,15.3-39.6,21.6Z" fill="none" fill-rule="evenodd" stroke="#000003" stroke-miterlimit="22.9" stroke-width="4"/><path d="M148.2,77.7c-22,5.5-40.5,5.8-42,.5" fill="none" fill-rule="evenodd" stroke="#000003" stroke-linecap="round" stroke-linejoin="round" stroke-width="4"/><g><line x1="138.7" y1="184.2" x2="109" y2="74.5" fill="none" stroke="#fff" stroke-miterlimit="22.9" stroke-width="4"/><line x1="216.7" y1="163.4" x2="187" y2="53.7" fill="none" stroke="#fff" stroke-miterlimit="22.9" stroke-width="4"/></g><path d="M189.3,50.1l36.5,134.9m-84.8,22.4L104.6,73" fill="none" fill-rule="evenodd" stroke="#000003" stroke-miterlimit="22.9" stroke-width="4"/><path d="M136.1,189.4c-1.5-5.6,16.2-15.3,39.6-21.6,23.4-6.3,43.6-6.9,45.1-1.3" fill="none" fill-rule="evenodd" stroke="#000003" stroke-miterlimit="22.9" stroke-width="4"/><g><path d="M172.6,144.6c2.8,0,5.1-2.3,5.1-5.1s-2.3-5.1-5.1-5.1-5.1,2.3-5.1,5.1,2.3,5.1,5.1,5.1Z" fill="#8ac694" fill-rule="evenodd"/><path d="M169.3,137.9c1-.8,2.7-.2,3.8,1.2,1.1,1.4,1.1,3.2,0,4-1,.8-2.7,.2-3.8-1.2-1.1-1.4-1.1-3.2,0-4Z" fill="#a6d2ad" fill-rule="evenodd"/><path d="M173.7,136.2c.6-.5,1.7-.1,2.3,.7,.7,.9,.7,2,0,2.4-.6,.5-1.7,.1-2.3-.7-.7-.9-.7-2,0-2.4Z" fill="#fff" fill-rule="evenodd"/></g><path d="M180,166.7l-30.5-112.8c9.7-2.2,18.7-3.1,25.9-2.7l30.1,111.5c-9.8,.9-18.8,2.5-25.5,4Z" fill="url(#linear-gradient)" fill-rule="evenodd"/><path d="M106.9,81.4l-4.5-16.8c-2.2-8.2,14.9-20.1,38.3-26.4,23.4-6.3,44.2-4.8,46.4,3.5h0s4.5,16.8,4.5,16.8h0c-2.2-8.2-23-9.8-46.4-3.5-23.4,6.3-40.6,18.1-38.3,26.4Z" fill="none" fill-rule="evenodd" stroke="#000003" stroke-miterlimit="22.9" stroke-width="4"/><path d="M161.9,128.4c-1.9,0-3.7,0-5.5,0m-10.6-.7c-17-1.8-29.1-6.4-29.1-11.8s19-12.3,43-12.6" fill="none" fill-rule="evenodd" stroke="#006445" stroke-linecap="round" stroke-miterlimit="22.9" stroke-width="2.5"/><path d="M77.1,209.2l-4.9-18c-1.5-5.6,16.2-15.3,39.6-21.6,23.4-6.3,43.6-6.9,45.1-1.3l4.9,18c-1.5-5.6-21.7-5-45.1,1.3-23.4,6.3-41.2,16-39.6,21.6Z" fill="#6d6f7a" fill-rule="evenodd"/><path d="M122.2,207.9c-23.4,6.3-43.6,6.9-45.1,1.3-1.5-5.6,16.2-15.3,39.6-21.6,23.4-6.3,43.6-6.9,45.1-1.3,1.5,5.6-16.2,15.3-39.6,21.6Z" fill="#6d6f7a" fill-rule="evenodd"/><path d="M139.3,102.3l-.3-.7c0,3.6-21.4,12.6-45.3,12.6s-41.6-4.7-44.8-10.8l23,86.1c20.5-17.6,57.8-26.4,84.6-23.5l-17.1-63.8Z" fill="#5e8c7c" fill-rule="evenodd"/><path d="M93.6,114.2c25,0,45.3-5.7,45.3-12.6s-20.4-12.6-45.3-12.6-45.3,5.7-45.3,12.6,20.4,12.6,45.3,12.6Z" fill="#8ac694" fill-rule="evenodd"/><path d="M59.6,93.3l-2.6-9.7c5.4-.2,12-1,19.2-2.5l2.3,8.7c-7.4,.7-13.9,2-19,3.6Z" fill="#babac1" fill-rule="evenodd"/><path d="M85.5,114c-8.3-.4-15.8-1.5-21.9-3l18,66.6,19.6-5.4-15.7-58.2Z" fill="#50b58b" fill-rule="evenodd"/><path d="M43,83.2l-4.5-16.8c-2.2-8.2,14.9-20.1,38.3-26.4,23.4-6.3,44.2-4.8,46.4,3.5h0s4.5,16.8,4.5,16.8h0c-2.2-8.2-23-9.8-46.4-3.5-23.4,6.3-40.6,18.1-38.3,26.4Z" fill="#6d6f7a" fill-rule="evenodd"/><path d="M100.1,173.2l4.9,18c-7.5,2.6-14,5.5-18.8,8.3l-4.9-18c4.8-2.8,11.3-5.7,18.8-8.3Z" fill="#45454d" fill-rule="evenodd"/><path d="M65.1,43.8l4.5,16.8c-7.4,2.9-13.8,6.2-18.5,9.6l-4.5-16.8c4.7-3.4,11-6.8,18.5-9.6Z" fill="#45454d" fill-rule="evenodd"/><path d="M93.6,114.2c-1.9,0-3.7,0-5.5,0m-10.6-.7c-17-1.8-29.1-6.4-29.1-11.8s19-12.3,43-12.6" fill="none" fill-rule="evenodd" stroke="#006445" stroke-linecap="round" stroke-miterlimit="22.9" stroke-width="2.5"/><g><circle cx="73.3" cy="134.4" r="6.2" fill="#8ac694"/><path d="M69.2,132.5c1.3-.9,3.3-.3,4.6,1.5,1.3,1.7,1.3,3.9,0,4.9-1.3,.9-3.3,.3-4.6-1.5-1.3-1.7-1.3-3.9,0-4.9Z" fill="#a6d2ad" fill-rule="evenodd"/><path d="M74.5,130.4c.8-.6,2-.2,2.8,.9,.8,1.1,.8,2.4,0,3-.8,.6-2,.2-2.8-.9-.8-1.1-.8-2.4,0-3Z" fill="#fff" fill-rule="evenodd"/></g><g><path d="M123.3,125c2.3,0,4.1-1.8,4.1-4.1s-1.8-4.1-4.1-4.1-4.1,1.8-4.1,4.1,1.8,4.1,4.1,4.1Z" fill="#8ac694" fill-rule="evenodd"/><path d="M120.6,119.6c.8-.6,2.2-.2,3.1,1,.9,1.2,.9,2.6,0,3.2-.8,.6-2.2,.2-3.1-1-.9-1.2-.9-2.6,0-3.2Z" fill="#a6d2ad" fill-rule="evenodd"/><path d="M124.1,118.3c.5-.4,1.3-.1,1.9,.6,.5,.7,.5,1.6,0,2-.5,.4-1.3,.1-1.9-.6-.5-.7-.5-1.6,0-2Z" fill="#fff" fill-rule="evenodd"/></g><g><path d="M110.6,157.6c4.6,0,8.4-3.8,8.4-8.4s-3.8-8.4-8.4-8.4-8.4,3.8-8.4,8.4,3.8,8.4,8.4,8.4Z" fill="#8ac694" fill-rule="evenodd"/><path d="M105,146.6c1.7-1.3,4.5-.4,6.3,2,1.8,2.4,1.8,5.3,0,6.6-1.7,1.3-4.5,.4-6.3-2-1.8-2.4-1.8-5.3,0-6.6Z" fill="#a6d2ad" fill-rule="evenodd"/><path d="M112.2,143.8c1-.8,2.8-.2,3.8,1.2,1.1,1.4,1.1,3.2,0,4s-2.8,.2-3.8-1.2c-1.1-1.4-1.1-3.2,0-4Z" fill="#fff" fill-rule="evenodd"/></g><path d="M103.3,202.2c-1.8,3.5-3.5,6.9-5.3,10.4-6.2,.8-18.1,.1-20.2-2.3-2.8-3.2,2-7.5,11.2-12.3,.9,3.5,5.7,4.7,14.3,4.3Z" fill="#babac1" fill-rule="evenodd"/><path d="M142.4,182.8c2,.4,3.3,1.1,3.6,2.1,1,3.7-10.6,10-25.9,14.1-15.3,4.1-28.5,4.5-29.5,.9-.3-1.1,.5-2.4,2.3-3.9" fill="none" fill-rule="evenodd" stroke="#000003" stroke-miterlimit="22.9" stroke-width="4"/><path d="M106.1,52.9c3.5,0,5.3,2.7,2.7,5.5-3.4,3.6-12.9,8-24.7,11.2-15.3,4.1-28.5,4.5-29.5,.9-.3-1.1,.5-2.4,2.3-3.9" fill="none" fill-rule="evenodd" stroke="#000003" stroke-miterlimit="22.9" stroke-width="4"/><path d="M85.7,55.7l-4.5-16.8c9.7-2.2,18.7-3.1,25.9-2.7l4.5,16.8c-7.2-.4-16.2,.5-25.9,2.7Z" fill="#babac1" fill-rule="evenodd"/><path d="M121,186.5l-4.9-18c9.6-2.4,18.5-3.7,25.5-4l4.9,18c-7,.3-15.9,1.6-25.5,4Z" fill="#babac1" fill-rule="evenodd"/><path d="M122.2,207.9c-23.4,6.3-43.6,6.9-45.1,1.3-1.5-5.6,16.2-15.3,39.6-21.6,23.4-6.3,43.6-6.9,45.1-1.3,1.5,5.6-16.2,15.3-39.6,21.6Z" fill="none" fill-rule="evenodd" stroke="#000003" stroke-miterlimit="22.9" stroke-width="4"/><path d="M84.3,79.4c-22,5.5-40.5,5.8-42,.5" fill="none" fill-rule="evenodd" stroke="#000003" stroke-linecap="round" stroke-linejoin="round" stroke-width="4"/><g><line x1="74.8" y1="186" x2="45.1" y2="76.3" fill="none" stroke="#fff" stroke-miterlimit="22.9" stroke-width="4"/><line x1="152.8" y1="165.2" x2="123.1" y2="55.5" fill="none" stroke="#fff" stroke-miterlimit="22.9" stroke-width="4"/></g><path d="M125.5,51.8l36.5,134.9m-84.8,22.4L40.7,74.8" fill="none" fill-rule="evenodd" stroke="#000003" stroke-miterlimit="22.9" stroke-width="4"/><path d="M116.2,168.5l-30.5-112.8c9.7-2.2,18.7-3.1,25.9-2.7l30.1,111.5c-10.2,1-19,2.2-25.5,4Z" fill="url(#linear-gradient-2)" fill-rule="evenodd"/><path d="M43,83.2l-4.5-16.8c-2.2-8.2,14.9-20.1,38.3-26.4,23.4-6.3,44.2-4.8,46.4,3.5h0s4.5,16.8,4.5,16.8h0c-2.2-8.2-23-9.8-46.4-3.5-23.4,6.3-40.6,18.1-38.3,26.4Z" fill="none" fill-rule="evenodd" stroke="#000003" stroke-miterlimit="22.9" stroke-width="4"/><path d="M72.2,191.2c-1.5-5.6,16.2-15.3,39.6-21.6,23.4-6.3,43.6-6.9,45.1-1.3" fill="none" fill-rule="evenodd" stroke="#000003" stroke-miterlimit="22.9" stroke-width="4"/></svg>